<svg width="673" height="563" viewBox="0 0 673 563" fill="none" xmlns="http://www.w3.org/2000/svg">
<rect x="328" width="402" height="563" rx="30" fill="#F7F7F7"/>
<g clip-path="url(#clip0)">
<path d="M116.557 133.163H83.0128C79.7879 133.166 76.6959 134.45 74.4155 136.732C72.1352 139.015 70.8528 142.11 70.8498 145.338V181.739C70.421 181.713 69.9921 181.675 69.5695 181.623C61.6227 180.786 54.0674 177.744 47.7555 172.839C41.4437 167.935 36.6262 161.362 33.8464 153.864C31.0666 146.365 30.4349 138.238 32.0226 130.4C33.6103 122.561 37.3542 115.322 42.8322 109.499C48.3103 103.676 55.3045 99.5011 63.0265 97.4441C70.7484 95.3871 78.8909 95.5301 86.536 97.8572C94.181 100.184 101.025 104.603 106.295 110.615C111.565 116.626 115.053 123.992 116.365 131.882C116.435 132.305 116.499 132.734 116.557 133.163Z" fill="#F2F2F2"/>
<path d="M512.557 131.882H83.0131C79.4489 131.886 76.0318 133.305 73.5116 135.827C70.9913 138.35 69.5737 141.77 69.5698 145.338V372.163C69.5737 375.73 70.9913 379.151 73.5116 381.673C76.0318 384.196 79.4489 385.615 83.0131 385.619H512.557C516.121 385.615 519.538 384.196 522.058 381.673C524.579 379.151 525.996 375.73 526 372.163V145.338C525.996 141.77 524.579 138.35 522.058 135.827C519.538 133.305 516.121 131.886 512.557 131.882ZM524.72 372.163C524.717 375.391 523.435 378.486 521.154 380.768C518.874 383.051 515.782 384.334 512.557 384.337H83.0131C79.7882 384.334 76.6962 383.051 74.4158 380.768C72.1354 378.486 70.8531 375.391 70.8501 372.163V145.338C70.8531 142.11 72.1354 139.015 74.4158 136.732C76.6962 134.45 79.7882 133.166 83.0131 133.163H512.557C515.782 133.166 518.874 134.45 521.154 136.732C523.435 139.015 524.717 142.11 524.72 145.338V372.163Z" fill="#3F3D56"/>
<path d="M491.432 168.642H104.138C103.968 168.642 103.806 168.574 103.686 168.454C103.566 168.334 103.498 168.171 103.498 168.001C103.498 167.831 103.566 167.668 103.686 167.548C103.806 167.428 103.968 167.36 104.138 167.36H491.432C491.602 167.36 491.764 167.428 491.884 167.548C492.005 167.668 492.072 167.831 492.072 168.001C492.072 168.171 492.005 168.334 491.884 168.454C491.764 168.574 491.602 168.642 491.432 168.642Z" fill="#3F3D56"/>
<path d="M213.605 358.066C213.435 358.066 213.272 357.999 213.152 357.879C213.032 357.759 212.964 357.596 212.964 357.426V146.619C212.964 146.449 213.032 146.286 213.152 146.166C213.272 146.046 213.435 145.978 213.605 145.978C213.774 145.978 213.937 146.046 214.057 146.166C214.177 146.286 214.245 146.449 214.245 146.619V357.426C214.245 357.596 214.177 357.759 214.057 357.879C213.937 357.999 213.774 358.066 213.605 358.066Z" fill="#3F3D56"/>
<path d="M310.268 358.066C310.098 358.066 309.935 357.999 309.815 357.879C309.695 357.759 309.628 357.596 309.628 357.426V146.619C309.628 146.449 309.695 146.286 309.815 146.166C309.935 146.046 310.098 145.978 310.268 145.978C310.438 145.978 310.601 146.046 310.721 146.166C310.841 146.286 310.908 146.449 310.908 146.619V357.426C310.908 357.596 310.841 357.759 310.721 357.879C310.601 357.999 310.438 358.066 310.268 358.066Z" fill="#3F3D56"/>
<path d="M406.931 358.066C406.761 358.066 406.599 357.999 406.479 357.879C406.358 357.759 406.291 357.596 406.291 357.426V146.619C406.291 146.449 406.358 146.286 406.479 146.166C406.599 146.046 406.761 145.978 406.931 145.978C407.101 145.978 407.264 146.046 407.384 146.166C407.504 146.286 407.571 146.449 407.571 146.619V357.426C407.571 357.596 407.504 357.759 407.384 357.879C407.264 357.999 407.101 358.066 406.931 358.066Z" fill="#3F3D56"/>
<path d="M151.456 234.778H128.064C127.301 234.777 126.568 234.473 126.028 233.933C125.488 233.392 125.184 232.659 125.184 231.895V204.266C125.184 203.502 125.488 202.769 126.028 202.228C126.568 201.688 127.301 201.383 128.064 201.383H151.456C152.219 201.383 152.951 201.688 153.492 202.228C154.032 202.769 154.335 203.502 154.336 204.266V231.895C154.335 232.659 154.032 233.392 153.492 233.933C152.951 234.473 152.219 234.777 151.456 234.778Z" fill="#FFAB63"/>
<path d="M184.744 313.59H161.352C160.589 313.59 159.856 313.285 159.316 312.745C158.776 312.204 158.473 311.471 158.472 310.707V283.078C158.473 282.314 158.776 281.581 159.316 281.04C159.856 280.5 160.589 280.196 161.352 280.195H184.744C185.507 280.196 186.24 280.5 186.78 281.04C187.32 281.581 187.623 282.314 187.624 283.078V310.707C187.623 311.471 187.32 312.204 186.78 312.745C186.24 313.285 185.507 313.59 184.744 313.59Z" fill="#FFAB63"/>
<path d="M260.282 251.438H236.89C236.127 251.437 235.394 251.133 234.854 250.592C234.314 250.052 234.011 249.319 234.01 248.554V220.925C234.011 220.161 234.314 219.428 234.854 218.888C235.394 218.347 236.127 218.043 236.89 218.042H260.282C261.045 218.043 261.778 218.347 262.318 218.888C262.858 219.428 263.162 220.161 263.162 220.925V248.554C263.162 249.319 262.858 250.052 262.318 250.592C261.778 251.133 261.045 251.437 260.282 251.438Z" fill="#FFAB63"/>
<path d="M358.226 221.323H334.834C334.071 221.322 333.338 221.018 332.798 220.477C332.258 219.936 331.954 219.204 331.954 218.439V190.81C331.954 190.046 332.258 189.313 332.798 188.772C333.338 188.232 334.071 187.928 334.834 187.927H358.226C358.989 187.928 359.722 188.232 360.262 188.772C360.802 189.313 361.105 190.046 361.106 190.81V218.439C361.105 219.204 360.802 219.936 360.262 220.477C359.722 221.018 358.989 221.322 358.226 221.323Z" fill="#FFAB63"/>
<path d="M439.252 222.508L421.168 218.829C420.578 218.708 420.071 218.299 419.76 217.69C419.449 217.082 419.359 216.324 419.509 215.584L424.952 188.83C425.103 188.09 425.482 187.428 426.006 186.99C426.53 186.552 427.156 186.372 427.747 186.492L445.831 190.171C446.421 190.292 446.928 190.701 447.239 191.31C447.55 191.918 447.64 192.676 447.49 193.416L442.047 220.169C441.896 220.91 441.517 221.571 440.993 222.01C440.469 222.448 439.843 222.628 439.252 222.508V222.508Z" fill="#FFAB63"/>
<path d="M490.098 229.011H466.706C465.943 229.011 465.21 228.707 464.67 228.166C464.13 227.625 463.827 226.893 463.826 226.128V198.499C463.827 197.735 464.13 197.002 464.67 196.461C465.21 195.921 465.943 195.617 466.706 195.616H490.098C490.861 195.617 491.594 195.921 492.134 196.461C492.674 197.002 492.977 197.735 492.978 198.499V226.128C492.977 226.893 492.674 227.625 492.134 228.166C491.594 228.707 490.861 229.011 490.098 229.011Z" fill="#E6E6E6"/>
<path d="M471.533 278.349H448.141C447.378 278.348 446.645 278.044 446.105 277.504C445.565 276.963 445.262 276.23 445.261 275.466V247.837C445.262 247.073 445.565 246.34 446.105 245.799C446.645 245.258 447.378 244.954 448.141 244.954H471.533C472.296 244.954 473.029 245.258 473.569 245.799C474.109 246.34 474.413 247.073 474.413 247.837V275.466C474.413 276.23 474.109 276.963 473.569 277.504C473.029 278.044 472.296 278.348 471.533 278.349Z" fill="#E6E6E6"/>
<path d="M392.154 268.097H368.763C367.999 268.096 367.267 267.792 366.726 267.252C366.186 266.711 365.883 265.978 365.882 265.214V237.585C365.883 236.821 366.186 236.088 366.726 235.547C367.267 235.007 367.999 234.702 368.763 234.702H392.154C392.918 234.702 393.65 235.007 394.19 235.547C394.73 236.088 395.034 236.821 395.034 237.585V265.214C395.034 265.978 394.73 266.711 394.19 267.252C393.65 267.792 392.918 268.096 392.154 268.097Z" fill="#FF6584"/>
<path d="M346.703 278.349H323.311C322.548 278.348 321.815 278.044 321.275 277.504C320.735 276.963 320.432 276.23 320.431 275.466V247.837C320.432 247.073 320.735 246.34 321.275 245.799C321.815 245.258 322.548 244.954 323.311 244.954H346.703C347.466 244.954 348.199 245.258 348.739 245.799C349.279 246.34 349.582 247.073 349.583 247.837V275.466C349.582 276.23 349.279 276.963 348.739 277.504C348.199 278.044 347.466 278.348 346.703 278.349Z" fill="#E6E6E6"/>
<path d="M248.759 321.92H225.368C224.604 321.919 223.872 321.615 223.332 321.075C222.792 320.534 222.488 319.801 222.487 319.037V291.408C222.488 290.643 222.792 289.911 223.332 289.37C223.872 288.829 224.604 288.525 225.368 288.525H248.759C249.523 288.525 250.255 288.829 250.795 289.37C251.335 289.911 251.639 290.643 251.64 291.408V319.037C251.639 319.801 251.335 320.534 250.795 321.075C250.255 321.615 249.523 321.919 248.759 321.92Z" fill="#E6E6E6"/>
<path d="M130.331 285.397H106.939C106.176 285.397 105.443 285.093 104.903 284.552C104.363 284.011 104.059 283.279 104.059 282.514V254.885C104.059 254.121 104.363 253.388 104.903 252.847C105.443 252.307 106.176 252.003 106.939 252.002H130.331C131.094 252.003 131.827 252.307 132.367 252.847C132.907 253.388 133.21 254.121 133.211 254.885V282.514C133.21 283.279 132.907 284.011 132.367 284.552C131.827 285.093 131.094 285.397 130.331 285.397Z" fill="#FF6584"/>
<path d="M196.266 234.778H172.875C172.111 234.777 171.379 234.473 170.839 233.933C170.299 233.392 169.995 232.659 169.994 231.895V204.266C169.995 203.502 170.299 202.769 170.839 202.228C171.379 201.688 172.111 201.383 172.875 201.383H196.266C197.03 201.383 197.762 201.688 198.302 202.228C198.842 202.769 199.146 203.502 199.147 204.266V231.895C199.146 232.659 198.842 233.392 198.302 233.933C197.762 234.473 197.03 234.777 196.266 234.778Z" fill="#E6E6E6"/>
<path d="M177.116 158.153H140.627C139.948 158.153 139.297 157.883 138.816 157.402C138.336 156.921 138.066 156.269 138.066 155.59C138.066 154.91 138.336 154.258 138.816 153.777C139.297 153.297 139.948 153.027 140.627 153.027H177.116C177.795 153.027 178.446 153.297 178.926 153.777C179.407 154.258 179.676 154.91 179.676 155.59C179.676 156.269 179.407 156.921 178.926 157.402C178.446 157.883 177.795 158.153 177.116 158.153Z" fill="#CCCCCC"/>
<path d="M280.181 158.153H243.692C243.013 158.153 242.362 157.883 241.881 157.402C241.401 156.921 241.131 156.269 241.131 155.59C241.131 154.91 241.401 154.258 241.881 153.777C242.362 153.297 243.013 153.027 243.692 153.027H280.181C280.86 153.027 281.511 153.297 281.991 153.777C282.472 154.258 282.741 154.91 282.741 155.59C282.741 156.269 282.472 156.921 281.991 157.402C281.511 157.883 280.86 158.153 280.181 158.153Z" fill="#CCCCCC"/>
<path d="M376.844 158.153H340.355C339.676 158.153 339.025 157.883 338.544 157.402C338.064 156.921 337.794 156.269 337.794 155.59C337.794 154.91 338.064 154.258 338.544 153.777C339.025 153.297 339.676 153.027 340.355 153.027H376.844C377.523 153.027 378.174 153.297 378.654 153.777C379.135 154.258 379.404 154.91 379.404 155.59C379.404 156.269 379.135 156.921 378.654 157.402C378.174 157.883 377.523 158.153 376.844 158.153Z" fill="#CCCCCC"/>
<path d="M467.106 158.153H430.617C429.938 158.153 429.286 157.883 428.806 157.402C428.326 156.921 428.056 156.269 428.056 155.59C428.056 154.91 428.326 154.258 428.806 153.777C429.286 153.297 429.938 153.027 430.617 153.027H467.106C467.785 153.027 468.436 153.297 468.916 153.777C469.396 154.258 469.666 154.91 469.666 155.59C469.666 156.269 469.396 156.921 468.916 157.402C468.436 157.883 467.785 158.153 467.106 158.153Z" fill="#CCCCCC"/>
<path d="M95.389 345.823C94.4524 345.731 93.5473 345.435 92.7375 344.955C91.9276 344.475 91.2327 343.823 90.7018 343.046C90.1708 342.268 89.8166 341.383 89.6642 340.454C89.5118 339.524 89.5649 338.572 89.8197 337.666L73.4106 322.377L82.0865 320.174L98.2221 333.273C99.7156 333.802 100.963 334.862 101.729 336.25C102.494 337.639 102.724 339.26 102.375 340.807C102.025 342.354 101.121 343.719 99.8339 344.644C98.5464 345.568 96.9649 345.987 95.389 345.823Z" fill="#FFB8B8"/>
<path d="M115.002 457H125.843L131 408H115L115.002 457Z" fill="#FFB8B8"/>
<path d="M139.666 466.539L115 466.54L115 457.001L130.136 457C132.663 457 135.087 458.005 136.874 459.794C138.662 461.583 139.666 464.009 139.666 466.539L139.666 466.539Z" fill="#2F2E41"/>
<path d="M59 452.32L68.5906 456L83 404.43L68.8464 399L59 452.32Z" fill="#FFB8B8"/>
<path d="M80.8354 465.568L56.9998 459.218L59.4511 450L74.0775 453.897C76.52 454.548 78.6041 456.143 79.8715 458.332C81.1388 460.52 81.4856 463.123 80.8354 465.568Z" fill="#2F2E41"/>
<path d="M127.929 411H116.73C116.023 411.002 115.34 410.807 114.817 410.453C114.293 410.099 113.967 409.612 113.901 409.088L107.103 356.574C107.053 356.188 106.825 355.828 106.458 355.554C106.09 355.28 105.606 355.11 105.088 355.073C104.57 355.035 104.051 355.132 103.619 355.348C103.188 355.564 102.87 355.885 102.721 356.255L82.9827 405.327C82.7739 405.848 82.3025 406.29 81.6668 406.559C81.0311 406.828 80.2801 406.905 79.5706 406.772L69.1529 404.835C68.7893 404.767 68.4473 404.647 68.1465 404.48C67.8457 404.314 67.5922 404.105 67.4004 403.865C67.2086 403.626 67.0823 403.361 67.029 403.085C66.9756 402.809 66.9961 402.528 67.0894 402.258C67.2595 401.763 84.0963 352.817 84.2433 352.314C88.0581 331.399 92.6221 325.795 95.0739 322.784C95.2769 322.535 95.4634 322.306 95.6313 322.089C95.8415 321.818 97.1353 319.13 97.956 317.385C98.0626 317.101 98.2472 316.836 98.4981 316.608C98.749 316.38 99.0607 316.193 99.4137 316.059C109.716 312.14 121.77 314.853 125.219 315.778C125.791 315.927 126.282 316.211 126.619 316.586C136.966 328.195 131.888 395.622 130.765 409.021C130.718 409.557 130.399 410.06 129.872 410.428C129.346 410.795 128.651 411 127.929 411V411Z" fill="#2F2E41"/>
<path d="M97.1013 261.688C105.785 261.688 112.824 254.642 112.824 245.951C112.824 237.259 105.785 230.213 97.1013 230.213C88.4178 230.213 81.3784 237.259 81.3784 245.951C81.3784 254.642 88.4178 261.688 97.1013 261.688Z" fill="#FFB8B8"/>
<path d="M95.4356 321.44L95.3226 321.33C95.1107 321.125 74.1618 300.583 76.873 281.588C78.0325 273.464 84.5998 268.273 95.8649 266.575C100.003 265.96 104.225 266.86 107.753 269.111C111.281 271.362 113.879 274.812 115.069 278.827L126.208 316.941L95.4356 321.44Z" fill="#CCCCCC"/>
<path d="M84.7136 336.051L69.7863 321.204C68.7656 320.183 68.0246 318.916 67.6345 317.526C67.2443 316.135 67.2183 314.668 67.5587 313.264L74.7852 283.842C75.0016 282.96 75.3965 282.132 75.9455 281.409C76.4945 280.687 77.1858 280.084 77.9767 279.64C78.7676 279.195 79.6413 278.918 80.5436 278.825C81.4458 278.732 82.3576 278.826 83.2223 279.1C84.8706 279.632 86.2473 280.785 87.0609 282.315C87.8745 283.845 88.0611 285.632 87.5812 287.297L79.9733 313.181L92.2759 326.404L84.7136 336.051Z" fill="#CCCCCC"/>
<path d="M164.779 285.381C164.384 286.237 163.807 286.995 163.088 287.602C162.369 288.21 161.525 288.652 160.617 288.899C159.709 289.145 158.757 289.188 157.83 289.027C156.903 288.865 156.023 288.502 155.251 287.963L135.323 298.301L136.204 289.519L153.87 278.576C154.861 277.338 156.271 276.507 157.833 276.241C159.395 275.974 161 276.29 162.345 277.129C163.689 277.968 164.68 279.271 165.128 280.792C165.577 282.313 165.453 283.946 164.779 285.381H164.779Z" fill="#FFB8B8"/>
<path d="M153.075 291.918L133.648 300.321C132.355 300.876 130.941 301.088 129.543 300.938C128.144 300.788 126.807 300.28 125.661 299.463L100.958 281.747C100.221 281.218 99.5999 280.544 99.1336 279.765C98.6673 278.987 98.3656 278.12 98.2472 277.22C98.1288 276.32 98.1961 275.405 98.4451 274.532C98.6941 273.659 99.1195 272.847 99.6949 272.145C100.8 270.811 102.382 269.96 104.103 269.772C105.825 269.585 107.552 270.075 108.919 271.14L130.1 287.827L146.937 281.307L153.075 291.918Z" fill="#CCCCCC"/>
<path d="M99.7078 250.994C101.647 248.561 105.271 248.43 107.936 246.826C111.426 244.724 112.868 240.027 111.744 236.109C110.619 232.19 107.302 229.137 103.5 227.676C99.6969 226.216 95.4661 226.198 91.4546 226.904C85.4818 227.955 79.6014 230.745 75.9586 235.598C72.3159 240.451 71.3888 247.558 74.6902 252.65C76.2075 254.99 78.5498 256.922 79.1556 259.645C79.9508 263.22 77.4455 266.668 74.7614 269.158C71.7036 271.994 68.1953 274.369 65.5163 277.566C62.8373 280.763 61.0509 285.131 62.2733 289.12C63.2976 292.463 66.2781 294.925 69.5464 296.158C72.8147 297.391 76.3743 297.57 79.8665 297.638C83.2575 297.704 86.8593 297.622 89.7159 295.792C92.774 293.832 94.4068 290.116 94.5275 286.483C94.6481 282.851 93.4355 279.293 91.8103 276.043C90.8416 274.106 89.7152 272.229 89.0715 270.161C88.4279 268.092 88.3163 265.746 89.3472 263.841C90.4307 261.839 92.6229 260.631 94.8551 260.192C94.9711 260.17 95.0938 260.149 95.2222 260.131C95.8573 260.049 96.4691 259.838 97.0206 259.512C97.5721 259.186 98.0519 258.752 98.4308 258.235C98.8098 257.718 99.0802 257.13 99.2255 256.506C99.3708 255.881 99.3882 255.234 99.2765 254.603C99.0221 253.184 99.0441 251.826 99.7078 250.994Z" fill="#2F2E41"/>
<path d="M309.341 459.497H301.493L297.76 429.197L309.343 429.198L309.341 459.497Z" fill="#A0616A"/>
<path d="M295.887 457.252H311.023V466.791H286.357C286.357 465.539 286.604 464.298 287.083 463.141C287.562 461.984 288.264 460.932 289.149 460.046C290.034 459.161 291.084 458.458 292.24 457.979C293.397 457.499 294.636 457.252 295.887 457.252Z" fill="#2F2E41"/>
<path d="M366.286 450.599L359.148 453.862L343.173 427.855L353.71 423.038L366.286 450.599Z" fill="#A0616A"/>
<path d="M353.117 454.152L366.884 447.858L370.844 456.535L348.408 466.792C347.888 465.652 347.597 464.422 347.552 463.17C347.508 461.918 347.71 460.669 348.147 459.496C348.584 458.322 349.248 457.246 350.101 456.329C350.954 455.412 351.978 454.673 353.117 454.152Z" fill="#2F2E41"/>
<path d="M340.397 356.819C341.149 356.253 341.768 355.528 342.21 354.696C342.652 353.865 342.906 352.946 342.955 352.006C343.004 351.065 342.846 350.125 342.493 349.252C342.14 348.379 341.599 347.594 340.91 346.952L350.136 326L338.415 327.988L331.451 347.58C330.452 348.81 329.937 350.365 330.006 351.949C330.075 353.534 330.722 355.038 331.825 356.177C332.927 357.316 334.409 358.01 335.989 358.128C337.569 358.247 339.138 357.781 340.397 356.819Z" fill="#A0616A"/>
<path d="M308.841 451.508H301.343C300.616 451.505 299.917 451.229 299.384 450.733C298.852 450.237 298.525 449.559 298.47 448.833L294.382 339.548C294.351 339.129 294.413 338.709 294.561 338.316C294.71 337.924 294.943 337.568 295.243 337.275C295.543 336.982 295.904 336.758 296.3 336.619C296.696 336.48 297.117 336.429 297.535 336.47L340.895 341.079C341.598 341.148 342.251 341.472 342.731 341.991C343.21 342.51 343.482 343.187 343.496 343.894L344.405 392.101C344.409 392.363 344.46 392.621 344.554 392.866L362.341 439.033C362.478 439.39 362.544 439.77 362.533 440.152C362.522 440.535 362.435 440.911 362.278 441.259C362.12 441.607 361.895 441.921 361.616 442.181C361.336 442.442 361.007 442.644 360.649 442.776L353.051 445.578C352.392 445.821 351.666 445.814 351.01 445.559C350.355 445.303 349.816 444.817 349.494 444.191L327.644 401.665C327.525 401.434 327.438 401.188 327.385 400.933L323.652 382.932C323.544 382.41 323.254 381.944 322.833 381.617C322.412 381.29 321.889 381.123 321.357 381.147C320.825 381.172 320.319 381.385 319.93 381.748C319.54 382.112 319.293 382.603 319.233 383.132L311.703 448.952C311.623 449.656 311.287 450.305 310.759 450.776C310.231 451.248 309.548 451.508 308.841 451.508Z" fill="#2F2E41"/>
<path d="M312.574 254.098C321.258 254.098 328.297 247.052 328.297 238.36C328.297 229.669 321.258 222.623 312.574 222.623C303.891 222.623 296.852 229.669 296.852 238.36C296.852 247.052 303.891 254.098 312.574 254.098Z" fill="#A0616A"/>
<path d="M323.357 349.541C312.695 349.423 302.287 346.268 293.351 340.443L293.198 340.338L293.214 340.152L299.228 270.044C299.436 267.665 300.496 265.442 302.214 263.786C303.932 262.13 306.191 261.152 308.574 261.034C316.368 260.675 326.838 261.128 332.443 265.306C340.912 271.62 344.995 281.128 343.642 291.392C340.839 312.677 344.015 341.389 344.386 344.593L344.413 344.824L344.202 344.921C337.673 347.961 330.559 349.538 323.357 349.541Z" fill="#FFAB63"/>
<path d="M345.37 335C344.958 334.999 344.55 334.918 344.173 334.762C343.795 334.606 343.456 334.378 343.177 334.093L339.977 330.814C339.631 330.458 339.388 330.024 339.273 329.554C339.157 329.085 339.172 328.595 339.316 328.132L346.615 304.94L335.509 283.046C334.99 282.021 334.863 280.859 335.149 279.757C335.401 278.789 335.96 277.916 336.751 277.252C337.543 276.589 338.53 276.166 339.583 276.04C340.635 275.913 341.704 276.09 342.647 276.545C343.591 277.001 344.366 277.714 344.869 278.591L359.939 301.548C360.551 302.479 360.911 303.537 360.985 304.629C361.06 305.721 360.848 306.814 360.368 307.811L348.089 333.353C347.887 333.776 347.576 334.144 347.184 334.425C346.792 334.706 346.332 334.892 345.845 334.964C345.688 334.988 345.529 335 345.37 335V335Z" fill="#FFAB63"/>
<path d="M234.935 293.724C236.059 294.287 237.353 294.678 238.725 294.868C240.097 295.058 241.515 295.043 242.877 294.824C244.24 294.605 245.515 294.187 246.612 293.6C247.71 293.014 248.602 292.272 249.228 291.427L283 294.378L275.239 283.664L244.358 282.504C242.183 281.89 239.749 281.835 237.517 282.349C235.285 282.864 233.411 283.911 232.249 285.294C231.088 286.677 230.72 288.299 231.215 289.853C231.709 291.407 233.033 292.784 234.935 293.724V293.724Z" fill="#A0616A"/>
<path d="M292.105 300C291.818 300 291.53 299.972 291.245 299.917L265.236 294.891C264.811 294.81 264.407 294.582 264.061 294.229C263.714 293.876 263.437 293.409 263.253 292.869C263.193 292.695 263.143 292.515 263.104 292.33H263.104C263.004 291.85 262.975 291.346 263.022 290.85C263.068 290.355 263.187 289.877 263.372 289.449L265.525 284.477C265.756 283.946 266.082 283.506 266.47 283.201C266.859 282.895 267.297 282.733 267.743 282.732H267.747L290.418 282.768L307.35 261.632C308.138 260.65 309.144 260.077 310.199 260.007C311.126 259.947 312.044 260.28 312.832 260.962C313.62 261.644 314.241 262.642 314.614 263.826C314.986 265.009 315.093 266.323 314.919 267.592C314.744 268.862 314.298 270.028 313.639 270.937L296.744 297.118C296.159 298.025 295.444 298.75 294.645 299.247C293.846 299.743 292.98 300 292.105 300V300Z" fill="#FFAB63"/>
<path d="M314.362 252.361C315.799 249.032 317.015 244.6 314.259 242.246C312.66 240.881 310.358 240.879 308.263 240.709C302.363 240.23 296.289 237.513 293.405 232.338C290.521 227.164 292.131 219.469 297.572 217.135C301.24 215.561 305.445 216.633 309.284 217.723L320.81 220.994C324.235 221.966 327.831 223.038 330.297 225.609C334.229 229.708 333.935 236.637 330.812 241.383C327.688 246.128 322.985 251.078 317.6 252.879L314.362 252.361Z" fill="#2F2E41"/>
<path d="M473.384 467H0.761992C0.661709 467 0.562358 466.981 0.469626 466.943C0.376893 466.904 0.29261 466.848 0.221597 466.777C0.150584 466.706 0.094239 466.622 0.0557953 466.53C0.0173517 466.437 -0.00244141 466.337 -0.00244141 466.237C-0.00244141 466.137 0.0173517 466.037 0.0557953 465.945C0.094239 465.852 0.150584 465.768 0.221597 465.697C0.29261 465.626 0.376893 465.57 0.469626 465.532C0.562358 465.493 0.661709 465.474 0.761992 465.474H473.384C473.485 465.474 473.584 465.493 473.677 465.532C473.77 465.57 473.854 465.626 473.925 465.697C473.996 465.768 474.052 465.852 474.091 465.945C474.129 466.037 474.149 466.137 474.149 466.237C474.149 466.337 474.129 466.437 474.091 466.53C474.052 466.622 473.996 466.706 473.925 466.777C473.854 466.848 473.77 466.904 473.677 466.943C473.584 466.981 473.485 467 473.384 467Z" fill="#3F3D56"/>
<path d="M225.501 473.005C223.125 470.461 221.682 466.443 222.06 462.531C222.439 458.618 224.783 455.022 227.824 454.191C230.865 453.361 234.331 455.66 235.255 459.424C235.763 452.168 236.349 444.608 239.394 438.428C242.151 432.833 246.926 428.83 252.101 428.114C257.277 427.397 262.726 430.102 265.953 435.278C269.181 440.453 269.971 447.977 267.711 453.919C266.045 458.296 262.977 461.553 259.763 464.204C249.507 472.658 236.785 475.515 224.68 473.258L225.501 473.005Z" fill="#FFAB63"/>
<path d="M211.166 465.484C214.147 462.966 215.958 458.988 215.483 455.116C215.008 451.244 212.067 447.684 208.252 446.862C204.437 446.04 200.087 448.316 198.929 452.041C198.291 444.859 197.556 437.376 193.736 431.26C190.276 425.722 184.5 419 177.59 414.438C164.59 407.938 155.5 413.438 153 418C148.256 424 150.164 440.981 153 446.862C155.089 451.195 160.467 457.377 164.5 460C177.367 468.369 197.008 467.968 212.196 465.734L211.166 465.484Z" fill="#FFAB63"/>
<path d="M162.244 423.167C167.601 427.529 172.516 432.408 176.918 437.732C181.32 443.051 185.196 448.784 188.49 454.851C190.332 458.254 191.986 461.755 193.446 465.339C193.744 466.068 192.559 466.385 192.265 465.664C189.679 459.347 186.481 453.297 182.715 447.603C178.967 441.93 174.677 436.633 169.906 431.788C167.208 429.049 164.361 426.46 161.378 424.033C160.766 423.535 161.637 422.674 162.244 423.167V423.167Z" fill="white"/>
</g>
<defs>
<clipPath id="clip0">
<rect width="526" height="371" fill="white" transform="translate(0 96)"/>
</clipPath>
</defs>
</svg>
