<svg width="281" height="188" viewBox="0 0 281 188" fill="none" xmlns="http://www.w3.org/2000/svg">
<path d="M9 16C9 7.16344 16.1634 0 25 0H252C262.493 0 271 8.50659 271 19V87C271 93.0751 266.075 98 260 98H20C13.9249 98 9 93.0751 9 87V16Z" fill="#ECECEC"/>
<path d="M45.9504 42.5146C53.8155 42.5146 60.1913 36.1387 60.1913 28.2737C60.1913 20.4086 53.8155 14.0327 45.9504 14.0327C38.0854 14.0327 31.7095 20.4086 31.7095 28.2737C31.7095 36.1387 38.0854 42.5146 45.9504 42.5146Z" fill="#2F2E41"/>
<path d="M98.012 79.9765C97.745 80.3805 97.4195 80.7421 97.0464 81.0493C96.5089 81.4952 95.8838 81.8217 95.2122 82.0076C94.5405 82.1935 93.8373 82.2344 93.1488 82.1278C92.4603 82.0212 91.802 81.7694 91.2169 81.3889C90.6319 81.0084 90.1333 80.5079 89.754 79.92C89.6661 79.7831 89.5855 79.6415 89.5125 79.496L67.5595 77.365C65.8269 77.1901 64.1965 76.4578 62.9104 75.2768C61.6242 74.0958 60.7508 72.5289 60.4199 70.8089L59.1738 64.1997L67.7414 62.8587L69.2788 68.1527L90.6828 73.4425C90.8485 73.2962 91.0243 73.1617 91.2088 73.0401C92.1635 72.4167 93.3029 72.1438 94.4344 72.2674C95.566 72.3911 96.6205 72.9038 97.4199 73.7189C98.2194 74.534 98.7149 75.6017 98.8228 76.7417C98.9306 77.8817 98.6443 79.0243 98.012 79.9766L98.012 79.9765Z" fill="#FFB8B8"/>
<path d="M69.8677 67.2696L60.1839 69.9084C59.66 70.0505 59.1016 69.9772 58.6312 69.7046C58.1608 69.4319 57.8169 68.9822 57.6748 68.454L54.283 55.7885C53.9197 54.4318 54.0671 52.9874 54.697 51.7339C55.3268 50.4805 56.3944 49.5066 57.6939 49.0001C58.9935 48.4936 60.4329 48.4904 61.7346 48.9911C63.0363 49.4918 64.1081 50.461 64.7434 51.7116L71.1553 64.3356C71.2943 64.6093 71.371 64.9109 71.3796 65.2183C71.3883 65.5257 71.3288 65.8312 71.2053 66.1125C71.0819 66.3937 70.8978 66.6435 70.6663 66.8437C70.4349 67.0439 70.1621 67.1894 69.8677 67.2696Z" fill="#2F2E41"/>
<path d="M64.2611 181.872H69.7742L72.3974 160.511L64.2598 160.511L64.2611 181.872Z" fill="#FFB8B8"/>
<path d="M80.5181 186.698L63.1096 186.699L63.1093 179.976L73.7918 179.975C75.5756 179.975 77.2864 180.683 78.5478 181.944C79.8093 183.205 80.518 184.915 80.5181 186.698Z" fill="#2F2E41"/>
<path d="M15.4341 175.899L20.2909 177.803L29.675 159.253L22.5071 156.442L15.4341 175.899Z" fill="#FFB8B8"/>
<path d="M28.2861 186.699L11.9999 180.552L14.3757 174.263L24.3696 178.034C26.0384 178.664 27.3886 179.931 28.1231 181.556C28.8576 183.181 28.9163 185.031 28.2861 186.699L28.2861 186.699Z" fill="#2F2E41"/>
<path d="M63.8409 176.786C63.4122 176.786 62.9946 176.649 62.6481 176.395C62.3015 176.141 62.0439 175.782 61.9121 175.372L47.8058 131.509C47.764 131.379 47.6843 131.265 47.5771 131.181C47.47 131.097 47.3402 131.048 47.2047 131.039C47.0693 131.03 46.9344 131.063 46.8175 131.132C46.7007 131.202 46.6073 131.305 46.5495 131.429L26.9999 173.309C26.7881 173.762 26.4189 174.121 25.9621 174.318C25.5052 174.515 24.9924 174.537 24.5208 174.379L16.8213 171.795C16.3323 171.63 15.9239 171.284 15.6786 170.827C15.4334 170.37 15.3698 169.836 15.5005 169.334L27.4756 123.662C28.7286 118.825 29.6338 113.902 30.1839 108.933C31.0237 100.751 34.8337 93.1686 40.8833 87.6402C43.5248 85.2035 45.2419 81.9173 45.7402 78.3453L45.7724 78.1169L63.3096 80.9048L74.4181 172.173C74.4755 172.661 74.357 173.154 74.084 173.562C73.8111 173.97 73.4019 174.265 72.9308 174.395L64.3711 176.715C64.1983 176.762 64.02 176.786 63.8409 176.786Z" fill="#2F2E41"/>
<path d="M51.545 42.5146C57.4437 42.5146 62.2257 37.505 62.2257 31.3253C62.2257 25.1456 57.4437 20.136 51.545 20.136C45.6462 20.136 40.8643 25.1456 40.8643 31.3253C40.8643 37.505 45.6462 42.5146 51.545 42.5146Z" fill="#FFB8B8"/>
<path d="M66.5536 121.203C66.5191 121.203 66.4846 121.202 66.4499 121.2L29.1826 120.325C28.7006 120.303 28.2427 120.105 27.8927 119.769C27.5428 119.432 27.3243 118.978 27.2773 118.491C27.2773 118.491 27.2773 92.5 44.563 82.5C47 81.0902 40.9184 57.169 40.9184 57.169C40.7457 55.461 40.9876 53.7362 41.6228 52.1447C42.258 50.5533 43.2674 49.1435 44.563 48.0382C45.8586 46.9329 47.4011 46.1657 49.0561 45.8034C50.711 45.4411 52.4283 45.4947 54.0581 45.9595C55.4084 46.3345 56.6669 46.9909 57.753 47.8868C64.246 53.2941 70 64 63.5 81C71 97 69.1867 117.204 68.4934 119.706C68.3766 120.137 68.1235 120.517 67.773 120.787C67.4225 121.058 66.994 121.204 66.5536 121.203Z" fill="#FFAB63"/>
<path d="M47.1621 98.4612C46.686 98.4613 46.2125 98.39 45.7574 98.2496C45.099 98.0493 44.4903 97.7114 43.971 97.2582C43.4518 96.805 43.0337 96.2467 42.7442 95.6199C42.4547 94.9931 42.3004 94.312 42.2913 93.6211C42.2822 92.9302 42.4185 92.2451 42.6913 91.6108C42.7552 91.4635 42.8268 91.3196 42.9057 91.1799L32.6392 71.8871C31.8344 70.3609 31.541 68.6146 31.8025 66.9075C32.064 65.2004 32.8666 63.6236 34.0911 62.411L38.8099 57.7728L44.5919 64.1157L41.1071 68.2763L48.4922 88.8405C48.7025 88.8975 48.9085 88.9692 49.1088 89.0551C50.1404 89.5032 50.9866 90.295 51.5044 91.297C52.0223 92.2989 52.1802 93.4497 51.9515 94.555C51.7227 95.6604 51.1213 96.6526 50.2488 97.3642C49.3763 98.0758 48.286 98.4633 47.1621 98.4612L47.1621 98.4612Z" fill="#FFB8B8"/>
<path d="M42.142 68.4624L34.4534 61.9548C34.038 61.6024 33.7843 61.1053 33.7481 60.5726C33.7119 60.0399 33.8961 59.5151 34.2603 59.1134L43.0016 49.4909C43.9379 48.4602 45.2365 47.8006 46.6468 47.6393C48.0571 47.478 49.4794 47.8264 50.6393 48.6173C51.7993 49.4083 52.6148 50.5858 52.9286 51.9227C53.2424 53.2597 53.0322 54.6614 52.3387 55.8577L45.3377 67.9319C45.186 68.1937 44.9755 68.4194 44.7217 68.5926C44.468 68.7659 44.1773 68.8821 43.871 68.933C43.5647 68.9838 43.2505 68.968 42.9513 68.8866C42.6522 68.8051 42.3757 68.6602 42.142 68.4624V68.4624Z" fill="#2F2E41"/>
<path d="M44.6141 42.1305C45.6105 42.4893 46.8321 42.8056 47.6162 42.0615C48.3817 41.335 48.2423 40.0065 47.7913 39.0278C47.3404 38.0492 46.641 37.1782 46.4266 36.113C46.1193 34.5863 46.9138 33.0002 48.0481 32.0049C49.1824 31.0095 50.6102 30.4867 52.004 29.9836L59.6491 27.2239C61.5415 26.5408 63.5807 25.7384 64.6397 23.9407C66.172 21.3396 64.7712 17.6215 62.2578 16.1037C59.7443 14.5859 56.5695 14.8687 53.8578 15.9359C52.3579 16.5262 50.9312 17.3396 49.3802 17.7551C46.319 18.5751 42.8383 17.8395 40.1483 19.5921C37.8067 21.1178 36.7205 24.2309 36.7994 27.1437C36.8783 30.0565 37.9344 32.8305 39.0485 35.4944C39.7112 37.0793 40.4192 38.6824 41.5418 39.9429C42.6644 41.2034 44.2867 42.0852 45.9071 41.8533L44.6141 42.1305Z" fill="#2F2E41"/>
<path d="M27.5001 22C32.2754 22 35.5003 22 37.0003 20C42.5003 15.5 30.2753 8.00001 25.5001 8.00001C14.4044 5.67765 8.04752 15.9409 11 26C13.7685 35.4323 25.6455 44.5643 22.5001 46.5C46.5001 45 14.5003 19 27.5001 22Z" fill="#2F2E41"/>
<path d="M107.545 73.5045L107.389 73.4825L107.977 69.0891C108.067 68.4146 107.893 67.731 107.492 67.1886C107.092 66.6462 106.497 66.2893 105.841 66.1966L96.7748 64.9171C96.118 64.8243 95.4522 65.0033 94.9239 65.4147C94.3956 65.826 94.0481 66.436 93.9578 67.1104L90.7308 91.2135C90.6405 91.8879 90.8149 92.5715 91.2155 93.114C91.6161 93.6564 92.2102 94.0132 92.867 94.1059L101.933 95.3855C102.59 95.4782 103.255 95.2992 103.784 94.8879C104.312 94.4765 104.66 93.8666 104.75 93.1922L106.97 76.6098L107.126 76.6319L107.545 73.5045Z" fill="#3F3D56"/>
<path d="M105.451 68.1542L104.327 67.997C104.362 68.1332 104.362 68.2758 104.33 68.4124C104.297 68.5489 104.232 68.6752 104.14 68.78C104.048 68.8849 103.932 68.9652 103.802 69.0137C103.673 69.0623 103.533 69.0777 103.397 69.0586L98.4639 68.3688C98.327 68.3496 98.1969 68.2965 98.085 68.2142C97.973 68.1318 97.8827 68.0227 97.822 67.8965C97.7613 67.7703 97.732 67.6308 97.7368 67.4904C97.7415 67.3499 97.7801 67.2128 97.8492 67.0911L96.7995 66.9444C96.5688 66.9121 96.3342 66.9264 96.1089 66.9864C95.8837 67.0464 95.6722 67.1509 95.4867 67.294C95.3012 67.4372 95.1452 67.616 95.0276 67.8205C94.91 68.025 94.8332 68.251 94.8015 68.4856L91.7411 91.133C91.6771 91.6069 91.8007 92.0873 92.0849 92.4685C92.369 92.8497 92.7904 93.1004 93.2562 93.1656L101.908 94.3754C102.374 94.4405 102.846 94.3148 103.221 94.0257C103.595 93.7367 103.842 93.3081 103.906 92.8341L106.966 70.1867C107.03 69.7128 106.907 69.2324 106.622 68.8512C106.338 68.4701 105.917 68.2193 105.451 68.1542V68.1542Z" fill="white"/>
<path d="M98.8453 87.2718C101.654 87.2718 103.931 84.9947 103.931 82.1857C103.931 79.3768 101.654 77.0997 98.8453 77.0997C96.0364 77.0997 93.7593 79.3768 93.7593 82.1857C93.7593 84.9947 96.0364 87.2718 98.8453 87.2718Z" fill="#FFAB63"/>
<path d="M98.4042 84.2201C98.2987 84.2204 98.196 84.1815 98.1115 84.1093L98.1063 84.1048L97.004 83.1422C96.9527 83.0977 96.9095 83.042 96.8771 82.9785C96.8446 82.9149 96.8235 82.8447 96.8149 82.7718C96.8063 82.6989 96.8104 82.6248 96.827 82.5538C96.8436 82.4827 96.8723 82.416 96.9115 82.3577C96.9508 82.2993 96.9997 82.2503 97.0555 82.2136C97.1114 82.1768 97.173 82.153 97.237 82.1435C97.3009 82.134 97.3659 82.139 97.4281 82.1582C97.4904 82.1774 97.5487 82.2104 97.5997 82.2554L98.3137 82.8798L100.001 80.37C100.04 80.3118 100.089 80.2629 100.145 80.2262C100.2 80.1895 100.262 80.1657 100.326 80.1561C100.389 80.1465 100.454 80.1513 100.516 80.1703C100.578 80.1893 100.637 80.222 100.688 80.2666L100.677 80.2829L100.688 80.2669C100.791 80.3571 100.858 80.4902 100.875 80.6371C100.892 80.7839 100.857 80.9324 100.779 81.05L98.7939 84.0022C98.748 84.0702 98.6889 84.1252 98.6214 84.163C98.5538 84.2008 98.4795 84.2204 98.4042 84.2201Z" fill="white"/>
<g clip-path="url(#clip0_333:933)">
<path d="M258.34 132.339C265.297 132.339 270.937 126.702 270.937 119.747C270.937 112.793 265.297 107.156 258.34 107.156C251.382 107.156 245.742 112.793 245.742 119.747C245.742 126.702 251.382 132.339 258.34 132.339Z" fill="#F2F2F2"/>
<path d="M258.34 123.061C260.171 123.061 261.655 121.577 261.655 119.747C261.655 117.917 260.171 116.434 258.34 116.434C256.509 116.434 255.024 117.917 255.024 119.747C255.024 121.577 256.509 123.061 258.34 123.061Z" fill="#E6E6E6"/>
<path d="M257.734 119.818C259.131 120.957 259.556 122.751 259.296 124.484C258.977 126.385 257.991 128.11 256.514 129.349C254.853 130.824 252.827 131.821 250.873 132.842C249.077 133.758 247.351 134.805 245.71 135.975C239.424 140.541 234.675 147.043 231.957 154.299C229.244 161.543 228.516 169.764 230.578 177.271C231.598 180.986 233.661 184.993 237.506 186.391C240.57 187.505 244.754 186.787 246.314 183.63C247.99 180.239 245.652 176.427 242.64 174.744C238.735 172.562 234.071 174.156 230.559 176.365C226.692 178.797 223.584 182.287 219.547 184.466C217.73 185.479 215.708 186.068 213.632 186.191C211.725 186.266 209.822 185.972 208.026 185.326C204.301 183.969 201.095 181.481 198.856 178.211C196.292 174.486 195.144 169.919 194.935 165.445C194.467 155.436 198.422 146.072 201.596 136.79C203.302 131.957 204.58 126.983 205.415 121.926C206.209 116.843 206.492 111.693 206.259 106.554C206.049 102.01 205.6 97.2585 203.594 93.1082C201.829 89.4589 198.605 86.472 194.528 85.719C192.69 85.3585 190.786 85.5772 189.078 86.3448C188.497 86.6099 189.001 87.4669 189.58 87.2031C193.188 85.5581 197.452 87.1587 200.117 89.8148C203.229 92.9165 204.371 97.497 204.879 101.723C206.019 111.74 205.121 121.883 202.237 131.543C199.47 140.938 195.118 149.941 194.113 159.784C193.655 164.275 193.89 168.918 195.327 173.225C196.559 177.062 198.87 180.463 201.983 183.022C204.914 185.391 208.52 187.005 212.317 187.184C216.578 187.386 220.315 185.487 223.621 182.961C227.162 180.256 230.42 176.918 234.71 175.401C236.665 174.709 238.892 174.387 240.9 175.052C242.622 175.64 244.084 176.815 245.028 178.37C245.9 179.819 246.222 181.631 245.426 183.188C244.678 184.652 243.218 185.499 241.637 185.788C239.963 186.084 238.238 185.791 236.755 184.959C235.024 183.971 233.756 182.312 232.868 180.559C231.098 177.063 230.503 172.902 230.413 169.022C230.334 165.232 230.82 161.451 231.854 157.804C233.913 150.427 238.069 143.805 243.819 138.741C245.267 137.48 246.816 136.34 248.451 135.332C250.235 134.233 252.139 133.355 253.957 132.319C255.746 131.298 257.509 130.08 258.741 128.401C259.792 126.962 260.359 125.228 260.362 123.447C260.38 122.628 260.217 121.814 259.885 121.066C259.552 120.317 259.058 119.651 258.437 119.115C257.946 118.714 257.238 119.413 257.734 119.818V119.818Z" fill="#CCCCCC"/>
<path d="M140.127 177.735C144.532 180.581 149.628 182.178 154.87 182.354C154.776 182.576 154.671 182.793 154.555 183.004C153.945 184.13 153.083 185.099 152.035 185.837C150.796 186.709 149.34 187.224 147.827 187.326C146.315 187.428 144.803 187.112 143.458 186.414C142.112 185.716 140.984 184.662 140.197 183.367C139.41 182.072 138.994 180.586 138.994 179.071V177.735H140.127Z" fill="#FFAB63"/>
<path d="M171.048 178.126V179.07C171.049 180.909 170.436 182.695 169.308 184.147C168.18 185.599 166.599 186.634 164.817 187.088C163.035 187.542 161.152 187.39 159.466 186.655C157.779 185.92 156.386 184.645 155.507 183.03C155.385 182.814 155.276 182.592 155.178 182.364C155.42 182.371 155.659 182.374 155.901 182.374C161.245 182.38 166.487 180.91 171.048 178.126Z" fill="#FFAB63"/>
<path d="M182.2 78.2612C181.952 78.2247 181.7 78.2015 181.448 78.1849C184.311 84.7799 184.509 92.2265 182.001 98.9645C182.253 98.9346 182.502 98.8949 182.751 98.8485C185.178 98.3783 187.361 97.0622 188.909 95.1345C190.457 93.2068 191.27 90.7926 191.204 88.3217C191.138 85.8508 190.197 83.4834 188.548 81.6411C186.899 79.7988 184.65 78.6011 182.2 78.2612Z" fill="#3F3D56"/>
<path d="M130.355 78.185C130.103 78.2016 129.851 78.2248 129.602 78.2612C127.152 78.6011 124.903 79.7989 123.254 81.6412C121.606 83.4835 120.665 85.8508 120.598 88.3218C120.532 90.7927 121.346 93.2069 122.894 95.1346C124.442 97.0623 126.624 98.3783 129.052 98.8485C129.3 98.8949 129.549 98.9347 129.801 98.9645C127.293 92.2266 127.492 84.78 130.355 78.185Z" fill="#3F3D56"/>
<path d="M181.79 77.8811C179.059 71.5878 174.002 66.4985 167.601 63.6018C161.199 60.7051 153.91 60.2079 147.15 62.2068C140.39 64.2058 134.641 68.558 131.02 74.4181C127.4 80.2782 126.166 87.2277 127.558 93.9165C128.951 100.605 132.871 106.556 138.556 110.612C144.241 114.668 151.286 116.54 158.322 115.865C165.358 115.189 171.882 112.014 176.627 106.957C181.373 101.899 184.001 95.3202 184 88.4978C183.999 84.8526 183.247 81.244 181.79 77.8811ZM181.591 97.8609C179.166 104.149 174.391 109.334 168.203 112.395C162.016 115.456 154.866 116.171 148.159 114.4C141.453 112.63 135.676 108.501 131.966 102.826C128.256 97.152 126.882 90.3433 128.113 83.7403C129.345 77.1372 133.094 71.2182 138.621 67.1482C144.149 63.0781 151.055 61.1518 157.98 61.7485C164.906 62.3451 171.349 65.4214 176.042 70.372C180.735 75.3225 183.337 81.7887 183.337 88.4978C183.336 91.6942 182.745 94.8648 181.591 97.8609V97.8609Z" fill="#3F3D56"/>
<rect x="127" y="114" width="57" height="68" rx="28.5" fill="#3F3D56"/>
<path d="M170.488 82.8008H141.314C139.776 82.8008 138.3 83.4117 137.212 84.4992C136.124 85.5867 135.513 87.0616 135.513 88.5996C135.513 90.1375 136.124 91.6124 137.212 92.6999C138.3 93.7874 139.776 94.3983 141.314 94.3983H170.488C172.026 94.3983 173.502 93.7874 174.59 92.6999C175.678 91.6124 176.289 90.1375 176.289 88.5996C176.289 87.0616 175.678 85.5867 174.59 84.4992C173.502 83.4117 172.026 82.8008 170.488 82.8008Z" fill="#3F3D56"/>
<path d="M176.842 145.869H163.802C162.894 145.869 162.022 145.509 161.38 144.867C160.737 144.224 160.376 143.354 160.376 142.445C160.376 141.537 160.737 140.666 161.38 140.024C162.022 139.382 162.894 139.021 163.802 139.021H176.842C177.75 139.021 178.622 139.382 179.264 140.024C179.907 140.666 180.268 141.537 180.268 142.445C180.268 143.354 179.907 144.224 179.264 144.867C178.622 145.509 177.75 145.869 176.842 145.869Z" fill="#3F3D56"/>
<path d="M164.672 144.183C165.632 144.183 166.41 143.405 166.41 142.445C166.41 141.486 165.632 140.708 164.672 140.708C163.712 140.708 162.933 141.486 162.933 142.445C162.933 143.405 163.712 144.183 164.672 144.183Z" fill="#F2F2F2"/>
<path d="M170.322 144.183C171.282 144.183 172.061 143.405 172.061 142.445C172.061 141.486 171.282 140.708 170.322 140.708C169.362 140.708 168.583 141.486 168.583 142.445C168.583 143.405 169.362 144.183 170.322 144.183Z" fill="#F2F2F2"/>
<path d="M175.973 144.183C176.933 144.183 177.711 143.405 177.711 142.445C177.711 141.486 176.933 140.708 175.973 140.708C175.012 140.708 174.234 141.486 174.234 142.445C174.234 143.405 175.012 144.183 175.973 144.183Z" fill="#FFAB63"/>
<path d="M54.576 186.479C57.5572 183.961 59.368 179.983 58.8932 176.111C58.4183 172.239 55.477 168.68 51.6617 167.857C47.8464 167.035 43.4972 169.311 42.3384 173.036C41.7006 165.854 40.9657 158.371 37.1455 152.255C33.6863 146.717 27.695 142.754 21.2018 142.046C14.7086 141.337 7.87211 144.014 3.82254 149.137C-0.227037 154.259 -1.21856 161.706 1.61766 167.588C3.707 171.92 7.5563 175.144 11.5894 177.767C24.4564 186.136 40.418 188.963 55.6056 186.729L54.576 186.479Z" fill="#FFAB63"/>
<path d="M54.576 186.479C57.5572 183.961 59.368 179.983 58.8932 176.111C58.4183 172.239 55.477 168.68 51.6617 167.857C47.8464 167.035 43.4972 169.311 42.3384 173.036C41.7006 165.854 40.9657 158.371 37.1455 152.255C33.6863 146.717 27.695 142.754 21.2018 142.046C14.7086 141.337 7.87211 144.014 3.82254 149.137C-0.227037 154.259 -1.21856 161.706 1.61766 167.588C3.707 171.92 7.5563 175.144 11.5894 177.767C24.4564 186.136 40.418 188.963 55.6056 186.729L54.576 186.479Z" fill="#FFAB63"/>
<path d="M10.2436 144.163C15.6013 148.524 20.5165 153.403 24.9179 158.727C29.3201 164.046 33.1957 169.779 36.4904 175.846C38.3319 179.249 39.9862 182.751 41.4459 186.334C41.7435 187.063 40.5593 187.38 40.265 186.659C37.6795 180.342 34.4808 174.293 30.7147 168.599C26.9669 162.925 22.6773 157.629 17.9063 152.783C15.2077 150.044 12.3606 147.455 9.37764 145.028C8.76622 144.531 9.63726 143.669 10.2436 144.163Z" fill="white"/>
<path d="M280.605 188H2.36527C2.26078 188 2.16067 187.958 2.08689 187.884C2.01311 187.81 1.97168 187.71 1.97168 187.605C1.97168 187.501 2.01311 187.401 2.08689 187.327C2.16067 187.253 2.26078 187.211 2.36527 187.211H280.605C280.71 187.211 280.81 187.252 280.884 187.326C280.958 187.4 281 187.501 281 187.605C281 187.71 280.958 187.81 280.884 187.884C280.81 187.958 280.71 188 280.605 188Z" fill="#CCCCCC"/>
</g>
<defs>
<clipPath id="clip0_333:933">
<rect width="281" height="128" fill="white" transform="translate(0 60)"/>
</clipPath>
</defs>
</svg>
