<svg width="339" height="176" viewBox="0 0 339 176" fill="none" xmlns="http://www.w3.org/2000/svg">
<path d="M0 28C0 19.1634 7.16344 12 16 12H317C323.075 12 328 16.9249 328 23V128C328 134.075 323.075 139 317 139H11C4.92488 139 0 134.075 0 128V28Z" fill="#ECECEC"/>
<g clip-path="url(#clip0_329:860)">
<path d="M219.868 97.8182H42.2204C40.5712 97.8163 38.9901 97.1644 37.824 96.0055C36.6578 94.8466 36.0019 93.2753 36 91.6364V6.18182C36.0019 4.54286 36.6578 2.97157 37.824 1.81265C38.9901 0.653734 40.5712 0.00184504 42.2204 0H219.868C221.518 0.00184504 223.099 0.653734 224.265 1.81265C225.431 2.97157 226.087 4.54286 226.089 6.18182V91.6364C226.087 93.2753 225.431 94.8466 224.265 96.0055C223.099 97.1644 221.518 97.8163 219.868 97.8182ZM42.2204 0.727273C40.7653 0.728909 39.3702 1.30411 38.3412 2.32668C37.3123 3.34925 36.7335 4.73569 36.7318 6.18182V91.6364C36.7335 93.0825 37.3123 94.4689 38.3412 95.4915C39.3702 96.5141 40.7653 97.0893 42.2204 97.0909H219.868C221.324 97.0893 222.719 96.5141 223.748 95.4915C224.777 94.4689 225.355 93.0825 225.357 91.6364V6.18182C225.355 4.73569 224.777 3.34925 223.748 2.32668C222.719 1.30411 221.324 0.728909 219.868 0.727273H42.2204Z" fill="#3F3D56"/>
<path d="M70.1208 21.2727C71.9396 21.2727 73.414 19.8074 73.414 18C73.414 16.1925 71.9396 14.7272 70.1208 14.7272C68.302 14.7272 66.8276 16.1925 66.8276 18C66.8276 19.8074 68.302 21.2727 70.1208 21.2727Z" fill="#CCCCCC"/>
<path d="M70.1208 33.6363C71.9396 33.6363 73.414 32.1711 73.414 30.3636C73.414 28.5561 71.9396 27.0909 70.1208 27.0909C68.302 27.0909 66.8276 28.5561 66.8276 30.3636C66.8276 32.1711 68.302 33.6363 70.1208 33.6363Z" fill="#CCCCCC"/>
<path d="M70.1208 46C71.9396 46 73.414 44.5347 73.414 42.7273C73.414 40.9198 71.9396 39.4545 70.1208 39.4545C68.302 39.4545 66.8276 40.9198 66.8276 42.7273C66.8276 44.5347 68.302 46 70.1208 46Z" fill="#CCCCCC"/>
<path d="M70.1208 58.3636C71.9396 58.3636 73.414 56.8984 73.414 55.0909C73.414 53.2834 71.9396 51.8182 70.1208 51.8182C68.302 51.8182 66.8276 53.2834 66.8276 55.0909C66.8276 56.8984 68.302 58.3636 70.1208 58.3636Z" fill="#CCCCCC"/>
<path d="M125.556 83.0909C127.375 83.0909 128.849 81.6257 128.849 79.8182C128.849 78.0107 127.375 76.5455 125.556 76.5455C123.737 76.5455 122.263 78.0107 122.263 79.8182C122.263 81.6257 123.737 83.0909 125.556 83.0909Z" fill="#CCCCCC"/>
<path d="M101.772 83.0909C103.59 83.0909 105.065 81.6257 105.065 79.8182C105.065 78.0107 103.59 76.5455 101.772 76.5455C99.9529 76.5455 98.4785 78.0107 98.4785 79.8182C98.4785 81.6257 99.9529 83.0909 101.772 83.0909Z" fill="#CCCCCC"/>
<path d="M174.588 83.0909C176.406 83.0909 177.881 81.6257 177.881 79.8182C177.881 78.0107 176.406 76.5455 174.588 76.5455C172.769 76.5455 171.294 78.0107 171.294 79.8182C171.294 81.6257 172.769 83.0909 174.588 83.0909Z" fill="#CCCCCC"/>
<path d="M149.706 83.0909C151.525 83.0909 152.999 81.6257 152.999 79.8182C152.999 78.0107 151.525 76.5455 149.706 76.5455C147.887 76.5455 146.413 78.0107 146.413 79.8182C146.413 81.6257 147.887 83.0909 149.706 83.0909Z" fill="#CCCCCC"/>
<path d="M194.895 18.3636H86.5866C86.4896 18.3636 86.3965 18.3253 86.3279 18.2571C86.2592 18.1889 86.2207 18.0964 86.2207 18C86.2207 17.9035 86.2592 17.8111 86.3279 17.7429C86.3965 17.6747 86.4896 17.6364 86.5866 17.6364H194.895C194.992 17.6364 195.085 17.6747 195.154 17.7429C195.223 17.8111 195.261 17.9035 195.261 18C195.261 18.0964 195.223 18.1889 195.154 18.2571C195.085 18.3253 194.992 18.3636 194.895 18.3636Z" fill="#CCCCCC"/>
<path d="M194.895 30.7273H86.5866C86.4896 30.7273 86.3965 30.689 86.3279 30.6208C86.2592 30.5526 86.2207 30.4601 86.2207 30.3636C86.2207 30.2672 86.2592 30.1747 86.3279 30.1065C86.3965 30.0383 86.4896 30 86.5866 30H194.895C194.992 30 195.085 30.0383 195.154 30.1065C195.223 30.1747 195.261 30.2672 195.261 30.3636C195.261 30.4601 195.223 30.5526 195.154 30.6208C195.085 30.689 194.992 30.7273 194.895 30.7273Z" fill="#CCCCCC"/>
<path d="M194.895 43.0909H86.5866C86.4896 43.0909 86.3965 43.0526 86.3279 42.9844C86.2592 42.9162 86.2207 42.8237 86.2207 42.7273C86.2207 42.6308 86.2592 42.5384 86.3279 42.4702C86.3965 42.402 86.4896 42.3636 86.5866 42.3636H194.895C194.992 42.3636 195.085 42.402 195.154 42.4702C195.223 42.5384 195.261 42.6308 195.261 42.7273C195.261 42.8237 195.223 42.9162 195.154 42.9844C195.085 43.0526 194.992 43.0909 194.895 43.0909Z" fill="#CCCCCC"/>
<path d="M194.895 55.4546H86.5866C86.4896 55.4546 86.3965 55.4163 86.3279 55.3481C86.2592 55.2799 86.2207 55.1874 86.2207 55.0909C86.2207 54.9945 86.2592 54.902 86.3279 54.8338C86.3965 54.7656 86.4896 54.7273 86.5866 54.7273H194.895C194.992 54.7273 195.085 54.7656 195.154 54.8338C195.223 54.902 195.261 54.9945 195.261 55.0909C195.261 55.1874 195.223 55.2799 195.154 55.3481C195.085 55.4163 194.992 55.4546 194.895 55.4546Z" fill="#CCCCCC"/>
<path d="M107.078 67.8182H96.4663C95.9812 67.8176 95.5162 67.6259 95.1732 67.285C94.8302 66.9442 94.6373 66.482 94.6367 66V56.1818C94.6373 55.6998 94.8302 55.2376 95.1732 54.8968C95.5162 54.5559 95.9812 54.3642 96.4663 54.3636H107.078C107.563 54.3642 108.028 54.5559 108.371 54.8968C108.714 55.2376 108.907 55.6998 108.907 56.1818V66C108.907 66.482 108.714 66.9442 108.371 67.285C108.028 67.6259 107.563 67.8176 107.078 67.8182Z" fill="#FFAB63"/>
<path d="M130.862 67.8182H120.25C119.765 67.8176 119.3 67.6259 118.957 67.285C118.614 66.9442 118.421 66.482 118.421 66V43.8182C118.421 43.3361 118.614 42.874 118.957 42.5331C119.3 42.1923 119.765 42.0006 120.25 42H130.862C131.347 42.0006 131.812 42.1923 132.155 42.5331C132.498 42.874 132.691 43.3361 132.691 43.8182V66C132.691 66.482 132.498 66.9442 132.155 67.285C131.812 67.6259 131.347 67.8176 130.862 67.8182Z" fill="#FFAB63"/>
<path d="M155.011 67.8182H144.4C143.915 67.8176 143.45 67.6259 143.107 67.285C142.764 66.9442 142.571 66.482 142.57 66V31.4545C142.571 30.9725 142.764 30.5104 143.107 30.1695C143.45 29.8286 143.915 29.6369 144.4 29.6364H155.011C155.496 29.6369 155.961 29.8286 156.304 30.1695C156.647 30.5104 156.84 30.9725 156.841 31.4545V66C156.84 66.482 156.647 66.9442 156.304 67.285C155.961 67.6259 155.496 67.8176 155.011 67.8182Z" fill="#FFAB63"/>
<path d="M179.893 67.8182H169.282C168.797 67.8176 168.332 67.6259 167.989 67.285C167.646 66.9442 167.453 66.482 167.452 66V19.4545C167.453 18.9725 167.646 18.5104 167.989 18.1695C168.332 17.8286 168.797 17.6369 169.282 17.6364H179.893C180.378 17.6369 180.843 17.8286 181.186 18.1695C181.529 18.5104 181.722 18.9725 181.723 19.4545V66C181.722 66.482 181.529 66.9442 181.186 67.285C180.843 67.6259 180.378 67.8176 179.893 67.8182Z" fill="#FFAB63"/>
<path d="M278.762 173.943C275.472 171.18 273.473 166.815 273.997 162.566C274.521 158.317 277.768 154.41 281.979 153.508C286.19 152.606 290.99 155.103 292.269 159.191C292.973 151.31 293.784 143.098 298.001 136.386C301.819 130.308 308.432 125.96 315.598 125.182C322.765 124.404 330.311 127.342 334.781 132.964C339.25 138.585 340.345 146.758 337.214 153.212C334.908 157.966 330.66 161.505 326.208 164.383C311.824 173.607 294.571 177.358 277.626 174.946L278.762 173.943Z" fill="#F2F2F2"/>
<path d="M327.694 127.505C321.78 132.292 316.355 137.645 311.497 143.488C303.894 152.601 297.742 162.819 293.255 173.784C292.926 174.584 294.233 174.933 294.558 174.142C301.9 156.32 313.622 140.612 328.65 128.455C329.324 127.909 328.363 126.964 327.694 127.505Z" fill="white"/>
<path d="M244.058 73.8391C243.642 73.838 243.227 73.7967 242.82 73.7157H242.819C242.745 73.7009 242.67 73.685 242.596 73.6679L152.986 52.9335C152.013 52.7082 151.366 52.0997 151.482 51.5179C151.531 51.3466 151.627 51.192 151.758 51.0713C151.89 50.9505 152.053 50.8682 152.228 50.8334C152.661 50.7149 153.116 50.7049 153.554 50.8041L243.72 69.5175C245.75 69.9387 247.159 71.177 246.928 72.3362C246.807 72.9429 246.27 73.4133 245.414 73.6608C244.973 73.7831 244.517 73.8431 244.058 73.8391Z" fill="#3F3D56"/>
<path d="M225.076 70.9705C225.54 71.2414 226.058 71.4079 226.593 71.4584C227.129 71.5089 227.669 71.4421 228.175 71.2626C228.682 71.0832 229.143 70.7956 229.526 70.4199C229.909 70.0443 230.204 69.5899 230.391 69.0886L243.464 69.3595L239.842 63.646L227.983 64.2647C227.115 64.0085 226.182 64.0776 225.362 64.4591C224.542 64.8406 223.891 65.5078 223.532 66.3344C223.174 67.161 223.133 68.0895 223.418 68.9439C223.702 69.7984 224.292 70.5195 225.076 70.9705V70.9705Z" fill="#FFB8B8"/>
<path d="M230.754 68.8952L230.686 64.9131C230.681 64.5021 230.831 64.1041 231.107 63.7975C231.382 63.4909 231.763 63.2979 232.174 63.2565L255.666 61.0035L275.239 54.626C275.829 54.4335 276.453 54.3596 277.073 54.4087C277.692 54.4578 278.296 54.6288 278.849 54.9118C279.401 55.1948 279.892 55.5841 280.292 56.0572C280.692 56.5303 280.993 57.0776 281.178 57.6675C281.363 58.2573 281.428 58.8778 281.37 59.4929C281.312 60.108 281.131 60.7055 280.838 61.2505C280.545 61.7955 280.146 62.2773 279.665 62.6678C279.183 63.0583 278.628 63.3497 278.032 63.525L256.367 69.8995L232.442 70.5035C232.08 70.5122 231.726 70.4025 231.433 70.1914C231.14 69.9802 230.925 69.6793 230.821 69.335C230.779 69.1921 230.756 69.0441 230.754 68.8952Z" fill="#3F3D56"/>
<path d="M265.518 171.557L261.032 171.557L258.898 154.361L265.519 154.362L265.518 171.557Z" fill="#FFB8B8"/>
<path d="M266 176L252 175.999V175.811C252 175.048 252.141 174.292 252.415 173.587C252.689 172.882 253.09 172.241 253.596 171.702C254.102 171.162 254.703 170.734 255.364 170.442C256.025 170.15 256.734 170 257.449 170H257.449L266 170L266 176Z" fill="#2F2E41"/>
<path d="M278.691 171.557L274.205 171.557L272.071 154.361L278.692 154.362L278.691 171.557Z" fill="#FFB8B8"/>
<path d="M280 176L268 175.999V175.811C268 175.048 268.121 174.292 268.356 173.587C268.59 172.882 268.934 172.241 269.368 171.702C269.802 171.162 270.317 170.734 270.883 170.442C271.45 170.15 272.057 170 272.671 170H272.671L280 170L280 176Z" fill="#2F2E41"/>
<path d="M281.702 102.063L280.63 165.225C280.627 165.425 280.582 165.622 280.499 165.804C280.415 165.986 280.295 166.149 280.145 166.282C279.995 166.416 279.819 166.518 279.628 166.581C279.437 166.644 279.235 166.667 279.035 166.649L273.785 166.174C273.441 166.143 273.119 165.992 272.876 165.748C272.633 165.503 272.485 165.181 272.458 164.838L269.385 125.44C269.378 125.347 269.335 125.261 269.266 125.199C269.197 125.136 269.107 125.103 269.013 125.105C268.92 125.106 268.831 125.144 268.764 125.209C268.697 125.274 268.658 125.362 268.655 125.454L267.119 165.755C267.104 166.131 266.944 166.486 266.671 166.747C266.399 167.008 266.035 167.154 265.656 167.154H260.026C259.654 167.154 259.295 167.013 259.024 166.759C258.752 166.505 258.588 166.158 258.565 165.788L254.625 101.7L278.043 95.8814L281.702 102.063Z" fill="#2F2E41"/>
<path d="M265.032 46C269.985 46 274 40.2124 274 34.8C274 29.3876 269.985 25 265.032 25C260.079 25 258.896 34.8 256.536 39.9333C254.176 45.0667 260.079 46 265.032 46Z" fill="#FFB8B8"/>
<path d="M253.823 103.942C253.667 103.793 253.543 103.614 253.457 103.416C253.371 103.219 253.326 103.006 253.323 102.791L252.717 59.7213C252.681 57.5304 253.344 55.3843 254.612 53.5914C255.879 51.7985 257.686 50.4511 259.773 49.7426C260.615 45.9464 265.096 45.4709 267.708 45.5278C268.36 45.5417 268.999 45.7117 269.571 46.0233C270.143 46.3349 270.631 46.779 270.993 47.3179L272.866 50.1094L276.993 52.5139C278.904 53.6219 280.41 55.3043 281.296 57.3183C282.182 59.3324 282.401 61.574 281.922 63.7199L281.287 66.5924C279.049 76.7594 279.262 87.3082 281.908 97.3779L283.187 102.223C283.253 102.475 283.258 102.74 283.201 102.995C283.144 103.249 283.026 103.486 282.858 103.687C282.69 103.887 282.476 104.044 282.234 104.146C281.992 104.247 281.729 104.29 281.468 104.27L279.983 104.156C279.597 104.127 279.234 103.964 278.958 103.695C278.681 103.427 278.509 103.07 278.471 102.688L278.225 100.245C278.22 100.2 278.199 100.159 278.165 100.128C278.132 100.098 278.088 100.081 278.043 100.081C277.997 100.081 277.954 100.098 277.92 100.128C277.886 100.159 277.865 100.2 277.861 100.245L277.623 102.61C277.583 103.009 277.396 103.38 277.099 103.652C276.801 103.923 276.414 104.077 276.01 104.083L254.995 104.405C254.986 104.405 254.978 104.405 254.969 104.405C254.541 104.406 254.129 104.24 253.823 103.942Z" fill="#3F3D56"/>
<path d="M266.106 38.8393C266.146 40.1505 267.086 40.9091 268.242 41.5958C269.397 42.2826 270.747 42.5804 272.07 42.8677C272.247 42.959 272.446 43.0044 272.647 42.9997C272.848 42.9949 273.045 42.94 273.218 42.8404C273.391 42.7408 273.534 42.5998 273.634 42.4309C273.734 42.2621 273.787 42.0711 273.789 41.8765L275.002 37.4115C275.431 35.9852 275.744 34.5284 275.936 33.0546C276.228 30.2188 275.534 27.1682 273.488 25.1178C271.442 23.0675 267.895 22.3391 265.443 23.9189C262.534 20.3238 249.236 28.2667 252.517 30.7667C253.1 31.2114 253.992 30.6487 254.733 30.5941C255.474 30.5396 256.304 30.6657 256.774 31.2219C257.389 31.9485 257.121 33.031 257.375 33.9375C257.479 34.2564 257.648 34.5522 257.872 34.8076C258.095 35.063 258.369 35.2731 258.677 35.4258C258.985 35.5785 259.321 35.6706 259.665 35.697C260.01 35.7234 260.357 35.6835 260.686 35.5796C261.298 35.2876 261.874 34.9293 262.403 34.5114C262.971 34.1452 263.689 33.8747 264.329 34.1056C265.172 34.41 265.471 35.4087 265.547 36.2762C265.676 37.1414 265.863 37.9976 266.106 38.8393Z" fill="#2F2E41"/>
<path d="M391.994 176H252.583C252.486 176 252.393 175.962 252.324 175.893C252.256 175.825 252.217 175.733 252.217 175.636C252.217 175.54 252.256 175.447 252.324 175.379C252.393 175.311 252.486 175.273 252.583 175.273H391.994C392.091 175.273 392.184 175.311 392.253 175.379C392.321 175.447 392.36 175.54 392.36 175.636C392.36 175.733 392.321 175.825 392.253 175.893C392.184 175.962 392.091 176 391.994 176Z" fill="#3F3D56"/>
<path opacity="0.2" d="M263.32 62.9091L261.856 80.7273L254.172 99.2728L265.516 81.0909L263.32 62.9091Z" fill="black"/>
<path d="M252.376 106.179C252.795 105.844 253.135 105.422 253.373 104.943C253.611 104.463 253.739 103.938 253.751 103.403C253.762 102.869 253.655 102.338 253.437 101.849C253.22 101.36 252.897 100.925 252.492 100.573L257.387 88.5237L250.727 89.8604L247.099 101.098C246.55 101.813 246.284 102.704 246.352 103.602C246.419 104.499 246.816 105.341 247.466 105.967C248.117 106.594 248.976 106.961 249.88 107C250.785 107.039 251.673 106.747 252.376 106.179V106.179Z" fill="#FFB8B8"/>
<path d="M252.019 100.865L248.249 99.5144C247.861 99.3732 247.54 99.0926 247.349 98.7278C247.158 98.3631 247.112 97.9407 247.219 97.5437L253.438 74.9184L254.387 54.4703C254.415 53.8531 254.567 53.2477 254.833 52.6893C255.099 52.1309 255.474 51.6306 255.937 51.2176C256.399 50.8046 256.94 50.4871 257.527 50.2835C258.114 50.0799 258.736 49.9943 259.356 50.0317C259.977 50.0691 260.584 50.2287 261.142 50.5013C261.699 50.7738 262.197 51.1539 262.606 51.6194C263.015 52.0849 263.327 52.6266 263.523 53.2128C263.719 53.7991 263.796 54.4182 263.75 55.0344L262.056 77.4247L254.131 99.8677C254.011 100.207 253.782 100.497 253.48 100.694C253.177 100.891 252.818 100.984 252.457 100.958C252.307 100.947 252.16 100.916 252.019 100.865Z" fill="#3F3D56"/>
<path d="M194.895 67.8182H86.5866C86.4896 67.8182 86.3965 67.7799 86.3279 67.7117C86.2592 67.6435 86.2207 67.551 86.2207 67.4546C86.2207 67.3581 86.2592 67.2657 86.3279 67.1975C86.3965 67.1293 86.4896 67.0909 86.5866 67.0909H194.895C194.992 67.0909 195.085 67.1293 195.154 67.1975C195.223 67.2657 195.261 67.3581 195.261 67.4546C195.261 67.551 195.223 67.6435 195.154 67.7117C195.085 67.7799 194.992 67.8182 194.895 67.8182Z" fill="#3F3D56"/>
</g>
<defs>
<clipPath id="clip0_329:860">
<rect width="303" height="176" fill="white" transform="translate(36)"/>
</clipPath>
</defs>
</svg>
