<svg width="455" height="90" viewBox="0 0 455 90" fill="none" xmlns="http://www.w3.org/2000/svg">
<g clip-path="url(#clip0)">
<rect width="455" height="91" rx="10" fill="#F7F7F7"/>
<rect x="-4" y="8" width="267" height="87" fill="#ECECEC"/>
<path d="M300.82 39.248H302.932L298.73 55H296.662L293.274 44.616H293.186L289.798 55H287.73L283.352 39.248H285.464L288.786 51.634H288.874L292.284 41.36H294.176L297.586 51.634H297.674L300.82 39.248ZM309.25 55.352C307.666 55.352 306.361 54.8093 305.334 53.724C304.307 52.6387 303.794 51.2673 303.794 49.61C303.794 47.9673 304.293 46.6033 305.29 45.518C306.287 44.418 307.563 43.868 309.118 43.868C310.717 43.868 311.985 44.3887 312.924 45.43C313.877 46.4567 314.354 47.9013 314.354 49.764L314.332 49.984H305.862C305.891 51.04 306.243 51.8907 306.918 52.536C307.593 53.1813 308.399 53.504 309.338 53.504C310.629 53.504 311.641 52.8587 312.374 51.568L314.178 52.448C313.694 53.3573 313.019 54.0687 312.154 54.582C311.303 55.0953 310.335 55.352 309.25 55.352ZM306.016 48.312H312.198C312.139 47.564 311.831 46.948 311.274 46.464C310.731 45.9653 309.998 45.716 309.074 45.716C308.311 45.716 307.651 45.9507 307.094 46.42C306.551 46.8893 306.192 47.52 306.016 48.312ZM323.003 55.352C322.211 55.352 321.485 55.1833 320.825 54.846C320.18 54.5087 319.681 54.0613 319.329 53.504H319.241V55H317.305V39.248H319.329V44.22L319.241 45.716H319.329C319.681 45.1587 320.18 44.7113 320.825 44.374C321.485 44.0367 322.211 43.868 323.003 43.868C324.426 43.868 325.628 44.4253 326.611 45.54C327.623 46.6693 328.129 48.026 328.129 49.61C328.129 51.2087 327.623 52.5653 326.611 53.68C325.628 54.7947 324.426 55.352 323.003 55.352ZM322.673 53.504C323.641 53.504 324.455 53.1373 325.115 52.404C325.775 51.6853 326.105 50.754 326.105 49.61C326.105 48.4807 325.775 47.5493 325.115 46.816C324.455 46.0827 323.641 45.716 322.673 45.716C321.69 45.716 320.869 46.0827 320.209 46.816C319.564 47.5493 319.241 48.4807 319.241 49.61C319.241 50.754 319.564 51.6927 320.209 52.426C320.869 53.1447 321.69 53.504 322.673 53.504ZM341.855 53.504C342.852 53.504 343.666 53.1447 344.297 52.426C344.957 51.7073 345.287 50.7687 345.287 49.61C345.287 48.4807 344.957 47.5493 344.297 46.816C343.651 46.0827 342.837 45.716 341.855 45.716C340.887 45.716 340.073 46.0827 339.413 46.816C338.753 47.5493 338.423 48.4807 338.423 49.61C338.423 50.754 338.753 51.6853 339.413 52.404C340.073 53.1373 340.887 53.504 341.855 53.504ZM341.525 55.352C340.117 55.352 338.907 54.7947 337.895 53.68C336.897 52.5507 336.399 51.194 336.399 49.61C336.399 48.026 336.897 46.6693 337.895 45.54C338.907 44.4253 340.117 43.868 341.525 43.868C342.317 43.868 343.035 44.0367 343.681 44.374C344.341 44.7113 344.847 45.1587 345.199 45.716H345.287L345.199 44.22V39.248H347.223V55H345.287V53.504H345.199C344.847 54.0613 344.341 54.5087 343.681 54.846C343.035 55.1833 342.317 55.352 341.525 55.352ZM355.523 55.352C353.939 55.352 352.634 54.8093 351.607 53.724C350.581 52.6387 350.067 51.2673 350.067 49.61C350.067 47.9673 350.566 46.6033 351.563 45.518C352.561 44.418 353.837 43.868 355.391 43.868C356.99 43.868 358.259 44.3887 359.197 45.43C360.151 46.4567 360.627 47.9013 360.627 49.764L360.605 49.984H352.135C352.165 51.04 352.517 51.8907 353.191 52.536C353.866 53.1813 354.673 53.504 355.611 53.504C356.902 53.504 357.914 52.8587 358.647 51.568L360.451 52.448C359.967 53.3573 359.293 54.0687 358.427 54.582C357.577 55.0953 356.609 55.352 355.523 55.352ZM352.289 48.312H358.471C358.413 47.564 358.105 46.948 357.547 46.464C357.005 45.9653 356.271 45.716 355.347 45.716C354.585 45.716 353.925 45.9507 353.367 46.42C352.825 46.8893 352.465 47.52 352.289 48.312ZM371.936 52.008C371.936 52.9467 371.525 53.7387 370.704 54.384C369.882 55.0293 368.848 55.352 367.602 55.352C366.516 55.352 365.563 55.0733 364.742 54.516C363.92 53.944 363.334 53.196 362.982 52.272L364.786 51.502C365.05 52.1473 365.431 52.6533 365.93 53.02C366.443 53.372 367 53.548 367.602 53.548C368.247 53.548 368.782 53.4087 369.208 53.13C369.648 52.8513 369.868 52.5213 369.868 52.14C369.868 51.4507 369.34 50.9447 368.284 50.622L366.436 50.16C364.338 49.632 363.29 48.62 363.29 47.124C363.29 46.1413 363.686 45.3567 364.478 44.77C365.284 44.1687 366.311 43.868 367.558 43.868C368.511 43.868 369.369 44.0953 370.132 44.55C370.909 45.0047 371.452 45.6133 371.76 46.376L369.956 47.124C369.75 46.6693 369.413 46.3173 368.944 46.068C368.489 45.804 367.976 45.672 367.404 45.672C366.876 45.672 366.399 45.804 365.974 46.068C365.563 46.332 365.358 46.6547 365.358 47.036C365.358 47.652 365.937 48.092 367.096 48.356L368.724 48.774C370.865 49.302 371.936 50.38 371.936 52.008ZM377.308 40.502C377.308 40.898 377.168 41.2353 376.89 41.514C376.611 41.7927 376.274 41.932 375.878 41.932C375.482 41.932 375.144 41.7927 374.866 41.514C374.587 41.2353 374.448 40.898 374.448 40.502C374.448 40.106 374.587 39.7687 374.866 39.49C375.144 39.2113 375.482 39.072 375.878 39.072C376.274 39.072 376.611 39.2113 376.89 39.49C377.168 39.7687 377.308 40.106 377.308 40.502ZM376.89 44.22V55H374.866V44.22H376.89ZM385.356 53.504C386.354 53.504 387.168 53.1447 387.798 52.426C388.458 51.7073 388.788 50.7687 388.788 49.61C388.788 48.4807 388.458 47.5493 387.798 46.816C387.153 46.0827 386.339 45.716 385.356 45.716C384.388 45.716 383.574 46.0827 382.914 46.816C382.254 47.5493 381.924 48.4807 381.924 49.61C381.924 50.754 382.254 51.6853 382.914 52.404C383.574 53.1373 384.388 53.504 385.356 53.504ZM385.29 60.104C384.689 60.104 384.124 60.0233 383.596 59.862C383.068 59.7153 382.584 59.5027 382.144 59.224C381.719 58.9453 381.352 58.6153 381.044 58.234C380.736 57.8527 380.502 57.4273 380.34 56.958L382.254 56.166C382.474 56.7967 382.856 57.3027 383.398 57.684C383.941 58.0653 384.572 58.256 385.29 58.256C386.39 58.256 387.248 57.926 387.864 57.266C388.48 56.606 388.788 55.6967 388.788 54.538V53.504H388.7C388.319 54.076 387.798 54.5307 387.138 54.868C386.493 55.1907 385.789 55.352 385.026 55.352C383.618 55.352 382.408 54.802 381.396 53.702C380.399 52.5727 379.9 51.2087 379.9 49.61C379.9 48.0113 380.399 46.6547 381.396 45.54C382.408 44.4253 383.618 43.868 385.026 43.868C385.789 43.868 386.493 44.0367 387.138 44.374C387.798 44.6967 388.319 45.144 388.7 45.716H388.788V44.22H390.724V54.538C390.724 56.2687 390.233 57.6253 389.25 58.608C388.253 59.6053 386.933 60.104 385.29 60.104ZM394.292 44.22H396.228V45.716H396.316C396.624 45.188 397.093 44.748 397.724 44.396C398.369 44.044 399.037 43.868 399.726 43.868C401.046 43.868 402.058 44.2493 402.762 45.012C403.481 45.76 403.84 46.8307 403.84 48.224V55H401.816V48.356C401.772 46.596 400.885 45.716 399.154 45.716C398.347 45.716 397.673 46.046 397.13 46.706C396.587 47.3513 396.316 48.1287 396.316 49.038V55H394.292V44.22Z" fill="black"/>
<path d="M89.5 78C107.449 78 122 63.4493 122 45.5C122 27.5507 107.449 13 89.5 13C71.5507 13 57 27.5507 57 45.5C57 63.4493 71.5507 78 89.5 78Z" fill="#FFAB63"/>
<path d="M87 86C63.841 86 45 67.1588 45 43.9999C45 20.841 63.841 2 87 2C110.159 2 129 20.841 129 43.9999C129 67.1588 110.159 86 87 86ZM87 2.64122C78.82 2.6412 70.8237 5.06684 64.0222 9.6114C57.2208 14.156 51.9197 20.6153 48.7893 28.1726C45.659 35.73 44.8399 44.0459 46.4358 52.0687C48.0316 60.0915 51.9706 67.4609 57.7548 73.2451C63.5389 79.0292 70.9084 82.9683 78.9312 84.5641C86.9541 86.1599 95.27 85.3409 102.827 82.2105C110.385 79.0802 116.844 73.7791 121.389 66.9777C125.933 60.1762 128.359 52.1799 128.359 43.9999C128.346 33.0347 123.985 22.5222 116.231 14.7686C108.478 7.01501 97.9652 2.65361 87 2.64121V2.64122Z" fill="#3F3D56"/>
<path d="M333 123H15V20H333V123ZM15.7842 122.533H332.216V20.4671H15.7842V122.533Z" fill="black"/>
<path d="M62.9887 8.17236H21.3206V12.3753H62.9887V8.17236Z" fill="#FFAB63"/>
<path d="M115.491 8.17236H73.8228V12.3753H115.491V8.17236Z" fill="#F2F2F2"/>
<path d="M187.993 8.17236H146.325V12.3753H187.993V8.17236Z" fill="#F2F2F2"/>
<path d="M65.7977 10.5073H23.6614V5.8374H65.7977V10.5073ZM24.1296 10.0403H65.3295V6.30439H24.1296V10.0403Z" fill="#3F3D56"/>
<path d="M119.136 10.5073H77V5.8374H119.136V10.5073ZM77.4682 10.0403H118.668V6.30439H77.4682V10.0403Z" fill="#3F3D56"/>
<path d="M192.136 10.5073H150V5.8374H192.136V10.5073ZM150.468 10.0403H191.668V6.30439H150.468V10.0403Z" fill="#3F3D56"/>
<path d="M78.9765 55.3398L104.593 59.8388C105.627 60.0203 106.119 61.216 105.514 62.0729C105.178 62.5479 104.588 62.7723 104.021 62.6403L78.0377 56.5861L78.9765 55.3398Z" fill="#3F3D56"/>
<path d="M69.8044 50.3771C69.8044 50.3771 69.4566 53.6191 73.2618 51.5882C73.8613 51.2579 74.5231 51.0562 75.2053 50.996C75.8874 50.9357 76.575 51.0181 77.2242 51.238C78.6251 51.7336 80.0477 52.8171 80.0723 55.1724C80.0941 57.2689 78.9649 58.4482 77.7162 59.1113C76.8124 59.5716 75.8102 59.8056 74.7953 59.7931C73.7804 59.7806 72.7831 59.5221 71.8888 59.0397C69.8304 57.9723 67.4088 55.7709 68.1211 51.4274C68.1211 51.4274 68.9385 48.5728 69.8044 50.3771Z" fill="#F7F7F7"/>
<path d="M124.648 21.6122C127.785 21.6122 130.328 19.0755 130.328 15.9462C130.328 12.8169 127.785 10.2802 124.648 10.2802C121.51 10.2802 118.967 12.8169 118.967 15.9462C118.967 19.0755 121.51 21.6122 124.648 21.6122Z" fill="#A8A6A6"/>
<path d="M121.658 18.6301C121.658 18.6301 123.152 26.3837 122.555 27.8747C121.957 29.3658 130.926 27.2783 130.926 27.2783C130.926 27.2783 129.132 19.5248 129.431 17.7355C129.73 15.9462 121.658 18.6301 121.658 18.6301Z" fill="#FFD1D1"/>
<path d="M117.638 44.9015L113.182 51.6342L104.414 61.2167L101.922 63.7851L99.5846 64.5025C98.7604 64.7555 98.0238 63.9166 98.3812 63.132L99.9556 59.6754L103.241 58.3713L108.631 47.7772L111.764 43.2227L117.638 44.9015Z" fill="#FFD1D1"/>
<path d="M143.184 44.2765V52.6264C143.184 52.6264 142.287 63.3621 140.493 66.046C138.699 68.7299 138.101 55.3103 138.101 55.3103L139.507 45.4693L143.184 44.2765Z" fill="#FFD1D1"/>
<path d="M116.575 70.221C116.575 70.221 115.08 72.0103 116.276 90.2013C117.472 108.392 115.678 121.514 119.565 121.514C119.565 121.514 118.369 125.39 121.658 125.689C124.946 125.987 126.441 126.285 126.74 125.39C127.039 124.496 127.637 120.321 126.74 120.321C126.74 120.321 126.74 121.514 127.338 116.742C127.936 111.971 127.936 89.3066 129.431 86.3245L134.215 97.3584C134.215 97.3584 134.215 102.428 135.112 104.814C136.008 107.199 137.503 120.917 137.503 120.917L137.204 123.005C137.204 123.005 144.38 124.198 144.679 123.005C144.978 121.812 144.978 120.023 144.679 119.426C144.38 118.83 144.38 118.83 144.978 117.637C145.576 116.444 145.576 115.549 145.277 114.655C144.978 113.76 144.978 94.3762 144.978 94.3762C144.978 94.3762 144.38 70.8174 140.792 69.6245C137.204 68.4317 116.575 70.221 116.575 70.221Z" fill="#2F2E41"/>
<path d="M131.524 26.3836C131.524 26.3836 123.452 24.8926 121.658 26.3836C119.864 27.8747 112.39 30.8568 112.39 32.3479C112.39 33.839 116.276 48.4514 116.276 48.4514C116.276 48.4514 114.183 70.5191 116.276 71.1156C118.369 71.712 121.957 69.9227 126.142 72.0102C130.328 74.0977 142.287 70.2209 142.287 70.2209C142.287 70.2209 137.802 51.1353 138.998 47.5568C140.194 43.9782 141.091 31.7515 141.091 31.7515C141.091 31.7515 136.008 26.3836 131.524 26.3836Z" fill="#8985A8"/>
<path d="M114.482 31.4533L112.389 32.0498C112.389 32.0498 107.905 46.0658 109.699 46.6622C111.493 47.2586 116.575 48.4515 117.173 48.4515C117.771 48.4515 114.482 31.4533 114.482 31.4533Z" fill="#8985A8"/>
<path d="M136.307 29.9622L141.091 31.7515C141.091 31.7515 147.369 43.3818 145.874 44.8729C144.38 46.364 137.802 47.855 137.802 47.855L136.307 29.9622Z" fill="#8985A8"/>
<path d="M124.475 8.94782C124.002 8.86245 123.517 8.88383 123.054 9.01039C122.683 9.17407 122.342 9.39729 122.044 9.67115C121.503 10.1012 120.925 10.483 120.317 10.8122C119.833 11.0745 119.312 11.3173 118.974 11.7515C118.814 11.9709 118.686 12.212 118.595 12.4674C118.012 13.9516 117.856 15.5684 118.143 17.1364C118.175 17.3592 118.242 17.5755 118.342 17.7775C118.652 18.3485 119.339 18.5736 119.917 18.8729C121.015 19.4413 121.847 20.3983 122.747 21.2441C123.081 21.577 123.457 21.8659 123.865 22.1036C125.149 22.8021 126.719 22.5742 128.161 22.3272C128.263 22.327 128.364 22.3066 128.459 22.2673C128.553 22.2279 128.638 22.1704 128.71 22.0979C128.782 22.0254 128.839 21.9395 128.877 21.845C128.916 21.7506 128.935 21.6495 128.934 21.5476L130.072 16.442C130.278 15.6856 130.376 14.9039 130.364 14.1201C130.284 12.8807 129.611 11.1639 128.7 10.2835C127.637 9.25771 125.864 9.09448 124.475 8.94782Z" fill="#2F2E41"/>
</g>
<defs>
<clipPath id="clip0">
<path d="M0 10C0 4.47715 4.47715 0 10 0H445C450.523 0 455 4.47715 455 10V80C455 85.5229 450.523 90 445 90H10C4.47715 90 0 85.5229 0 80V10Z" fill="white"/>
</clipPath>
</defs>
</svg>
