<svg width="455" height="90" viewBox="0 0 455 90" fill="none" xmlns="http://www.w3.org/2000/svg">
<g clip-path="url(#clip0)">
<rect width="455" height="90" rx="10" fill="#F7F7F7"/>
<path opacity="0.5" d="M193 -17.9117H37.358V81.7636H193V-17.9117Z" fill="white"/>
<path d="M25.25 75.75V-17.75H186.75V75.75H25.25Z" stroke="black" stroke-width="0.5"/>
<path d="M147.028 2.20258H99.2544C99.1524 2.18914 99.0588 2.13909 98.991 2.06175C98.9231 1.98441 98.8857 1.88506 98.8857 1.7822C98.8857 1.67934 98.9231 1.57999 98.991 1.50266C99.0588 1.42532 99.1524 1.37527 99.2544 1.36183H147.028C147.13 1.37527 147.224 1.42532 147.292 1.50266C147.36 1.57999 147.397 1.67934 147.397 1.7822C147.397 1.88506 147.36 1.98441 147.292 2.06175C147.224 2.13909 147.13 2.18914 147.028 2.20258Z" fill="#CCCCCC"/>
<path d="M113.926 6.82673H83.5509C83.4489 6.81329 83.3553 6.76324 83.2874 6.6859C83.2196 6.60856 83.1823 6.50921 83.1823 6.40635C83.1823 6.30349 83.2196 6.20415 83.2874 6.12681C83.3553 6.04947 83.4489 5.99942 83.5509 5.98598H113.926C114.028 5.99942 114.121 6.04947 114.189 6.12681C114.257 6.20415 114.294 6.30349 114.294 6.40635C114.294 6.50921 114.257 6.60856 114.189 6.6859C114.121 6.76324 114.028 6.81329 113.926 6.82673Z" fill="#CCCCCC"/>
<path d="M147.028 6.91085H116.654C116.552 6.89741 116.458 6.84735 116.39 6.77001C116.322 6.69268 116.285 6.59333 116.285 6.49047C116.285 6.38762 116.322 6.28826 116.39 6.21093C116.458 6.13359 116.552 6.08354 116.654 6.0701H147.028C147.13 6.08354 147.224 6.13359 147.292 6.21093C147.36 6.28826 147.397 6.38762 147.397 6.49047C147.397 6.59333 147.36 6.69268 147.292 6.77001C147.224 6.84735 147.13 6.89741 147.028 6.91085H147.028Z" fill="#CCCCCC"/>
<path d="M113.999 11.4509H83.6245C83.5225 11.4374 83.4289 11.3874 83.3611 11.3101C83.2933 11.2327 83.2559 11.1334 83.2559 11.0305C83.2559 10.9277 83.2933 10.8283 83.3611 10.751C83.4289 10.6736 83.5225 10.6236 83.6245 10.6101H113.999C114.101 10.6236 114.195 10.6736 114.263 10.751C114.331 10.8283 114.368 10.9277 114.368 11.0305C114.368 11.1334 114.331 11.2327 114.263 11.3101C114.195 11.3874 114.101 11.4374 113.999 11.4509Z" fill="#CCCCCC"/>
<path d="M114.073 16.0751H83.6983C83.5964 16.0616 83.5027 16.0116 83.4349 15.9342C83.3671 15.8569 83.3297 15.7575 83.3297 15.6547C83.3297 15.5518 83.3671 15.4525 83.4349 15.3751C83.5027 15.2978 83.5964 15.2478 83.6983 15.2343H114.073C114.175 15.2478 114.269 15.2978 114.337 15.3751C114.404 15.4525 114.442 15.5518 114.442 15.6547C114.442 15.7575 114.404 15.8569 114.337 15.9342C114.269 16.0116 114.175 16.0616 114.073 16.0751Z" fill="#CCCCCC"/>
<path d="M127.86 11.4509H119.16C119.058 11.4374 118.965 11.3874 118.897 11.3101C118.829 11.2327 118.792 11.1334 118.792 11.0305C118.792 10.9277 118.829 10.8283 118.897 10.751C118.965 10.6736 119.058 10.6236 119.16 10.6101H127.86C127.962 10.6236 128.055 10.6736 128.123 10.751C128.191 10.8283 128.228 10.9277 128.228 11.0305C128.228 11.1334 128.191 11.2327 128.123 11.3101C128.055 11.3874 127.962 11.4374 127.86 11.4509Z" fill="#CCCCCC"/>
<path d="M127.86 15.991H119.16C119.058 15.9775 118.965 15.9275 118.897 15.8502C118.829 15.7728 118.792 15.6735 118.792 15.5706C118.792 15.4678 118.829 15.3684 118.897 15.2911C118.965 15.2137 119.058 15.1637 119.16 15.1502H127.86C127.962 15.1637 128.055 15.2137 128.123 15.2911C128.191 15.3684 128.228 15.4678 128.228 15.5706C128.228 15.6735 128.191 15.7728 128.123 15.8502C128.055 15.9275 127.962 15.9775 127.86 15.991Z" fill="#CCCCCC"/>
<path d="M142.457 15.991H133.758C133.656 15.9775 133.562 15.9275 133.494 15.8502C133.427 15.7728 133.389 15.6735 133.389 15.5706C133.389 15.4678 133.427 15.3684 133.494 15.2911C133.562 15.2137 133.656 15.1637 133.758 15.1502H142.457C142.559 15.1637 142.653 15.2137 142.721 15.2911C142.789 15.3684 142.826 15.4678 142.826 15.5706C142.826 15.6735 142.789 15.7728 142.721 15.8502C142.653 15.9275 142.559 15.9775 142.457 15.991Z" fill="#CCCCCC"/>
<path d="M92.0293 2.20258H83.3297C83.2277 2.18914 83.1341 2.13909 83.0663 2.06175C82.9985 1.98441 82.9611 1.88506 82.9611 1.7822C82.9611 1.67934 82.9985 1.57999 83.0663 1.50266C83.1341 1.42532 83.2277 1.37527 83.3297 1.36183H92.0293C92.1312 1.37527 92.2249 1.42532 92.2927 1.50266C92.3605 1.57999 92.3979 1.67934 92.3979 1.7822C92.3979 1.88506 92.3605 1.98441 92.2927 2.06175C92.2249 2.13909 92.1312 2.18914 92.0293 2.20258Z" fill="#CCCCCC"/>
<path d="M113.815 55.2224H83.4402C83.3382 55.209 83.2446 55.1589 83.1767 55.0816C83.1089 55.0042 83.0715 54.9049 83.0715 54.802C83.0715 54.6992 83.1089 54.5998 83.1767 54.5225C83.2446 54.4451 83.3382 54.3951 83.4402 54.3817H113.815C113.917 54.3951 114.011 54.4451 114.078 54.5225C114.146 54.5998 114.184 54.6992 114.184 54.802C114.184 54.9049 114.146 55.0042 114.078 55.0816C114.011 55.1589 113.917 55.209 113.815 55.2224H113.815Z" fill="#CCCCCC"/>
<path d="M113.668 64.4708H83.2927C83.1907 64.4573 83.0971 64.4073 83.0293 64.3299C82.9615 64.2526 82.9241 64.1532 82.9241 64.0504C82.9241 63.9475 82.9615 63.8482 83.0293 63.7708C83.0971 63.6935 83.1907 63.6434 83.2927 63.63H113.668C113.77 63.6434 113.863 63.6935 113.931 63.7708C113.999 63.8482 114.036 63.9475 114.036 64.0504C114.036 64.1532 113.999 64.2526 113.931 64.3299C113.863 64.4073 113.77 64.4573 113.668 64.4708H113.668Z" fill="#CCCCCC"/>
<path d="M113.741 69.0949H83.3664C83.2645 69.0814 83.1708 69.0314 83.103 68.954C83.0352 68.8767 82.9978 68.7774 82.9978 68.6745C82.9978 68.5716 83.0352 68.4723 83.103 68.395C83.1708 68.3176 83.2645 68.2676 83.3664 68.2541H113.741C113.843 68.2676 113.937 68.3176 114.005 68.395C114.073 68.4723 114.11 68.5716 114.11 68.6745C114.11 68.7774 114.073 68.8767 114.005 68.954C113.937 69.0314 113.843 69.0814 113.741 69.0949H113.741Z" fill="#CCCCCC"/>
<path d="M126.717 64.5548H118.017C117.915 64.5414 117.822 64.4914 117.754 64.414C117.686 64.3367 117.649 64.2373 117.649 64.1345C117.649 64.0316 117.686 63.9322 117.754 63.8549C117.822 63.7776 117.915 63.7275 118.017 63.7141H126.717C126.819 63.7275 126.913 63.7776 126.98 63.8549C127.048 63.9322 127.086 64.0316 127.086 64.1345C127.086 64.2373 127.048 64.3367 126.98 64.414C126.913 64.4914 126.819 64.5414 126.717 64.5548Z" fill="#CCCCCC"/>
<path d="M126.717 69.0949H118.017C117.915 69.0814 117.822 69.0314 117.754 68.954C117.686 68.8767 117.649 68.7774 117.649 68.6745C117.649 68.5716 117.686 68.4723 117.754 68.395C117.822 68.3176 117.915 68.2676 118.017 68.2541H126.717C126.819 68.2676 126.913 68.3176 126.98 68.395C127.048 68.4723 127.086 68.5716 127.086 68.6745C127.086 68.7774 127.048 68.8767 126.98 68.954C126.913 69.0314 126.819 69.0814 126.717 69.0949Z" fill="#CCCCCC"/>
<path d="M141.315 64.5548H132.615C132.513 64.5414 132.419 64.4914 132.352 64.414C132.284 64.3367 132.246 64.2373 132.246 64.1345C132.246 64.0316 132.284 63.9322 132.352 63.8549C132.419 63.7776 132.513 63.7275 132.615 63.7141H141.315C141.417 63.7275 141.51 63.7776 141.578 63.8549C141.646 63.9322 141.683 64.0316 141.683 64.1345C141.683 64.2373 141.646 64.3367 141.578 64.414C141.51 64.4914 141.417 64.5414 141.315 64.5548Z" fill="#CCCCCC"/>
<path d="M147.065 59.8466H99.2912C99.1892 59.8331 99.0956 59.7831 99.0278 59.7057C98.96 59.6284 98.9226 59.5291 98.9226 59.4262C98.9226 59.3233 98.96 59.224 99.0278 59.1467C99.0956 59.0693 99.1892 59.0193 99.2912 59.0058H147.065C147.167 59.0193 147.261 59.0693 147.329 59.1467C147.397 59.224 147.434 59.3233 147.434 59.4262C147.434 59.5291 147.397 59.6284 147.329 59.7057C147.261 59.7831 147.167 59.8331 147.065 59.8466Z" fill="#CCCCCC"/>
<path d="M92.0661 59.8466H83.3665C83.2646 59.8331 83.1709 59.7831 83.1031 59.7057C83.0353 59.6284 82.9979 59.5291 82.9979 59.4262C82.9979 59.3233 83.0353 59.224 83.1031 59.1467C83.1709 59.0693 83.2646 59.0193 83.3665 59.0058H92.0661C92.1681 59.0193 92.2617 59.0693 92.3295 59.1467C92.3973 59.224 92.4347 59.3233 92.4347 59.4262C92.4347 59.5291 92.3973 59.6284 92.3295 59.7057C92.2617 59.7831 92.1681 59.8331 92.0661 59.8466Z" fill="#CCCCCC"/>
<path d="M106.48 23.5444L94.6833 35.1927L106.48 46.8407L109.134 44.1867L100.213 35.2663L109.207 26.2722L106.48 23.5444Z" fill="#E6E6E6"/>
<path d="M123.879 23.5444L135.675 35.1927L123.879 46.8407L121.225 44.1867L130.145 35.2663L121.151 26.2722L123.879 23.5444Z" fill="#E6E6E6"/>
<path d="M94.7962 23.5444L83 35.1927L94.7962 46.8407L97.4503 44.1867L88.5294 35.2663L97.5238 26.2722L94.7962 23.5444Z" fill="#FFAB63"/>
<path d="M138.728 23.5444L150.524 35.1927L138.728 46.8407L136.074 44.1867L144.994 35.2663L136 26.2722L138.728 23.5444Z" fill="#FFAB63"/>
<path d="M245.788 80.9818C249.458 85.897 257.077 86.4143 257.077 86.4143C257.077 86.4143 258.745 78.9625 255.075 74.0473C251.404 69.1321 243.785 68.6148 243.785 68.6148C243.785 68.6148 242.117 76.0666 245.788 80.9818Z" fill="#FFAB63"/>
<path d="M264.485 82.8295C262.064 86.0729 257.036 86.4142 257.036 86.4142C257.036 86.4142 255.935 81.497 258.357 78.2536C260.779 75.0103 265.807 74.6689 265.807 74.6689C265.807 74.6689 266.907 79.5861 264.485 82.8295Z" fill="#FFAB63"/>
<path d="M50.5379 59.5781V66.9174H48.3697L46.9244 59.2286L50.5379 59.5781Z" fill="#FFB9B9"/>
<path d="M33.3735 59.5781V66.9174H31.2055L29.76 59.2286L33.3735 59.5781Z" fill="#FFB9B9"/>
<path d="M44.8113 5.47529C44.8113 5.47529 41.3272 3.05336 40.8917 4.21167C40.4562 5.36998 43.5047 7.47601 43.5047 7.47601L44.8113 5.47529Z" fill="#FFB9B9"/>
<path d="M32.4537 8.58169C32.4537 12.7689 34.3178 12.899 37.3544 12.899C40.391 12.899 43.4503 12.7689 43.4503 8.58169C43.4503 4.39444 40.9886 1 37.952 1C34.9154 1 32.4537 4.39444 32.4537 8.58169Z" fill="#2F2E41"/>
<path d="M39.9117 8.52903C39.9117 8.52903 39.4762 11.6881 41.5449 11.8987C43.6135 12.1093 34.7946 12.7411 34.7946 12.7411C34.7946 12.7411 37.081 10.7404 35.8833 9.16083C34.6857 7.58132 39.9117 8.52903 39.9117 8.52903Z" fill="#FFB9B9"/>
<path d="M50.9083 64.9705L51.6704 71.1833C51.6704 71.1833 55.4811 75.7112 53.0858 75.3953C50.6905 75.0794 49.1663 75.4625 49.1663 75.0413C49.1663 74.6201 49.11 73.1152 48.7833 73.1152C48.4567 73.1152 48.1864 75.4915 48.1864 75.4915C48.1864 75.4915 47.2065 75.4198 47.0976 75.3145C46.9888 75.2092 46.8799 69.1825 46.8799 69.1825C46.8799 69.1825 46.5532 67.3924 47.2065 66.55C47.8598 65.7076 47.7509 64.9705 47.7509 64.9705L50.9083 64.9705Z" fill="#2F2E41"/>
<path d="M33.5633 64.9022L34.3255 71.1149C34.3255 71.1149 38.1361 75.6429 35.7409 75.327C33.3456 75.0111 31.8213 75.3941 31.8213 74.9729C31.8213 74.5517 31.765 73.0468 31.4384 73.0468C31.1117 73.0468 30.8414 75.4232 30.8414 75.4232C30.8414 75.4232 29.8615 75.3515 29.7527 75.2462C29.6438 75.1409 29.5349 69.1142 29.5349 69.1142C29.5349 69.1142 29.2083 67.3241 29.8615 66.4817C30.5148 65.6393 30.4059 64.9022 30.4059 64.9022H33.5633Z" fill="#2F2E41"/>
<path d="M45.2468 28.0098C45.2468 28.0098 48.7309 37.5922 48.9486 39.6982C49.1664 41.8042 48.7309 48.9647 48.7309 48.9647C48.7309 48.9647 51.8883 61.3367 51.235 61.442C50.5818 61.5473 46.9439 62.0466 46.835 61.5201C46.7261 60.9936 46.338 60.1784 46.4468 59.8625C46.5557 59.5466 46.1202 58.3883 46.1202 57.7565C46.1202 57.1247 44.5936 53.8086 44.7025 53.2821C44.8113 52.7556 42.8515 44.9633 42.5249 44.3315C42.1983 43.6996 41.3273 39.277 41.3273 39.277C41.3273 39.277 36.4278 52.2291 36.319 52.545C36.2101 52.8609 35.7746 53.3874 35.9923 53.4927C36.2101 53.598 35.6657 54.3351 35.6657 54.3351C35.6657 54.3351 34.5375 58.7042 34.5375 58.9148C34.5375 59.1254 34.7553 61.5092 34.3198 61.6145C33.8843 61.7198 29.4358 61.7131 29.218 60.976C29.0003 60.2389 31.5284 51.7025 31.5284 51.7025C31.5284 51.7025 33.3793 46.3322 32.8349 44.9633C32.2905 43.5944 33.3793 35.3809 33.8148 34.7491C34.2503 34.1173 34.3592 30.3264 34.3592 30.3264L45.2468 28.0098Z" fill="#2F2E41"/>
<path d="M38.0065 10.2665C39.9307 10.2665 41.4906 8.75785 41.4906 6.89685C41.4906 5.03585 39.9307 3.52721 38.0065 3.52721C36.0823 3.52721 34.5225 5.03585 34.5225 6.89685C34.5225 8.75785 36.0823 10.2665 38.0065 10.2665Z" fill="#FFB9B9"/>
<path d="M39.9118 11.1616C39.9118 11.1616 35.9922 11.2669 35.7745 10.951C35.5567 10.6351 30.1129 11.6881 30.1129 13.7941C30.1129 15.9002 33.2703 24.1137 33.2703 24.1137C33.2703 24.1137 34.468 30.0105 34.1413 30.6423C33.8147 31.2742 46.2266 29.2734 45.9 28.2204C45.5734 27.1674 43.7225 24.8508 46.1178 22.8501C48.513 20.8493 49.4929 18.7433 49.4929 18.7433L46.6621 11.4775C46.6621 11.4775 43.8313 11.0563 43.1781 11.4775C42.5248 11.8987 39.9118 11.1616 39.9118 11.1616Z" fill="#FFAB63"/>
<path d="M48.7308 19.2697L49.4929 18.7432C49.4929 18.7432 56.5699 11.5828 54.719 10.2138C52.8681 8.84493 50.1462 7.58131 48.8397 7.47601C47.5332 7.37071 46.4444 6.423 46.4444 6.423C46.4444 6.423 45.029 4.00107 43.9403 5.58059C42.8515 7.16011 41.6538 7.68661 43.1781 8.21312C44.7024 8.73962 45.6823 8.52903 46.4444 9.05553C47.2065 9.58204 50.1462 10.4244 48.8397 10.7403C48.0905 10.916 47.3611 11.1629 46.6622 11.4775L45.2468 13.8994L48.7308 19.2697Z" fill="#FFAB63"/>
<path d="M36.4279 37.0656C36.4279 37.0656 39.2587 41.0671 37.19 40.8565C35.1214 40.6459 34.1415 37.908 34.1415 37.908L36.4279 37.0656Z" fill="#FFB9B9"/>
<path d="M30.8751 13.2676L30.113 13.7941C30.113 13.7941 27.6088 27.0621 30.113 30.537C32.6171 34.012 32.8349 33.8014 32.8349 33.8014C32.8349 33.8014 33.2704 33.4855 33.4881 35.5915C33.7059 37.6975 33.3793 38.5399 34.0325 38.5399C34.6858 38.5399 37.6254 37.9081 37.4077 37.3816C37.1899 36.8551 35.7745 33.8014 35.6657 33.0643C35.5568 32.3271 35.0124 30.6423 34.7947 29.6946C34.5769 28.7469 35.7745 28.2204 35.2302 26.2197C34.6858 24.219 33.9236 20.6387 33.9236 19.9016C33.9236 19.1645 30.8751 13.2676 30.8751 13.2676Z" fill="#FFAB63"/>
<path d="M34.6313 3.8958C34.6313 5.02985 36.24 5.94917 38.2243 5.94917C40.2086 5.94917 42.0349 6.55672 42.0349 5.42267C42.0349 4.28862 40.2086 1.84243 38.2243 1.84243C36.24 1.84243 34.6313 2.76175 34.6313 3.8958Z" fill="#2F2E41"/>
<path d="M43.4177 9.29235C43.4177 9.29235 43.5644 13.1096 39.6422 12.899C35.7201 12.6884 40.1723 9.63608 40.1723 9.63608L43.4177 9.29235Z" fill="#2F2E41"/>
<path d="M255.918 86.4144H77V86.9847H255.918V86.4144Z" fill="#3F3D56"/>
<path d="M284.584 55V39.248H289.402C291.807 39.248 293.736 39.974 295.188 41.426C296.655 42.878 297.388 44.7773 297.388 47.124C297.388 49.4853 296.655 51.392 295.188 52.844C293.736 54.2813 291.807 55 289.402 55H284.584ZM286.608 41.184V53.064H289.402C291.235 53.064 292.68 52.5433 293.736 51.502C294.792 50.446 295.32 48.9867 295.32 47.124C295.32 45.276 294.792 43.824 293.736 42.768C292.68 41.712 291.235 41.184 289.402 41.184H286.608ZM305.061 55.352C303.477 55.352 302.171 54.8093 301.145 53.724C300.118 52.6387 299.605 51.2673 299.605 49.61C299.605 47.9673 300.103 46.6033 301.101 45.518C302.098 44.418 303.374 43.868 304.929 43.868C306.527 43.868 307.796 44.3887 308.735 45.43C309.688 46.4567 310.165 47.9013 310.165 49.764L310.143 49.984H301.673C301.702 51.04 302.054 51.8907 302.729 52.536C303.403 53.1813 304.21 53.504 305.149 53.504C306.439 53.504 307.451 52.8587 308.185 51.568L309.989 52.448C309.505 53.3573 308.83 54.0687 307.965 54.582C307.114 55.0953 306.146 55.352 305.061 55.352ZM301.827 48.312H308.009C307.95 47.564 307.642 46.948 307.085 46.464C306.542 45.9653 305.809 45.716 304.885 45.716C304.122 45.716 303.462 45.9507 302.905 46.42C302.362 46.8893 302.003 47.52 301.827 48.312ZM318.137 55H316.113L311.757 44.22H313.957L317.125 52.58H317.169L320.381 44.22H322.537L318.137 55ZM329.476 55.352C327.892 55.352 326.586 54.8093 325.56 53.724C324.533 52.6387 324.02 51.2673 324.02 49.61C324.02 47.9673 324.518 46.6033 325.516 45.518C326.513 44.418 327.789 43.868 329.344 43.868C330.942 43.868 332.211 44.3887 333.15 45.43C334.103 46.4567 334.58 47.9013 334.58 49.764L334.558 49.984H326.088C326.117 51.04 326.469 51.8907 327.144 52.536C327.818 53.1813 328.625 53.504 329.564 53.504C330.854 53.504 331.866 52.8587 332.6 51.568L334.404 52.448C333.92 53.3573 333.245 54.0687 332.38 54.582C331.529 55.0953 330.561 55.352 329.476 55.352ZM326.242 48.312H332.424C332.365 47.564 332.057 46.948 331.5 46.464C330.957 45.9653 330.224 45.716 329.3 45.716C328.537 45.716 327.877 45.9507 327.32 46.42C326.777 46.8893 326.418 47.52 326.242 48.312ZM339.554 39.248V55H337.53V39.248H339.554ZM342.397 49.61C342.397 47.9527 342.918 46.5813 343.959 45.496C345.015 44.4107 346.343 43.868 347.941 43.868C349.54 43.868 350.86 44.4107 351.901 45.496C352.957 46.5813 353.485 47.9527 353.485 49.61C353.485 51.282 352.957 52.6533 351.901 53.724C350.86 54.8093 349.54 55.352 347.941 55.352C346.343 55.352 345.015 54.8093 343.959 53.724C342.918 52.6387 342.397 51.2673 342.397 49.61ZM344.421 49.61C344.421 50.7687 344.759 51.7073 345.433 52.426C346.108 53.1447 346.944 53.504 347.941 53.504C348.939 53.504 349.775 53.1447 350.449 52.426C351.124 51.7073 351.461 50.7687 351.461 49.61C351.461 48.466 351.124 47.5347 350.449 46.816C349.76 46.0827 348.924 45.716 347.941 45.716C346.959 45.716 346.123 46.0827 345.433 46.816C344.759 47.5347 344.421 48.466 344.421 49.61ZM361.596 53.504C362.564 53.504 363.378 53.1373 364.038 52.404C364.698 51.6853 365.028 50.754 365.028 49.61C365.028 48.4807 364.698 47.5493 364.038 46.816C363.378 46.0827 362.564 45.716 361.596 45.716C360.614 45.716 359.792 46.0827 359.132 46.816C358.487 47.5493 358.164 48.4807 358.164 49.61C358.164 50.754 358.487 51.6927 359.132 52.426C359.792 53.1447 360.614 53.504 361.596 53.504ZM361.926 55.352C361.134 55.352 360.408 55.1833 359.748 54.846C359.103 54.5087 358.604 54.0613 358.252 53.504H358.164L358.252 55V59.752H356.228V44.22H358.164V45.716H358.252C358.604 45.1587 359.103 44.7113 359.748 44.374C360.408 44.0367 361.134 43.868 361.926 43.868C363.349 43.868 364.552 44.4253 365.534 45.54C366.546 46.6693 367.052 48.026 367.052 49.61C367.052 51.2087 366.546 52.5653 365.534 53.68C364.552 54.7947 363.349 55.352 361.926 55.352ZM371.923 55H369.899V44.22H371.835V45.716H371.923C372.231 45.188 372.7 44.748 373.331 44.396C373.976 44.044 374.614 43.868 375.245 43.868C376.037 43.868 376.733 44.0513 377.335 44.418C377.936 44.7847 378.376 45.2907 378.655 45.936C379.549 44.5573 380.789 43.868 382.373 43.868C383.619 43.868 384.58 44.2493 385.255 45.012C385.929 45.7747 386.267 46.86 386.267 48.268V55H384.243V48.576C384.243 47.564 384.059 46.838 383.693 46.398C383.326 45.9433 382.71 45.716 381.845 45.716C381.067 45.716 380.415 46.046 379.887 46.706C379.359 47.366 379.095 48.1433 379.095 49.038V55H377.071V48.576C377.071 47.564 376.887 46.838 376.521 46.398C376.154 45.9433 375.538 45.716 374.673 45.716C373.895 45.716 373.243 46.046 372.715 46.706C372.187 47.366 371.923 48.1433 371.923 49.038V55ZM394.573 55.352C392.989 55.352 391.684 54.8093 390.657 53.724C389.631 52.6387 389.117 51.2673 389.117 49.61C389.117 47.9673 389.616 46.6033 390.613 45.518C391.611 44.418 392.887 43.868 394.441 43.868C396.04 43.868 397.309 44.3887 398.247 45.43C399.201 46.4567 399.677 47.9013 399.677 49.764L399.655 49.984H391.185C391.215 51.04 391.567 51.8907 392.241 52.536C392.916 53.1813 393.723 53.504 394.661 53.504C395.952 53.504 396.964 52.8587 397.697 51.568L399.501 52.448C399.017 53.3573 398.343 54.0687 397.477 54.582C396.627 55.0953 395.659 55.352 394.573 55.352ZM391.339 48.312H397.521C397.463 47.564 397.155 46.948 396.597 46.464C396.055 45.9653 395.321 45.716 394.397 45.716C393.635 45.716 392.975 45.9507 392.417 46.42C391.875 46.8893 391.515 47.52 391.339 48.312ZM402.628 44.22H404.564V45.716H404.652C404.96 45.188 405.429 44.748 406.06 44.396C406.705 44.044 407.373 43.868 408.062 43.868C409.382 43.868 410.394 44.2493 411.098 45.012C411.817 45.76 412.176 46.8307 412.176 48.224V55H410.152V48.356C410.108 46.596 409.221 45.716 407.49 45.716C406.683 45.716 406.009 46.046 405.466 46.706C404.923 47.3513 404.652 48.1287 404.652 49.038V55H402.628V44.22ZM419.361 55.176C418.481 55.176 417.748 54.9047 417.161 54.362C416.589 53.8193 416.296 53.064 416.281 52.096V46.068H414.389V44.22H416.281V40.92H418.305V44.22H420.945V46.068H418.305V51.436C418.305 52.1547 418.445 52.646 418.723 52.91C419.002 53.1593 419.317 53.284 419.669 53.284C419.831 53.284 419.985 53.2693 420.131 53.24C420.293 53.196 420.439 53.1447 420.571 53.086L421.209 54.89C420.681 55.0807 420.065 55.176 419.361 55.176Z" fill="black"/>
</g>
<defs>
<clipPath id="clip0">
<path d="M0 10C0 4.47715 4.47715 0 10 0H445C450.523 0 455 4.47715 455 10V80C455 85.5229 450.523 90 445 90H10C4.47715 90 0 85.5229 0 80V10Z" fill="white"/>
</clipPath>
</defs>
</svg>
