<svg width="328" height="179" viewBox="0 0 328 179" fill="none" xmlns="http://www.w3.org/2000/svg">
<path d="M0 16C0 7.16345 7.16344 0 16 0H317C323.075 0 328 4.92487 328 11V154C328 160.075 323.075 165 317 165H11C4.92488 165 0 160.075 0 154V16Z" fill="#ECECEC"/>
<g clip-path="url(#clip0_329:762)">
<path d="M129.439 159.696L128.773 168.355L135.209 169.021L133.656 158.586L129.439 159.696Z" fill="#FFB9B9"/>
<path d="M114.839 18.324H97.4834V50.0573H114.839V18.324Z" fill="#F2F2F2"/>
<path d="M172.293 122.904H148.952V154.638H172.293V122.904Z" fill="#F2F2F2"/>
<path d="M149.152 74.0068H126.011V108.933H149.152V74.0068Z" fill="#F2F2F2"/>
<path d="M172.293 28.5027H149.152V63.4293H172.293V28.5027Z" fill="#F2F2F2"/>
<path d="M264.587 177.531H50.7686V178.029H264.587V177.531Z" fill="#2F2E41"/>
<path d="M200.842 154.86H97.2617V18.1019H200.842V154.86ZM97.7056 154.416H200.399V18.546H97.7056V154.416Z" fill="#3F3D56"/>
<path d="M179.098 154.86H119.206V18.3015H179.098V154.86ZM119.649 154.416H178.654V18.7455H119.649V154.416Z" fill="#3F3D56"/>
<path d="M200.842 109.156H97.2617V63.2072H200.842V109.156ZM97.7056 108.711H200.399V63.6512H97.7056V108.711Z" fill="#3F3D56"/>
<path d="M120.5 75C126.851 75 132 69.8513 132 63.5C132 57.1487 126.851 52 120.5 52C114.149 52 109 57.1487 109 63.5C109 69.8513 114.149 75 120.5 75Z" fill="#FFAB63"/>
<path d="M177.5 27C182.747 27 187 22.9706 187 18C187 13.0294 182.747 9 177.5 9C172.253 9 168 13.0294 168 18C168 22.9706 172.253 27 177.5 27Z" fill="#FFAB63"/>
<path d="M149.274 18.5236H148.83V154.638H149.274V18.5236Z" fill="#3F3D56"/>
<path d="M224.068 158.301C227.429 168.422 226.249 177.925 226.249 177.925C226.249 177.925 219.618 171.018 216.257 160.897C212.895 150.777 214.076 141.274 214.076 141.274C214.076 141.274 220.706 148.18 224.068 158.301Z" fill="#FFAB63"/>
<path d="M228.43 158.301C225.068 168.422 226.249 177.925 226.249 177.925C226.249 177.925 232.879 171.018 236.241 160.897C239.602 150.777 238.421 141.274 238.421 141.274C238.421 141.274 231.791 148.18 228.43 158.301Z" fill="#FFAB63"/>
<path d="M229.783 158.41C230.009 169.073 226.077 177.804 226.077 177.804C226.077 177.804 221.78 169.247 221.554 158.584C221.329 147.922 225.261 139.191 225.261 139.191C225.261 139.191 229.558 147.748 229.783 158.41Z" fill="#3F3D56"/>
<path d="M98.4976 104.071C98.0017 103.989 97.4941 104.011 97.0074 104.137C96.5207 104.263 96.0657 104.489 95.6717 104.801C95.2776 105.114 94.9533 105.505 94.7194 105.95C94.4856 106.395 94.3475 106.884 94.3139 107.386C94.2183 108.728 94.6811 110.298 96.7599 111.461C101.2 113.946 110.829 119.362 110.829 119.362L129.2 122.892C129.2 122.892 138.483 130.303 139.646 126.088C140.809 121.872 130.837 119.299 130.837 119.299L113.96 114.968L103.205 107.186C103.205 107.186 101.235 104.555 98.4976 104.071Z" fill="#FFB9B9"/>
<path d="M92.6255 121.34L94.4718 126.546L105.551 123.859L102.697 119.996L92.6255 121.34Z" fill="#FFB9B9"/>
<path d="M62.9976 170.294L54.6045 169.455L60.4797 163.745L64.6764 166.6L62.9976 170.294Z" fill="#FFB9B9"/>
<path d="M105.077 98.2695C108.884 98.2695 111.97 95.1819 111.97 91.3731C111.97 87.5642 108.884 84.4766 105.077 84.4766C101.27 84.4766 98.1836 87.5642 98.1836 91.3731C98.1836 95.1819 101.27 98.2695 105.077 98.2695Z" fill="#FFB9B9"/>
<path d="M99.676 92.4543C99.676 92.4543 95.8152 96.9887 93.8008 97.6605C91.7864 98.3323 86.7504 104.714 89.2684 108.912C91.7864 113.111 101.019 107.905 101.019 107.905L100.683 103.706C100.683 103.706 104.544 96.9887 105.383 96.4849C106.223 95.9811 99.676 92.4543 99.676 92.4543Z" fill="#FFB9B9"/>
<path d="M99.0045 100.563C96.4379 96.6965 90.4845 97.3882 89.0078 101.788C88.9815 101.866 88.9563 101.946 88.9323 102.027C87.5894 106.561 89.6038 114.286 89.6038 114.286L92.6254 123.355C92.6254 123.355 100.515 119.66 106.222 125.874L105.383 119.493C105.383 119.493 107.733 114.118 104.712 110.256C102.789 107.798 101.002 103.571 99.0045 100.563Z" fill="#575A89"/>
<path d="M106.306 126.294C106.306 126.294 102.278 120.92 94.0523 124.111L92.5415 128.309C92.5415 128.309 83.8125 135.195 88.6806 145.775L88.3449 161.562L87.0019 166.096L62.6616 164.081L61.8223 171.806L66.1867 172.142C66.1867 172.142 90.8628 181.882 94.7237 175.836C98.5846 169.791 106.642 145.943 106.642 145.943L127.543 149.074C127.543 149.074 126.931 155.618 127.602 156.458C128.274 157.298 127.938 160.824 128.274 161.496C128.61 162.168 128.33 163.914 128.33 163.914L135.264 163.685V160.326C135.264 160.326 136.104 155.792 136.104 154.616C136.104 153.441 141.14 137.99 132.411 136.647C123.682 135.303 108.656 132.844 108.656 132.844L106.306 126.294Z" fill="#2F2E41"/>
<path d="M59.3045 169.119L58.9688 171.638C58.9688 171.638 47.8897 169.455 45.5396 171.47C43.1895 173.485 43.1895 174.829 41.343 173.485C40.5582 172.914 41.2288 171.524 42.2595 170.115C43.8918 167.903 46.0368 166.121 48.51 164.922C51.2804 163.565 55.1079 161.594 55.1079 161.058C55.1079 160.218 58.1294 157.699 59.3045 159.043C60.4795 160.386 62.6618 164.081 62.6618 164.081L59.3045 169.119Z" fill="#2F2E41"/>
<path d="M128.403 164.358C128.403 164.358 125.943 173.086 126.837 173.533C127.732 173.981 129.522 175.324 132.206 175.324C133.792 175.324 136.159 176.183 137.83 176.886C139.779 177.719 141.895 178.083 144.01 177.95C145.419 177.853 146.617 177.522 146.522 176.666C146.298 174.652 142.048 174.205 142.048 174.205L137.574 168.386C137.574 168.386 136.791 164.694 136.12 164.694C135.755 164.711 135.396 164.592 135.114 164.358L128.403 164.358Z" fill="#2F2E41"/>
<path d="M98.4635 100.044C98.2513 99.5032 97.9283 99.0128 97.5152 98.6044C97.1022 98.196 96.6083 97.8785 96.0653 97.6725C95.5223 97.4665 94.9422 97.3765 94.3624 97.4082C93.7825 97.4399 93.2157 97.5927 92.6984 97.8568C91.3117 98.5568 90.0288 99.9467 90.1074 102.699C90.2753 108.577 90.611 121.34 90.611 121.34L97.9971 141.661C97.9971 141.661 96.1506 155.264 101.019 153.92C105.887 152.577 102.529 141.157 102.529 141.157L96.822 121.844L98.1649 106.561C98.1649 106.561 99.6063 103.046 98.4635 100.044Z" fill="#FFB9B9"/>
<path d="M100.638 80C101.348 79.4681 103.917 77.781 104.784 77.626C105.651 77.471 106.541 77.5226 107.386 77.7766L107.591 77.8412C111.544 79.0873 113.946 86.3883 112.586 90.9021L111.262 90.4845L111.55 88.7515L110.734 90.3182L102.879 87.8418L102.645 86.2252L102.386 87.6862L100.84 87.199C99.0155 90.6354 98.948 94.6258 100.638 99.1702L98.0053 98.3403L97.538 95.1071L96.5 98.3403L94.5 105L85 103L91 88.7515C92.4623 83.8971 96 78.5 100.638 80Z" fill="#2F2E41"/>
<path d="M149.152 129.091C160.279 129.091 169.3 120.066 169.3 108.934C169.3 97.8009 160.279 88.776 149.152 88.776C138.024 88.776 129.003 97.8009 129.003 108.934C129.003 120.066 138.024 129.091 149.152 129.091Z" fill="#FFAB63"/>
<path d="M268.13 62.0392L267.967 61.6261L229.535 76.7864L192.783 34.7313L238.406 16.7343L238.243 16.3213L192.473 34.3764L181.122 21.3878L182.993 20.6587C181.719 20.4852 180.089 19.8328 178.907 19.1912C179.385 20.4484 179.814 22.1517 179.815 23.4384L180.788 21.6801L192.034 34.5494L122.24 62.0813L122.183 60.0729C121.591 61.2153 120.429 62.5318 119.428 63.4292C120.772 63.402 122.519 63.5707 123.731 64.0016L122.403 62.4943L192.344 34.9043L229.097 76.9593L151.964 107.386L151.907 105.378C151.315 106.52 150.153 107.837 149.152 108.734C150.496 108.707 152.244 108.876 153.455 109.306L152.127 107.799L229.407 77.3143L262.863 115.597L263.197 115.305L229.845 77.1414L268.13 62.0392Z" fill="#3F3D56"/>
<path d="M287 54.6477H249.097V69.2171H287V54.6477Z" fill="#3F3D56"/>
<path d="M279.718 58.5394H256.379C256.048 58.5394 255.78 58.8075 255.78 59.1382C255.78 59.4688 256.048 59.7369 256.379 59.7369H279.718C280.049 59.7369 280.317 59.4688 280.317 59.1382C280.317 58.8075 280.049 58.5394 279.718 58.5394Z" fill="#F2F2F2"/>
<path d="M279.718 61.3336H256.379C256.048 61.3336 255.78 61.6017 255.78 61.9324C255.78 62.263 256.048 62.5311 256.379 62.5311H279.718C280.049 62.5311 280.317 62.263 280.317 61.9324C280.317 61.6017 280.049 61.3336 279.718 61.3336Z" fill="#F2F2F2"/>
<path d="M279.718 64.1277H256.379C256.048 64.1277 255.78 64.3958 255.78 64.7264C255.78 65.0571 256.048 65.3252 256.379 65.3252H279.718C280.049 65.3252 280.317 65.0571 280.317 64.7264C280.317 64.3958 280.049 64.1277 279.718 64.1277Z" fill="#F2F2F2"/>
<path d="M257.276 9.34277H219.373V23.9122H257.276V9.34277Z" fill="#3F3D56"/>
<path d="M249.994 13.2345H226.654C226.324 13.2345 226.056 13.5026 226.056 13.8332C226.056 14.1639 226.324 14.432 226.654 14.432H249.994C250.325 14.432 250.593 14.1639 250.593 13.8332C250.593 13.5026 250.325 13.2345 249.994 13.2345Z" fill="#F2F2F2"/>
<path d="M249.994 16.0287H226.654C226.324 16.0287 226.056 16.2968 226.056 16.6274C226.056 16.9581 226.324 17.2262 226.654 17.2262H249.994C250.325 17.2262 250.593 16.9581 250.593 16.6274C250.593 16.2968 250.325 16.0287 249.994 16.0287Z" fill="#F2F2F2"/>
<path d="M249.994 18.8229H226.654C226.324 18.8229 226.056 19.0909 226.056 19.4216C226.056 19.7523 226.324 20.0204 226.654 20.0204H249.994C250.325 20.0204 250.593 19.7523 250.593 19.4216C250.593 19.0909 250.325 18.8229 249.994 18.8229Z" fill="#F2F2F2"/>
<path d="M282.013 108.135H244.109V122.705H282.013V108.135Z" fill="#3F3D56"/>
<path d="M274.731 112.027H251.391C251.061 112.027 250.792 112.295 250.792 112.626C250.792 112.957 251.061 113.225 251.391 113.225H274.731C275.062 113.225 275.33 112.957 275.33 112.626C275.33 112.295 275.062 112.027 274.731 112.027Z" fill="#F2F2F2"/>
<path d="M274.731 114.821H251.391C251.061 114.821 250.792 115.089 250.792 115.42C250.792 115.751 251.061 116.019 251.391 116.019H274.731C275.062 116.019 275.33 115.751 275.33 115.42C275.33 115.089 275.062 114.821 274.731 114.821Z" fill="#F2F2F2"/>
<path d="M274.939 118H251.599C251.268 118 251 118.268 251 118.599C251 118.929 251.268 119.197 251.599 119.197H274.939C275.269 119.197 275.537 118.929 275.537 118.599C275.537 118.268 275.269 118 274.939 118Z" fill="#F2F2F2"/>
</g>
<defs>
<clipPath id="clip0_329:762">
<rect width="246" height="168.686" fill="white" transform="translate(41 9.34277)"/>
</clipPath>
</defs>
</svg>
