<svg width="695" height="614" viewBox="0 0 695 614" fill="none" xmlns="http://www.w3.org/2000/svg">
<rect x="-29" width="681" height="614" rx="30" fill="#F7F7F7"/>
<path d="M605.456 511.611C605.013 528.149 602.243 544.541 597.227 560.306C597.113 560.672 596.993 561.032 596.872 561.398H566.164C566.197 561.07 566.229 560.705 566.262 560.306C568.31 536.767 580.115 393.5 566 369C567.234 370.987 607.837 436.817 605.456 511.611Z" fill="#F0F0F0"/>
<path d="M603.152 560.306C602.895 560.672 602.627 561.038 602.354 561.398H579.317C579.492 561.087 579.694 560.721 579.929 560.306C583.735 553.437 594.999 532.901 605.456 511.611C616.693 488.733 627.002 464.986 626.134 456.392C626.401 458.33 634.177 517.421 603.152 560.306Z" fill="#F0F0F0"/>
<path d="M215.219 114.15C201.105 138.651 212.91 281.917 214.957 305.457C214.99 305.855 215.023 306.221 215.056 306.549H184.347C184.227 306.183 184.107 305.822 183.992 305.457C178.976 289.692 176.206 273.299 175.763 256.762C173.383 181.967 213.985 116.138 215.219 114.15Z" fill="#F0F0F0"/>
<path d="M155.085 201.542C154.217 210.136 164.526 233.883 175.763 256.762C186.22 278.051 197.484 298.587 201.29 305.456C201.525 305.871 201.727 306.237 201.902 306.549H178.865C178.592 306.188 178.324 305.822 178.068 305.456C147.042 262.571 154.818 203.48 155.085 201.542Z" fill="#F0F0F0"/>
<path d="M182.923 54.1739C187.465 54.1739 191.148 50.4913 191.148 45.9485C191.148 41.4058 187.465 37.7231 182.923 37.7231C178.38 37.7231 174.697 41.4058 174.697 45.9485C174.697 50.4913 178.38 54.1739 182.923 54.1739Z" fill="#3F3D56"/>
<path d="M211.338 54.1739C215.88 54.1739 219.563 50.4913 219.563 45.9485C219.563 41.4058 215.88 37.7231 211.338 37.7231C206.795 37.7231 203.112 41.4058 203.112 45.9485C203.112 50.4913 206.795 54.1739 211.338 54.1739Z" fill="#3F3D56"/>
<path d="M239.753 54.1739C244.295 54.1739 247.978 50.4913 247.978 45.9485C247.978 41.4058 244.295 37.7231 239.753 37.7231C235.21 37.7231 231.527 41.4058 231.527 45.9485C231.527 50.4913 235.21 54.1739 239.753 54.1739Z" fill="#3F3D56"/>
<path d="M664.274 42.7543H644.085C643.888 42.7548 643.693 42.7165 643.512 42.6415C643.33 42.5666 643.164 42.4565 643.025 42.3175C642.886 42.1786 642.775 42.0136 642.7 41.8319C642.625 41.6503 642.586 41.4555 642.586 41.2588C642.586 41.0621 642.625 40.8674 642.7 40.6857C642.775 40.504 642.886 40.339 643.025 40.2001C643.164 40.0612 643.33 39.9511 643.512 39.8761C643.693 39.8012 643.888 39.7629 644.085 39.7633H664.274C664.471 39.7629 664.666 39.8012 664.848 39.8761C665.03 39.9511 665.195 40.0612 665.334 40.2001C665.473 40.339 665.584 40.504 665.659 40.6857C665.735 40.8674 665.774 41.0621 665.774 41.2588C665.774 41.4555 665.735 41.6503 665.659 41.8319C665.584 42.0136 665.473 42.1786 665.334 42.3175C665.195 42.4565 665.03 42.5666 664.848 42.6415C664.666 42.7165 664.471 42.7548 664.274 42.7543Z" fill="#ECECEC"/>
<path d="M664.274 48.3625H644.085C643.888 48.363 643.693 48.3246 643.512 48.2497C643.33 48.1747 643.164 48.0646 643.025 47.9257C642.886 47.7868 642.775 47.6218 642.7 47.4401C642.625 47.2584 642.586 47.0637 642.586 46.867C642.586 46.6703 642.625 46.4755 642.7 46.2939C642.775 46.1122 642.886 45.9472 643.025 45.8083C643.164 45.6693 643.33 45.5593 643.512 45.4843C643.693 45.4093 643.888 45.371 644.085 45.3715H664.274C664.471 45.371 664.666 45.4093 664.848 45.4843C665.03 45.5593 665.195 45.6693 665.334 45.8083C665.473 45.9472 665.584 46.1122 665.659 46.2939C665.735 46.4755 665.774 46.6703 665.774 46.867C665.774 47.0637 665.735 47.2584 665.659 47.4401C665.584 47.6218 665.473 47.7868 665.334 47.9257C665.195 48.0646 665.03 48.1747 664.848 48.2497C664.666 48.3246 664.471 48.363 664.274 48.3625Z" fill="#ECECEC"/>
<path d="M664.274 53.9708H644.085C643.888 53.9712 643.693 53.9329 643.512 53.8579C643.33 53.783 643.164 53.6729 643.025 53.534C642.886 53.3951 642.775 53.2301 642.7 53.0484C642.625 52.8667 642.586 52.6719 642.586 52.4753C642.586 52.2786 642.625 52.0838 642.7 51.9021C642.775 51.7205 642.886 51.5554 643.025 51.4165C643.164 51.2776 643.33 51.1675 643.512 51.0926C643.693 51.0176 643.888 50.9793 644.085 50.9797H664.274C664.471 50.9793 664.666 51.0176 664.848 51.0926C665.03 51.1675 665.195 51.2776 665.334 51.4165C665.473 51.5554 665.584 51.7205 665.659 51.9021C665.735 52.0838 665.774 52.2786 665.774 52.4753C665.774 52.6719 665.735 52.8667 665.659 53.0484C665.584 53.2301 665.473 53.3951 665.334 53.534C665.195 53.6729 665.03 53.783 664.848 53.8579C664.666 53.9329 664.471 53.9712 664.274 53.9708Z" fill="#ECECEC"/>
<path d="M688.583 392H470.417C468.715 391.998 467.084 391.397 465.882 390.328C464.679 389.258 464.002 387.809 464 386.296V133.704C464.002 132.192 464.679 130.742 465.882 129.672C467.084 128.603 468.715 128.002 470.417 128H688.583C690.285 128.002 691.916 128.603 693.118 129.672C694.321 130.742 694.998 132.192 695 133.704V386.296C694.998 387.809 694.321 389.258 693.118 390.328C691.916 391.397 690.285 391.998 688.583 392ZM470.417 129.63C469.202 129.631 468.037 130.061 467.177 130.824C466.318 131.588 465.835 132.624 465.833 133.704V386.296C465.835 387.376 466.318 388.412 467.177 389.176C468.037 389.939 469.202 390.369 470.417 390.37H688.583C689.798 390.369 690.963 389.939 691.823 389.176C692.682 388.412 693.165 387.376 693.167 386.296V133.704C693.165 132.624 692.682 131.588 691.823 130.824C690.963 130.061 689.798 129.631 688.583 129.63H470.417Z" fill="#E6E6E6"/>
<path d="M595.557 245.353H513.147C511.632 245.351 510.181 244.749 509.11 243.678C508.039 242.607 507.437 241.155 507.435 239.641V175.182C507.437 173.668 508.039 172.216 509.11 171.145C510.181 170.074 511.632 169.472 513.147 169.47H595.557C597.071 169.472 598.523 170.074 599.594 171.145C600.664 172.216 601.267 173.668 601.268 175.182V239.641C601.267 241.155 600.664 242.607 599.594 243.678C598.523 244.749 597.071 245.351 595.557 245.353Z" fill="#E6E6E6"/>
<path d="M595.383 353.221H512.973C511.459 353.219 510.007 352.617 508.937 351.546C507.866 350.475 507.263 349.024 507.262 347.509V283.05C507.263 281.536 507.866 280.084 508.937 279.013C510.007 277.943 511.459 277.34 512.973 277.338H595.383C596.898 277.34 598.349 277.943 599.42 279.013C600.491 280.084 601.093 281.536 601.095 283.05V347.509C601.093 349.024 600.491 350.475 599.42 351.546C598.349 352.617 596.898 353.219 595.383 353.221ZM512.973 278.97C511.892 278.972 510.855 279.402 510.09 280.167C509.325 280.931 508.895 281.968 508.894 283.05V347.509C508.895 348.591 509.325 349.628 510.09 350.393C510.855 351.158 511.892 351.588 512.973 351.589H595.383C596.465 351.588 597.502 351.158 598.267 350.393C599.032 349.628 599.462 348.591 599.463 347.509V283.05C599.462 281.968 599.032 280.931 598.267 280.167C597.502 279.402 596.465 278.972 595.383 278.97H512.973Z" fill="#3F3D56"/>
<path d="M618.23 371.172H535.82C534.306 371.17 532.854 370.568 531.783 369.497C530.712 368.426 530.11 366.974 530.108 365.46V301.001C530.11 299.486 530.712 298.035 531.783 296.964C532.854 295.893 534.306 295.291 535.82 295.289H618.23C619.744 295.291 621.196 295.893 622.267 296.964C623.338 298.035 623.94 299.486 623.942 301.001V365.46C623.94 366.974 623.338 368.426 622.267 369.497C621.196 370.568 619.744 371.17 618.23 371.172Z" fill="#FFAB63"/>
<path d="M586.271 352.298H544.898C544.846 352.299 544.795 352.295 544.744 352.286L564.311 318.393C564.43 318.182 564.604 318.006 564.813 317.884C565.023 317.762 565.261 317.697 565.503 317.697C565.746 317.697 565.984 317.762 566.194 317.884C566.403 318.006 566.576 318.182 566.696 318.393L579.828 341.138L580.457 342.226L586.271 352.298Z" fill="white"/>
<path opacity="0.2" d="M586.27 352.298H572.146L579.079 342.226L579.579 341.501L579.828 341.138L580.457 342.226L586.27 352.298Z" fill="black"/>
<path d="M609.306 352.298H573.522L580.457 342.226L580.956 341.501L589.992 328.375C590.151 328.174 590.352 328.009 590.579 327.891C590.807 327.773 591.056 327.704 591.312 327.689C591.568 327.674 591.825 327.712 592.065 327.803C592.305 327.893 592.523 328.032 592.706 328.212C592.752 328.264 592.796 328.318 592.836 328.375L609.306 352.298Z" fill="white"/>
<path d="M607.631 318.261C611.016 318.261 613.76 315.517 613.76 312.132C613.76 308.747 611.016 306.003 607.631 306.003C604.246 306.003 601.502 308.747 601.502 312.132C601.502 315.517 604.246 318.261 607.631 318.261Z" fill="white"/>
<path d="M376.412 398.84H182.218C180.704 398.838 179.252 398.236 178.181 397.165C177.11 396.094 176.508 394.643 176.506 393.128V328.669C176.508 327.155 177.11 325.703 178.181 324.632C179.252 323.561 180.704 322.959 182.218 322.957H376.412C377.926 322.959 379.378 323.562 380.449 324.632C381.52 325.703 382.122 327.155 382.124 328.669V393.128C382.122 394.643 381.52 396.094 380.449 397.165C379.378 398.236 377.926 398.838 376.412 398.84Z" fill="#E6E6E6"/>
<path d="M375.596 306.638H181.402C179.888 306.637 178.436 306.034 177.365 304.964C176.295 303.893 175.692 302.441 175.69 300.927V143.45C175.692 141.936 176.294 140.484 177.365 139.413C178.436 138.342 179.888 137.74 181.402 137.738H375.596C377.11 137.74 378.562 138.342 379.633 139.413C380.704 140.484 381.306 141.936 381.308 143.45V300.927C381.306 302.441 380.704 303.893 379.633 304.963C378.562 306.034 377.11 306.637 375.596 306.638ZM181.402 139.37C180.32 139.372 179.283 139.802 178.519 140.567C177.754 141.331 177.324 142.368 177.322 143.45V300.927C177.324 302.008 177.754 303.045 178.519 303.81C179.283 304.575 180.32 305.005 181.402 305.007H375.596C376.678 305.005 377.715 304.575 378.48 303.81C379.244 303.045 379.675 302.008 379.676 300.927V143.45C379.675 142.368 379.244 141.331 378.48 140.567C377.715 139.802 376.678 139.372 375.596 139.37H181.402Z" fill="#3F3D56"/>
<path d="M407.418 335.196H213.224C211.71 335.195 210.258 334.592 209.187 333.521C208.116 332.451 207.514 330.999 207.512 329.485V172.008C207.514 170.494 208.116 169.042 209.187 167.971C210.258 166.9 211.71 166.298 213.224 166.296H407.418C408.932 166.298 410.384 166.9 411.455 167.971C412.525 169.042 413.128 170.494 413.13 172.008V329.485C413.128 330.999 412.525 332.451 411.455 333.521C410.384 334.592 408.932 335.195 407.418 335.196Z" fill="#FFAB63"/>
<path d="M332.476 296.439H233.335C233.211 296.441 233.087 296.431 232.964 296.41L279.854 215.191C280.14 214.685 280.555 214.264 281.057 213.971C281.559 213.678 282.13 213.524 282.711 213.524C283.292 213.524 283.863 213.678 284.365 213.971C284.867 214.264 285.282 214.685 285.569 215.191L317.037 269.695L318.545 272.303L332.476 296.439Z" fill="white"/>
<path opacity="0.2" d="M332.476 296.439H298.627L315.244 272.303L316.44 270.564L317.038 269.695L318.546 272.303L332.476 296.439Z" fill="black"/>
<path d="M387.677 296.439H301.928L318.545 272.303L319.74 270.564L341.393 239.11C341.776 238.63 342.256 238.235 342.801 237.952C343.346 237.669 343.945 237.504 344.559 237.467C345.172 237.43 345.786 237.523 346.361 237.739C346.936 237.955 347.459 238.29 347.897 238.721C348.009 238.844 348.113 238.974 348.209 239.11L387.677 296.439Z" fill="white"/>
<path d="M381.797 213.213C389.909 213.213 396.484 206.637 396.484 198.526C396.484 190.415 389.909 183.839 381.797 183.839C373.686 183.839 367.11 190.415 367.11 198.526C367.11 206.637 373.686 213.213 381.797 213.213Z" fill="white"/>
<path d="M463.158 285.359C463.716 283.496 463.588 281.494 462.799 279.716C462.01 277.938 460.612 276.501 458.856 275.664C457.12 274.836 455.147 274.649 453.287 275.135C451.426 275.622 449.798 276.75 448.689 278.321L440.336 290.151L458.109 302.237L463.158 285.359Z" fill="#FFAB63"/>
<path d="M542.528 501.714H343.198C343.071 501.715 342.944 501.69 342.826 501.641C342.708 501.592 342.6 501.521 342.51 501.431C342.419 501.34 342.347 501.233 342.298 501.115C342.249 500.997 342.224 500.871 342.224 500.743C342.224 500.615 342.249 500.488 342.298 500.37C342.347 500.252 342.419 500.145 342.51 500.055C342.6 499.964 342.708 499.893 342.826 499.844C342.944 499.796 343.071 499.771 343.198 499.771H542.528C542.656 499.771 542.783 499.796 542.901 499.844C543.019 499.893 543.127 499.964 543.217 500.055C543.308 500.145 543.379 500.252 543.428 500.37C543.477 500.488 543.503 500.615 543.503 500.743C543.503 500.871 543.477 500.997 543.428 501.115C543.379 501.233 543.308 501.34 543.217 501.431C543.127 501.521 543.019 501.592 542.901 501.641C542.783 501.69 542.656 501.715 542.528 501.714Z" fill="#CACACA"/>
<path d="M448.826 326.978C450.15 326.25 451.686 326.006 453.17 326.288L476.44 304.542L472.578 285.152L487.856 285.98L489.222 309.515L458.436 333.49C458.301 334.6 457.883 335.657 457.222 336.559C456.561 337.461 455.679 338.177 454.662 338.641C453.644 339.104 452.524 339.297 451.41 339.203C450.296 339.109 449.224 338.73 448.299 338.103C447.373 337.476 446.624 336.621 446.124 335.621C445.623 334.621 445.388 333.51 445.441 332.393C445.494 331.276 445.833 330.191 446.426 329.243C447.019 328.295 447.845 327.515 448.826 326.978L448.826 326.978Z" fill="#917777"/>
<path d="M423.131 490.663H413.127L408.369 452.079H423.132L423.131 490.663Z" fill="#917777"/>
<path d="M425.682 500.36L393.427 500.359V499.951C393.427 496.621 394.75 493.428 397.104 491.074C399.459 488.72 402.652 487.397 405.981 487.397H405.982L425.682 487.398L425.682 500.36Z" fill="#2F2E41"/>
<path d="M498.197 490.663H488.194L483.435 452.079H498.199L498.197 490.663Z" fill="#917777"/>
<path d="M500.748 500.36L468.494 500.359V499.951C468.494 496.621 469.817 493.428 472.171 491.074C474.525 488.72 477.719 487.397 481.048 487.397H481.049L500.749 487.398L500.748 500.36Z" fill="#2F2E41"/>
<path d="M479.953 273.733C478.746 272.208 477.033 271.165 475.123 270.792C473.214 270.42 471.235 270.742 469.542 271.701C467.869 272.649 466.585 274.158 465.917 275.961C465.249 277.764 465.24 279.745 465.891 281.555L470.796 295.18L490.888 287.546L479.953 273.733Z" fill="#FFAB63"/>
<path d="M478.149 333.907C477.235 333.222 476.252 332.632 475.216 332.148L438.65 337.774L439.454 360.678C421.768 394.06 410.073 432.143 403.691 474.395L426.596 479.619C436.844 439.916 448.485 404.288 463.162 377.555L478.633 478.653L504.952 478.011C501.485 418.579 498.811 349.294 478.149 333.907Z" fill="#2F2E41"/>
<path d="M443 268C450.871 268 465.11 261.596 465.11 253.724C465.11 245.853 458.728 239.472 450.857 239.472C442.985 239.472 436.604 245.853 436.604 253.724C436.604 261.596 435.129 268 443 268Z" fill="#917777"/>
<path d="M482.199 290.349C482.851 286.407 482.211 282.361 480.373 278.813C478.535 275.266 475.598 272.409 472.002 270.669L455.929 271.473C453.312 272.15 450.885 273.416 448.832 275.173C446.778 276.93 445.152 279.133 444.079 281.613C437.112 297.918 436.119 318.765 439.052 342.596L477.123 333.54C471.901 321.783 476.098 306.43 482.199 290.349Z" fill="#FFAB63"/>
<path d="M433.185 250.248C433.185 248.32 433.564 246.41 434.303 244.628C435.041 242.846 436.122 241.227 437.486 239.863C438.85 238.499 440.469 237.418 442.251 236.679C444.033 235.941 445.943 235.561 447.872 235.562H448.714C451.374 233.446 454.672 232.296 458.071 232.298C462.074 232.298 465.914 233.888 468.745 236.719C471.575 239.55 473.166 243.389 473.166 247.393L475 290C468.745 308 457.324 285.785 445.5 289C448.48 280.745 445.489 255.618 444.136 250.248H433.185Z" fill="#2F2E41"/>
<path d="M402.995 316.34C404.506 316.338 405.97 316.862 407.136 317.822L437.993 309.934L443.924 291.073L456.924 299.142L446.813 320.438L408.294 326.669C407.642 327.578 406.767 328.303 405.754 328.777C404.741 329.25 403.623 329.455 402.508 329.372C401.393 329.289 400.318 328.921 399.386 328.303C398.454 327.685 397.697 326.838 397.187 325.843C396.676 324.848 396.43 323.739 396.472 322.622C396.514 321.504 396.842 320.416 397.425 319.462C398.008 318.508 398.826 317.72 399.802 317.173C400.777 316.626 401.877 316.339 402.995 316.34Z" fill="#917777"/>
</svg>
