<svg width="313" height="170" viewBox="0 0 313 170" fill="none" xmlns="http://www.w3.org/2000/svg">
<path d="M0 16C0 7.16344 7.16344 0 16 0H289C299.493 0 308 8.50659 308 19V115C308 121.075 303.075 126 297 126H11C4.92486 126 0 121.075 0 115V16Z" fill="#ECECEC"/>
<g clip-path="url(#clip0_329:1045)">
<path d="M188.051 147.334C187.385 147.334 186.712 147.323 186.051 147.303L186.066 146.823C187.015 146.852 187.983 146.86 188.936 146.847L188.943 147.328C188.646 147.332 188.349 147.334 188.051 147.334ZM191.833 147.222L191.805 146.743C192.755 146.687 193.717 146.608 194.665 146.509L194.715 146.986C193.76 147.087 192.791 147.166 191.833 147.222ZM183.164 147.148C182.206 147.074 181.238 146.978 180.286 146.861L180.345 146.385C181.289 146.5 182.25 146.596 183.2 146.669L183.164 147.148ZM197.584 146.619L197.512 146.145C198.456 146.001 199.407 145.835 200.338 145.65L200.432 146.121C199.493 146.307 198.535 146.475 197.584 146.619ZM177.425 146.444C176.478 146.283 175.523 146.099 174.585 145.895L174.687 145.426C175.618 145.628 176.566 145.811 177.505 145.97L177.425 146.444ZM203.255 145.492L203.139 145.026C204.066 144.797 204.998 144.543 205.909 144.273L206.046 144.734C205.127 145.006 204.188 145.261 203.255 145.492ZM171.774 145.217C170.846 144.97 169.911 144.698 168.997 144.409L169.142 143.951C170.049 144.238 170.976 144.507 171.897 144.752L171.774 145.217ZM208.798 143.847L208.641 143.394C209.54 143.081 210.444 142.743 211.329 142.389L211.508 142.835C210.616 143.192 209.705 143.532 208.798 143.847ZM166.253 143.471C165.351 143.14 164.444 142.782 163.557 142.408L163.743 141.965C164.624 142.336 165.524 142.691 166.419 143.02L166.253 143.471ZM214.161 141.702L213.962 141.264C214.826 140.872 215.694 140.453 216.542 140.019L216.761 140.447C215.906 140.884 215.031 141.306 214.161 141.702ZM160.913 141.223C160.046 140.81 159.176 140.37 158.327 139.917L158.553 139.493C159.396 139.943 160.259 140.379 161.119 140.789L160.913 141.223ZM219.301 139.074L219.063 138.657C219.891 138.185 220.718 137.688 221.52 137.181L221.776 137.586C220.968 138.098 220.135 138.598 219.301 139.074ZM155.805 138.494C154.98 138.003 154.155 137.486 153.351 136.957L153.616 136.556C154.413 137.081 155.232 137.594 156.05 138.081L155.805 138.494ZM224.182 135.986L223.907 135.593C224.687 135.048 225.465 134.477 226.22 133.897L226.513 134.278C225.752 134.863 224.968 135.437 224.182 135.986ZM150.971 135.31C150.196 134.747 149.421 134.157 148.669 133.556L148.969 133.181C149.715 133.777 150.484 134.362 151.253 134.921L150.971 135.31ZM228.763 132.465L228.454 132.097C229.181 131.484 229.904 130.845 230.604 130.198L230.93 130.55C230.225 131.203 229.496 131.847 228.763 132.465ZM146.45 131.7C145.728 131.067 145.01 130.41 144.318 129.745L144.65 129.398C145.338 130.058 146.05 130.711 146.766 131.338L146.45 131.7ZM233.008 128.539L232.666 128.201C233.336 127.522 233.999 126.82 234.636 126.113L234.993 126.434C234.351 127.147 233.683 127.854 233.008 128.539ZM142.277 127.695C141.615 126.999 140.961 126.279 140.333 125.555L140.696 125.24C141.319 125.958 141.968 126.673 142.626 127.364L142.277 127.695ZM236.88 124.241L236.509 123.937C237.114 123.2 237.71 122.44 238.28 121.677L238.665 121.964C238.09 122.733 237.49 123.499 236.88 124.241ZM138.488 123.33C137.893 122.578 137.307 121.802 136.747 121.023L137.137 120.742C137.693 121.515 138.274 122.285 138.865 123.032L138.488 123.33ZM240.345 119.607L239.948 119.338C240.483 118.549 241.008 117.737 241.507 116.924L241.916 117.176C241.413 117.995 240.885 118.813 240.345 119.607ZM135.113 118.64C134.59 117.837 134.078 117.012 133.591 116.185L134.004 115.941C134.488 116.761 134.996 117.581 135.516 118.377L135.113 118.64ZM243.375 114.674L242.954 114.442C243.416 113.607 243.864 112.75 244.286 111.895L244.717 112.108C244.291 112.97 243.839 113.833 243.375 114.674ZM132.182 113.664C131.734 112.818 131.3 111.949 130.891 111.082L131.325 110.877C131.731 111.737 132.162 112.599 132.607 113.44L132.182 113.664ZM245.94 109.481L245.5 109.288C245.883 108.414 246.25 107.519 246.592 106.628L247.041 106.8C246.696 107.698 246.326 108.6 245.94 109.481ZM129.72 108.445C129.352 107.561 128.999 106.657 128.672 105.757L129.124 105.593C129.448 106.486 129.798 107.383 130.163 108.26L129.72 108.445ZM248.017 104.07L247.561 103.919C247.861 103.015 248.144 102.092 248.402 101.174L248.864 101.304C248.604 102.229 248.319 103.16 248.017 104.07ZM127.747 103.017C127.461 102.102 127.192 101.167 126.949 100.237L127.413 100.115C127.655 101.038 127.922 101.966 128.205 102.874L127.747 103.017ZM249.583 98.503L249.115 98.3941C249.33 97.4684 249.526 96.5229 249.699 95.5845L250.172 95.6713C249.998 96.6172 249.799 97.5697 249.583 98.503ZM126.28 97.4236C126.079 96.4854 125.898 95.5296 125.741 94.5823L126.215 94.5034C126.371 95.4437 126.551 96.3923 126.75 97.3232L126.28 97.4236ZM250.629 92.8161L250.153 92.7509C250.283 91.8101 250.392 90.8508 250.478 89.8995L250.956 89.9426C250.869 90.9015 250.759 91.868 250.629 92.8161V92.8161ZM125.333 91.7193C125.22 90.7685 125.127 89.8 125.057 88.841L125.536 88.8058C125.605 89.7578 125.698 90.7188 125.81 91.6626L125.333 91.7193ZM251.152 87.0577L250.672 87.0361C250.715 86.0843 250.736 85.1189 250.736 84.1669H251.217C251.217 85.1262 251.195 86.0989 251.152 87.0577L251.152 87.0577ZM124.911 85.9525C124.895 85.3635 124.886 84.7626 124.886 84.1669C124.886 83.7972 124.889 83.4283 124.896 83.06L125.376 83.0685C125.37 83.4339 125.367 83.8 125.367 84.1669C125.367 84.7582 125.375 85.3546 125.391 85.9393L124.911 85.9525ZM250.733 83.4968C250.723 82.5444 250.691 81.5791 250.638 80.6275L251.118 80.6008C251.171 81.5596 251.203 82.5322 251.213 83.4916L250.733 83.4968ZM125.49 80.2008L125.011 80.1707C125.071 79.211 125.153 78.2416 125.256 77.2894L125.734 77.3411C125.632 78.2861 125.55 79.2481 125.49 80.2008ZM250.414 77.7666C250.318 76.8196 250.198 75.8615 250.059 74.9186L250.534 74.8485C250.674 75.7985 250.795 76.7639 250.892 77.7181L250.414 77.7666ZM126.108 74.4958L125.633 74.4224C125.78 73.4721 125.951 72.5144 126.142 71.5753L126.612 71.6706C126.424 72.6024 126.254 73.5529 126.108 74.4958ZM249.574 72.0903C249.391 71.1533 249.184 70.21 248.96 69.2868L249.426 69.1733C249.653 70.1035 249.861 71.0541 250.046 71.9981L249.574 72.0903ZM127.246 68.8716L126.78 68.7548C127.013 67.8244 127.271 66.8864 127.548 65.9664L128.008 66.1046C127.734 67.0175 127.477 67.9484 127.246 68.8716ZM248.217 66.5146C247.949 65.6 247.656 64.68 247.347 63.7798L247.801 63.6235C248.113 64.5307 248.408 65.4579 248.678 66.3795L248.217 66.5146ZM128.899 63.3682L128.446 63.209C128.765 62.3009 129.11 61.3885 129.47 60.4971L129.916 60.6773C129.558 61.5617 129.216 62.4672 128.899 63.3682ZM246.351 61.0878C246.001 60.2038 245.626 59.3166 245.236 58.4508L245.674 58.2535C246.067 59.1261 246.445 60.02 246.798 60.9107L246.351 61.0878ZM131.055 58.0369L130.619 57.8364C131.02 56.9627 131.447 56.0865 131.888 55.2323L132.315 55.4526C131.877 56.3003 131.453 57.1698 131.055 58.0369ZM244.001 55.8668C243.571 55.0188 243.115 54.169 242.647 53.3414L243.065 53.1047C243.537 53.9388 243.996 54.795 244.429 55.6496L244.001 55.8668ZM133.692 52.9295L133.275 52.6898C133.754 51.8577 134.26 51.0249 134.777 50.2145L135.182 50.473C134.669 51.2772 134.167 52.1038 133.692 52.9295ZM241.178 50.8796C240.671 50.0715 240.139 49.2666 239.599 48.4869L239.993 48.2132C240.538 48.9988 241.074 49.8099 241.585 50.6241L241.178 50.8796ZM136.783 48.0878L136.391 47.8111C136.944 47.0257 137.523 46.2429 138.112 45.4844L138.491 45.7787C137.907 46.5316 137.333 47.3084 136.783 48.0878ZM237.911 46.1683C237.332 45.4101 236.729 44.6564 236.119 43.9281L236.487 43.6196C237.102 44.3535 237.71 45.1128 238.293 45.8768L237.911 46.1683ZM140.303 43.5506L139.937 43.2391C140.558 42.5092 141.206 41.7827 141.862 41.0797L142.213 41.4074C141.562 42.1051 140.919 42.8262 140.303 43.5506ZM234.227 41.7713C233.581 41.069 232.912 40.3728 232.237 39.7025L232.576 39.3617C233.256 40.0373 233.93 40.7386 234.58 41.4462L234.227 41.7713ZM144.219 39.3542L143.883 39.0108C144.57 38.3388 145.28 37.6744 145.995 37.0362L146.315 37.3946C145.606 38.0279 144.9 38.6872 144.219 39.3542V39.3542ZM230.156 37.7258C229.449 37.0844 228.719 36.4519 227.986 35.8457L228.293 35.4755C229.031 36.0863 229.767 36.7237 230.479 37.37L230.156 37.7258ZM148.498 35.5325L148.195 35.1601C148.938 34.5551 149.705 33.9584 150.477 33.3865L150.763 33.7724C149.997 34.34 149.235 34.9321 148.498 35.5325V35.5325ZM225.733 34.0658C224.97 33.4913 224.185 32.9275 223.4 32.3903L223.671 31.9939C224.462 32.5351 225.253 33.1031 226.022 33.6821L225.733 34.0658ZM153.105 32.1179L152.837 31.7194C153.632 31.1843 154.451 30.6605 155.27 30.162L155.52 30.5724C154.706 31.0671 153.894 31.5871 153.105 32.1179V32.1179ZM220.992 30.823C220.18 30.3206 219.347 29.8309 218.514 29.3672L218.748 28.9476C219.587 29.4148 220.427 29.9084 221.245 30.4144L220.992 30.823ZM158.002 29.1393L157.771 28.7178C158.612 28.2575 159.475 27.811 160.335 27.3903L160.546 27.8219C159.692 28.2392 158.836 28.6824 158.002 29.1393ZM215.972 28.0264C215.117 27.6006 214.242 27.1892 213.37 26.8037L213.564 26.3644C214.443 26.7528 215.325 27.1674 216.186 27.5965L215.972 28.0264ZM163.147 26.6227L162.956 26.182C163.835 25.801 164.734 25.4356 165.628 25.0958L165.799 25.545C164.911 25.882 164.019 26.2446 163.147 26.6227H163.147ZM210.713 25.7018C209.824 25.3569 208.913 25.0278 208.007 24.7238L208.16 24.2683C209.073 24.5748 209.99 24.9063 210.887 25.254L210.713 25.7018ZM168.504 24.5881L168.355 24.1317C169.268 23.8324 170.199 23.5506 171.123 23.2944L171.251 23.7571C170.334 24.0115 169.41 24.2911 168.504 24.5881ZM205.266 23.8739C204.35 23.6128 203.415 23.3695 202.489 23.1511L202.599 22.6836C203.533 22.9037 204.474 23.1488 205.398 23.4119L205.266 23.8739ZM174.034 23.0536L173.927 22.5853C174.863 22.3715 175.816 22.1767 176.76 22.0064L176.845 22.4791C175.908 22.6482 174.962 22.8414 174.034 23.0536ZM199.681 22.5572C198.746 22.3816 197.793 22.2254 196.849 22.0929L196.916 21.6172C197.867 21.7508 198.827 21.9082 199.77 22.085L199.681 22.5572ZM179.681 22.0345L179.617 21.5583C180.568 21.4315 181.535 21.3247 182.491 21.2415L182.533 21.7199C181.584 21.8027 180.624 21.9085 179.681 22.0345V22.0345ZM193.999 21.7589C193.053 21.6698 192.09 21.601 191.136 21.5549L191.16 21.0751C192.12 21.1216 193.09 21.1908 194.044 21.2807L193.999 21.7589ZM185.397 21.5357L185.377 21.0558C186.26 21.019 187.16 21.0002 188.051 21L188.269 21.0004L188.267 21.4807L188.051 21.4804C187.166 21.4806 186.273 21.4992 185.397 21.5357V21.5357Z" fill="#3F3D56"/>
<path d="M249.578 136.591C249.008 136.591 248.451 136.422 247.977 136.105C247.503 135.789 247.134 135.338 246.916 134.812C246.698 134.285 246.64 133.706 246.752 133.147C246.863 132.587 247.137 132.074 247.54 131.671C247.943 131.268 248.457 130.993 249.016 130.882C249.575 130.771 250.155 130.828 250.681 131.046C251.208 131.264 251.658 131.634 251.975 132.108C252.291 132.582 252.46 133.139 252.46 133.709C252.46 134.473 252.156 135.205 251.615 135.746C251.075 136.286 250.342 136.59 249.578 136.591ZM249.578 131.307C249.103 131.307 248.639 131.448 248.244 131.712C247.849 131.976 247.541 132.351 247.359 132.79C247.178 133.229 247.13 133.711 247.223 134.177C247.315 134.643 247.544 135.071 247.88 135.407C248.216 135.743 248.644 135.972 249.11 136.064C249.576 136.157 250.059 136.11 250.497 135.928C250.936 135.746 251.311 135.438 251.575 135.043C251.839 134.648 251.98 134.184 251.98 133.709C251.979 133.072 251.726 132.462 251.276 132.011C250.826 131.561 250.215 131.308 249.578 131.307Z" fill="#2F2E41"/>
<path d="M172.916 62.6492V78.4241C172.916 78.5699 172.858 78.7095 172.755 78.8126C172.652 78.9156 172.512 78.9737 172.366 78.9741H171.975V161.151C171.975 163.425 171.071 165.606 169.464 167.214C167.856 168.822 165.675 169.725 163.401 169.725H112.054C110.929 169.725 109.814 169.503 108.774 169.072C107.734 168.642 106.789 168.01 105.993 167.214C105.197 166.417 104.565 165.472 104.135 164.432C103.704 163.392 103.483 162.277 103.483 161.151V81.8562H103.199C103.096 81.8564 102.998 81.8158 102.925 81.7433C102.852 81.6708 102.811 81.5724 102.81 81.4696V72.4917C102.81 72.4406 102.82 72.39 102.84 72.3428C102.859 72.2956 102.888 72.2527 102.924 72.2165C102.96 72.1804 103.003 72.1518 103.05 72.1322C103.098 72.1127 103.148 72.1026 103.199 72.1026H103.483V68.7209H103.197C103.089 68.7205 102.986 68.6773 102.91 68.6007C102.833 68.5242 102.791 68.4205 102.791 68.3126V59.4572C102.791 59.3497 102.834 59.2466 102.91 59.1705C102.986 59.0944 103.089 59.0516 103.197 59.0513H103.483V54.4351H103.192C103.145 54.4352 103.098 54.4259 103.054 54.4078C103.01 54.3897 102.971 54.3632 102.937 54.3297C102.904 54.2963 102.877 54.2565 102.859 54.2128C102.841 54.169 102.832 54.1222 102.832 54.0748V49.2424C102.832 49.1466 102.869 49.0546 102.937 48.9866C103.005 48.9186 103.096 48.8802 103.192 48.8798H103.483V39.0949C103.483 36.8215 104.386 34.6412 105.993 33.0337C107.601 31.4262 109.781 30.523 112.054 30.5229H163.401C165.674 30.5229 167.855 31.426 169.463 33.0335C171.071 34.6409 171.974 36.8213 171.975 39.0949V62.0992H172.366C172.512 62.0996 172.652 62.1576 172.755 62.2607C172.858 62.3638 172.916 62.5034 172.916 62.6492Z" fill="#3F3D56"/>
<path d="M140.202 34.9198H131.858C131.521 34.9198 131.248 35.1931 131.248 35.5303V36.2515C131.248 36.5886 131.521 36.862 131.858 36.862H140.202C140.539 36.862 140.812 36.5886 140.812 36.2515V35.5303C140.812 35.1931 140.539 34.9198 140.202 34.9198Z" fill="#E6E8EC"/>
<path d="M143.36 36.9925C143.968 36.9925 144.461 36.4993 144.461 35.8909C144.461 35.2825 143.968 34.7893 143.36 34.7893C142.751 34.7893 142.258 35.2825 142.258 35.8909C142.258 36.4993 142.751 36.9925 143.36 36.9925Z" fill="#E6E8EC"/>
<path d="M167.869 40.7905V161.862C167.869 163.304 167.295 164.687 166.275 165.707C165.255 166.727 163.872 167.3 162.429 167.3H113.278C112.564 167.301 111.856 167.161 111.196 166.888C110.535 166.615 109.935 166.215 109.43 165.71C108.924 165.205 108.524 164.605 108.251 163.944C107.978 163.284 107.837 162.576 107.838 161.862V40.7905C107.838 40.0761 107.979 39.3687 108.252 38.7087C108.526 38.0486 108.926 37.4489 109.432 36.9437C109.937 36.4386 110.536 36.0379 111.196 35.7645C111.856 35.4911 112.564 35.3504 113.278 35.3505H120.635V36.2944C120.635 37.4823 121.107 38.6217 121.947 39.4617C122.787 40.3017 123.926 40.7737 125.114 40.7737H150.111C151.299 40.7737 152.438 40.3018 153.278 39.4617C154.118 38.6217 154.59 37.4824 154.59 36.2944V35.3505H162.429C163.144 35.3502 163.851 35.4908 164.512 35.7641C165.172 36.0374 165.771 36.4381 166.277 36.9433C166.782 37.4485 167.182 38.0483 167.456 38.7084C167.729 39.3685 167.87 40.076 167.869 40.7905Z" fill="#FFAB63"/>
<path opacity="0.2" d="M165.957 75.0401H110.237V102.18H165.957V75.0401Z" fill="black"/>
<path d="M253.38 44.0571H197.66V71.1973H253.38V44.0571Z" fill="#F2F2F2"/>
<path d="M165.957 116.178H110.237V143.318H165.957V116.178Z" fill="#3F3D56"/>
<path d="M160.193 54.9322C162.846 54.9322 164.997 52.7816 164.997 50.1286C164.997 47.4757 162.846 45.3251 160.193 45.3251C157.54 45.3251 155.39 47.4757 155.39 50.1286C155.39 52.7816 157.54 54.9322 160.193 54.9322Z" fill="white"/>
<path d="M162.355 49.9741H160.347V47.967H160.039V49.9741H158.032V50.283H160.039V52.2902H160.347V50.283H162.355V49.9741Z" fill="#3F3D56"/>
<path d="M247.135 40.4545H191.416V67.5946H247.135V40.4545Z" fill="#3F3D56"/>
<path d="M216.29 58.6768C217.748 64.0688 222.744 67.4082 222.744 67.4082C222.744 67.4082 225.375 62.0055 223.917 56.6134C222.458 51.2214 217.462 47.882 217.462 47.882C217.462 47.882 214.831 53.2848 216.29 58.6768Z" fill="white"/>
<path d="M218.432 57.518C222.435 61.4143 222.924 67.4038 222.924 67.4038C222.924 67.4038 216.923 67.0762 212.921 63.1799C208.919 59.2836 208.43 53.2941 208.43 53.2941C208.43 53.2941 214.43 53.6217 218.432 57.518Z" fill="#FFAB63"/>
<path d="M135.311 136.398C136.339 141.093 139.862 144 139.862 144C139.862 144 141.718 139.296 140.689 134.602C139.661 129.907 136.138 127 136.138 127C136.138 127 134.282 131.704 135.311 136.398Z" fill="white"/>
<path d="M133.422 129.987C138.393 135.51 139 144 139 144C139 144 131.548 143.536 126.578 138.013C121.607 132.49 121 124 121 124C121 124 128.452 124.464 133.422 129.987Z" fill="#FFAB63"/>
<path d="M150.327 131.927C148.098 139.382 140.465 144 140.465 144C140.465 144 136.444 136.529 138.673 129.073C140.902 121.618 148.535 117 148.535 117C148.535 117 152.556 124.471 150.327 131.927Z" fill="white"/>
<path d="M142.958 133.79C138.54 138.208 138 145 138 145C138 145 144.624 144.628 149.042 140.21C153.46 135.792 154 129 154 129C154 129 147.376 129.372 142.958 133.79Z" fill="#FFAB63"/>
<path d="M203.904 101.835H199.163V97.0933H203.904V101.835ZM199.528 101.47H203.54V97.458H199.528V101.47Z" fill="#3F3D56"/>
<path d="M79.4102 131.156L76.1763 127.688L79.6434 124.454L82.8774 127.922L79.4102 131.156ZM76.6917 127.706L79.4281 130.64L82.3619 127.904L79.6255 124.97L76.6917 127.706Z" fill="#2F2E41"/>
<path d="M81.9719 56.5548C83.3087 56.5548 84.3925 55.4711 84.3925 54.1342C84.3925 52.7973 83.3087 51.7135 81.9719 51.7135C80.635 51.7135 79.5513 52.7973 79.5513 54.1342C79.5513 55.4711 80.635 56.5548 81.9719 56.5548Z" fill="#3F3D56"/>
<path d="M81.9718 61.1271C80.5888 61.1271 79.2368 60.717 78.0868 59.9486C76.9369 59.1802 76.0406 58.088 75.5113 56.8102C74.982 55.5324 74.8436 54.1263 75.1134 52.7698C75.3832 51.4133 76.0492 50.1673 77.0272 49.1893C78.0051 48.2113 79.2511 47.5453 80.6076 47.2754C81.9641 47.0056 83.3701 47.1441 84.6479 47.6734C85.9257 48.2027 87.0178 49.099 87.7862 50.249C88.5546 51.399 88.9647 52.751 88.9647 54.1341C88.9626 55.9881 88.2252 57.7656 86.9142 59.0766C85.6033 60.3876 83.8258 61.125 81.9718 61.1271ZM81.9718 47.679C80.6952 47.679 79.4472 48.0576 78.3857 48.7669C77.3242 49.4762 76.4968 50.4843 76.0083 51.6638C75.5197 52.8433 75.3919 54.1413 75.641 55.3934C75.89 56.6456 76.5048 57.7958 77.4075 58.6985C78.3103 59.6013 79.4604 60.2161 80.7126 60.4652C81.9647 60.7142 83.2626 60.5864 84.442 60.0978C85.6215 59.6093 86.6297 58.7819 87.3389 57.7204C88.0482 56.6588 88.4268 55.4108 88.4268 54.1341C88.4248 52.4227 87.7441 50.7819 86.534 49.5718C85.3239 48.3617 83.6832 47.6809 81.9718 47.679Z" fill="#2F2E41"/>
<path d="M306 169H103V170H306V169Z" fill="#3F3D56"/>
<path d="M177.966 70.7169H122.246V97.8571H177.966V70.7169Z" fill="#3F3D56"/>
<path d="M151 80H149V98H151V80Z" fill="white"/>
<path d="M148.5 85C150.985 85 153 81.9853 153 79.5C153 77.0147 150.25 71.5 148.5 75C146.75 78.5 143.5 78.5147 143.5 81C143.5 83.4853 146.015 85 148.5 85Z" fill="#FFAB63"/>
<path d="M150 96.5C148 91.5 148.76 88.7874 144.5 91L150 96.5Z" fill="white"/>
<path d="M227.491 144.547L196.583 154.216L158.134 129.954L158.133 129.952L158.007 129.874L157.986 129.861L157.68 129.669L154.02 127.365C154.026 127.303 154.035 127.243 154.047 127.184C154.103 126.899 154.233 126.634 154.424 126.416C154.49 126.337 154.563 126.264 154.641 126.198H154.643C154.677 126.169 154.714 126.139 154.752 126.112C154.79 126.082 154.829 126.055 154.871 126.029C155.579 125.554 156.646 125.352 157.758 125.292C160.159 125.177 162.549 125.695 164.687 126.794C169.009 128.98 178.299 133.281 179.747 130.646C181.647 127.193 160.063 88.6861 160.063 88.6861C158.286 84.1189 159.586 82.6269 160.401 82.1573C160.426 82.1435 160.45 82.1296 160.472 82.1175C160.559 82.0731 160.648 82.0351 160.74 82.0036C160.788 81.9862 160.837 81.9718 160.887 81.9604C160.9 81.9567 160.913 81.9539 160.926 81.9518L163.789 85.7575L163.832 85.8145L163.986 86.02L164.033 86.0822L181.388 109.148C207.979 94.8161 217.131 133.15 217.131 133.15L227.491 144.547Z" fill="#FBBEBE"/>
<path d="M164.032 86.0821C163.969 86.2121 163.87 86.3211 163.747 86.3962C163.623 86.4712 163.481 86.509 163.336 86.5051C163.241 86.5048 163.146 86.492 163.053 86.4671C162.411 86.2944 161.667 85.59 161.111 84.6282C160.569 83.6888 160.346 82.7443 160.472 82.1175C160.558 82.0731 160.648 82.035 160.739 82.0035C160.787 81.9861 160.836 81.9717 160.886 81.9603C160.663 82.3972 160.796 83.3901 161.411 84.4555C161.914 85.3275 162.594 85.9871 163.141 86.1321C163.208 86.1601 163.281 86.1721 163.353 86.1675C163.425 86.1628 163.495 86.1415 163.558 86.1052C163.621 86.069 163.674 86.0187 163.714 85.9584C163.754 85.8981 163.78 85.8293 163.789 85.7574L163.832 85.8144L163.986 86.0199L164.032 86.0821Z" fill="#3F3D56"/>
<path d="M158.006 129.874L157.985 129.86L157.68 129.669C157.682 129.177 157.309 128.37 156.485 127.56C155.789 126.882 154.981 126.436 154.423 126.416C154.49 126.337 154.562 126.264 154.641 126.198H154.643C154.677 126.169 154.713 126.139 154.751 126.112C155.503 126.333 156.184 126.748 156.727 127.314C157.632 128.203 158.129 129.216 158.006 129.874Z" fill="#3F3D56"/>
<path d="M283.62 129.846C290.406 150.267 288.023 169.441 288.023 169.441C288.023 169.441 274.639 155.506 267.853 135.085C261.068 114.664 263.451 95.4899 263.451 95.4899C263.451 95.4899 276.835 109.425 283.62 129.846Z" fill="#FFAB63"/>
<path d="M295.158 130.067C295.613 151.581 287.676 169.197 287.676 169.197C287.676 169.197 279.002 151.932 278.547 130.418C278.092 108.904 286.029 91.2877 286.029 91.2877C286.029 91.2877 294.703 108.553 295.158 130.067Z" fill="#3F3D56"/>
<path d="M286.852 113.159C288.015 113.159 288.958 112.217 288.958 111.053C288.958 109.89 288.015 108.947 286.852 108.947C285.689 108.947 284.746 109.89 284.746 111.053C284.746 112.217 285.689 113.159 286.852 113.159Z" fill="#FFAB63"/>
<path d="M282.757 129.072C283.404 129.072 283.927 128.549 283.927 127.902C283.927 127.256 283.404 126.732 282.757 126.732C282.111 126.732 281.587 127.256 281.587 127.902C281.587 128.549 282.111 129.072 282.757 129.072Z" fill="#FFAB63"/>
<path d="M268.483 117.489C269.129 117.489 269.653 116.965 269.653 116.319C269.653 115.672 269.129 115.149 268.483 115.149C267.837 115.149 267.313 115.672 267.313 116.319C267.313 116.965 267.837 117.489 268.483 117.489Z" fill="#3F3D56"/>
<path d="M274.567 128.487C275.213 128.487 275.737 127.964 275.737 127.317C275.737 126.671 275.213 126.147 274.567 126.147C273.921 126.147 273.397 126.671 273.397 127.317C273.397 127.964 273.921 128.487 274.567 128.487Z" fill="#3F3D56"/>
<path d="M275.269 145.688C275.915 145.688 276.439 145.164 276.439 144.518C276.439 143.871 275.915 143.347 275.269 143.347C274.623 143.347 274.099 143.871 274.099 144.518C274.099 145.164 274.623 145.688 275.269 145.688Z" fill="#3F3D56"/>
<path d="M288.959 140.188C289.605 140.188 290.129 139.664 290.129 139.018C290.129 138.372 289.605 137.848 288.959 137.848C288.312 137.848 287.789 138.372 287.789 139.018C287.789 139.664 288.312 140.188 288.959 140.188Z" fill="#FFAB63"/>
<path d="M285.538 135.733C289.013 153.406 287.792 170 287.792 170C287.792 170 280.938 157.94 277.462 140.267C273.987 122.594 275.208 106 275.208 106C275.208 106 282.062 118.06 285.538 135.733Z" fill="#FFAB63"/>
<path d="M294.403 135.388C293.565 153.38 288.424 169.204 288.424 169.204C288.424 169.204 284.642 155.858 285.48 137.866C286.319 119.874 291.46 104.05 291.46 104.05C291.46 104.05 295.242 117.396 294.403 135.388Z" fill="#FFAB63"/>
<path d="M305.171 133.758C300.054 154.66 287.837 169.629 287.837 169.629C287.837 169.629 283.916 150.71 289.033 129.808C294.15 108.906 306.366 93.9371 306.366 93.9371C306.366 93.9371 310.288 112.857 305.171 133.758Z" fill="#3F3D56"/>
<path d="M286.852 113.159C288.015 113.159 288.958 112.217 288.958 111.053C288.958 109.89 288.015 108.947 286.852 108.947C285.689 108.947 284.746 109.89 284.746 111.053C284.746 112.217 285.689 113.159 286.852 113.159Z" fill="#FFAB63"/>
<path d="M297.17 128.34C297.816 128.34 298.34 127.816 298.34 127.17C298.34 126.524 297.816 126 297.17 126C296.524 126 296 126.524 296 127.17C296 127.816 296.524 128.34 297.17 128.34Z" fill="#FFAB63"/>
<path d="M268.483 117.489C269.129 117.489 269.653 116.965 269.653 116.319C269.653 115.672 269.129 115.149 268.483 115.149C267.837 115.149 267.313 115.672 267.313 116.319C267.313 116.965 267.837 117.489 268.483 117.489Z" fill="#3F3D56"/>
<path d="M274.567 128.487C275.213 128.487 275.737 127.964 275.737 127.317C275.737 126.671 275.213 126.147 274.567 126.147C273.921 126.147 273.397 126.671 273.397 127.317C273.397 127.964 273.921 128.487 274.567 128.487Z" fill="#3F3D56"/>
<path d="M275.269 145.688C275.915 145.688 276.439 145.164 276.439 144.518C276.439 143.871 275.915 143.347 275.269 143.347C274.623 143.347 274.099 143.871 274.099 144.518C274.099 145.164 274.623 145.688 275.269 145.688Z" fill="#3F3D56"/>
<path d="M288.959 140.188C289.605 140.188 290.129 139.664 290.129 139.018C290.129 138.372 289.605 137.848 288.959 137.848C288.312 137.848 287.789 138.372 287.789 139.018C287.789 139.664 288.312 140.188 288.959 140.188Z" fill="#FFAB63"/>
<path opacity="0.1" d="M260 167C271.046 167 280 165.657 280 164C280 162.343 271.046 161 260 161C248.954 161 240 162.343 240 164C240 165.657 248.954 167 260 167Z" fill="#FFAB63"/>
<path d="M240.564 161.299C238.467 159.421 236.94 156.883 236.187 154.023C235.85 152.589 235.97 151.07 236.527 149.722C237.084 148.373 238.044 147.275 239.247 146.613C242.064 145.43 245.063 147.572 247.353 149.737C249.643 151.902 252.257 154.38 255.236 153.911C253.699 152.384 252.55 150.444 251.899 148.28C251.249 146.116 251.121 143.803 251.527 141.568C251.65 140.644 252.008 139.777 252.561 139.068C254.121 137.238 256.938 138.019 258.802 139.47C264.74 144.068 266.401 152.862 266.442 160.965C266.741 157.998 266.741 155.003 266.442 152.036C266.326 150.558 266.541 149.071 267.067 147.706C267.593 146.34 268.416 145.137 269.461 144.202C270.875 143.374 272.461 142.967 274.061 143.019C275.38 142.79 276.728 142.871 278.016 143.256C279.305 143.64 280.505 144.32 281.539 145.251C283.808 147.907 283.221 152.394 281.235 155.34C279.038 158.09 276.426 160.401 273.514 162.17C271.294 163.616 269.402 165.601 267.982 167.973C267.815 168.299 267.68 168.643 267.577 169H250.838C247.118 166.949 243.662 164.359 240.564 161.299Z" fill="#FFAB63"/>
<path d="M275.17 149.34C275.816 149.34 276.34 148.816 276.34 148.17C276.34 147.524 275.816 147 275.17 147C274.524 147 274 147.524 274 148.17C274 148.816 274.524 149.34 275.17 149.34Z" fill="#3F3D56"/>
<path d="M261.17 160.34C261.816 160.34 262.34 159.816 262.34 159.17C262.34 158.524 261.816 158 261.17 158C260.524 158 260 158.524 260 159.17C260 159.816 260.524 160.34 261.17 160.34Z" fill="#3F3D56"/>
<path d="M251.17 160.34C251.816 160.34 252.34 159.816 252.34 159.17C252.34 158.524 251.816 158 251.17 158C250.524 158 250 158.524 250 159.17C250 159.816 250.524 160.34 251.17 160.34Z" fill="#3F3D56"/>
<path d="M242.17 152.34C242.816 152.34 243.34 151.816 243.34 151.17C243.34 150.524 242.816 150 242.17 150C241.524 150 241 150.524 241 151.17C241 151.816 241.524 152.34 242.17 152.34Z" fill="#3F3D56"/>
<path d="M255.17 147.34C255.816 147.34 256.34 146.816 256.34 146.17C256.34 145.524 255.816 145 255.17 145C254.524 145 254 145.524 254 146.17C254 146.816 254.524 147.34 255.17 147.34Z" fill="#3F3D56"/>
<path d="M269.17 160.34C269.816 160.34 270.34 159.816 270.34 159.17C270.34 158.524 269.816 158 269.17 158C268.524 158 268 158.524 268 159.17C268 159.816 268.524 160.34 269.17 160.34Z" fill="#3F3D56"/>
</g>
<defs>
<clipPath id="clip0_329:1045">
<rect width="257" height="148.755" fill="white" transform="translate(56 21)"/>
</clipPath>
</defs>
</svg>
