<svg width="455" height="90" viewBox="0 0 455 90" fill="none" xmlns="http://www.w3.org/2000/svg">
<g clip-path="url(#clip0)">
<rect width="455" height="90" rx="10" fill="#F7F7F7"/>
<path d="M286.608 47.62V54H284.584V38.248H289.952C291.316 38.248 292.475 38.7027 293.428 39.612C294.396 40.5213 294.88 41.6287 294.88 42.934C294.88 44.2687 294.396 45.3833 293.428 46.278C292.489 47.1727 291.331 47.62 289.952 47.62H286.608ZM286.608 40.184V45.684H289.996C290.803 45.684 291.47 45.4127 291.998 44.87C292.541 44.3273 292.812 43.682 292.812 42.934C292.812 42.2007 292.541 41.5627 291.998 41.02C291.47 40.4627 290.803 40.184 289.996 40.184H286.608ZM299.774 54H297.75V43.22H299.686V44.98H299.774C299.979 44.408 300.397 43.924 301.028 43.528C301.673 43.1173 302.304 42.912 302.92 42.912C303.507 42.912 304.005 43 304.416 43.176L303.8 45.134C303.551 45.0313 303.155 44.98 302.612 44.98C301.849 44.98 301.182 45.288 300.61 45.904C300.053 46.52 299.774 47.2387 299.774 48.06V54ZM305.56 48.61C305.56 46.9527 306.081 45.5813 307.122 44.496C308.178 43.4107 309.505 42.868 311.104 42.868C312.703 42.868 314.023 43.4107 315.064 44.496C316.12 45.5813 316.648 46.9527 316.648 48.61C316.648 50.282 316.12 51.6533 315.064 52.724C314.023 53.8093 312.703 54.352 311.104 54.352C309.505 54.352 308.178 53.8093 307.122 52.724C306.081 51.6387 305.56 50.2673 305.56 48.61ZM307.584 48.61C307.584 49.7687 307.921 50.7073 308.596 51.426C309.271 52.1447 310.107 52.504 311.104 52.504C312.101 52.504 312.937 52.1447 313.612 51.426C314.287 50.7073 314.624 49.7687 314.624 48.61C314.624 47.466 314.287 46.5347 313.612 45.816C312.923 45.0827 312.087 44.716 311.104 44.716C310.121 44.716 309.285 45.0827 308.596 45.816C307.921 46.5347 307.584 47.466 307.584 48.61ZM323.532 54.176C322.652 54.176 321.919 53.9047 321.332 53.362C320.76 52.8193 320.467 52.064 320.452 51.096V45.068H318.56V43.22H320.452V39.92H322.476V43.22H325.116V45.068H322.476V50.436C322.476 51.1547 322.616 51.646 322.894 51.91C323.173 52.1593 323.488 52.284 323.84 52.284C324.002 52.284 324.156 52.2693 324.302 52.24C324.464 52.196 324.61 52.1447 324.742 52.086L325.38 53.89C324.852 54.0807 324.236 54.176 323.532 54.176ZM327.418 48.61C327.418 46.9527 327.939 45.5813 328.98 44.496C330.036 43.4107 331.364 42.868 332.962 42.868C334.561 42.868 335.881 43.4107 336.922 44.496C337.978 45.5813 338.506 46.9527 338.506 48.61C338.506 50.282 337.978 51.6533 336.922 52.724C335.881 53.8093 334.561 54.352 332.962 54.352C331.364 54.352 330.036 53.8093 328.98 52.724C327.939 51.6387 327.418 50.2673 327.418 48.61ZM329.442 48.61C329.442 49.7687 329.78 50.7073 330.454 51.426C331.129 52.1447 331.965 52.504 332.962 52.504C333.96 52.504 334.796 52.1447 335.47 51.426C336.145 50.7073 336.482 49.7687 336.482 48.61C336.482 47.466 336.145 46.5347 335.47 45.816C334.781 45.0827 333.945 44.716 332.962 44.716C331.98 44.716 331.144 45.0827 330.454 45.816C329.78 46.5347 329.442 47.466 329.442 48.61ZM345.391 54.176C344.511 54.176 343.777 53.9047 343.191 53.362C342.619 52.8193 342.325 52.064 342.311 51.096V45.068H340.419V43.22H342.311V39.92H344.335V43.22H346.975V45.068H344.335V50.436C344.335 51.1547 344.474 51.646 344.753 51.91C345.031 52.1593 345.347 52.284 345.699 52.284C345.86 52.284 346.014 52.2693 346.161 52.24C346.322 52.196 346.469 52.1447 346.601 52.086L347.239 53.89C346.711 54.0807 346.095 54.176 345.391 54.176ZM359.743 43.22L352.989 58.752H350.899L353.407 53.318L348.963 43.22H351.163L354.375 50.964H354.419L357.543 43.22H359.743ZM367.444 52.504C368.412 52.504 369.226 52.1373 369.886 51.404C370.546 50.6853 370.876 49.754 370.876 48.61C370.876 47.4807 370.546 46.5493 369.886 45.816C369.226 45.0827 368.412 44.716 367.444 44.716C366.462 44.716 365.64 45.0827 364.98 45.816C364.335 46.5493 364.012 47.4807 364.012 48.61C364.012 49.754 364.335 50.6927 364.98 51.426C365.64 52.1447 366.462 52.504 367.444 52.504ZM367.774 54.352C366.982 54.352 366.256 54.1833 365.596 53.846C364.951 53.5087 364.452 53.0613 364.1 52.504H364.012L364.1 54V58.752H362.076V43.22H364.012V44.716H364.1C364.452 44.1587 364.951 43.7113 365.596 43.374C366.256 43.0367 366.982 42.868 367.774 42.868C369.197 42.868 370.4 43.4253 371.382 44.54C372.394 45.6693 372.9 47.026 372.9 48.61C372.9 50.2087 372.394 51.5653 371.382 52.68C370.4 53.7947 369.197 54.352 367.774 54.352ZM378.365 39.502C378.365 39.898 378.226 40.2353 377.947 40.514C377.668 40.7927 377.331 40.932 376.935 40.932C376.539 40.932 376.202 40.7927 375.923 40.514C375.644 40.2353 375.505 39.898 375.505 39.502C375.505 39.106 375.644 38.7687 375.923 38.49C376.202 38.2113 376.539 38.072 376.935 38.072C377.331 38.072 377.668 38.2113 377.947 38.49C378.226 38.7687 378.365 39.106 378.365 39.502ZM377.947 43.22V54H375.923V43.22H377.947ZM381.681 43.22H383.617V44.716H383.705C384.013 44.188 384.482 43.748 385.113 43.396C385.758 43.044 386.425 42.868 387.115 42.868C388.435 42.868 389.447 43.2493 390.151 44.012C390.869 44.76 391.229 45.8307 391.229 47.224V54H389.205V47.356C389.161 45.596 388.273 44.716 386.543 44.716C385.736 44.716 385.061 45.046 384.519 45.706C383.976 46.3513 383.705 47.1287 383.705 48.038V54H381.681V43.22ZM399.437 52.504C400.435 52.504 401.249 52.1447 401.879 51.426C402.539 50.7073 402.869 49.7687 402.869 48.61C402.869 47.4807 402.539 46.5493 401.879 45.816C401.234 45.0827 400.42 44.716 399.437 44.716C398.469 44.716 397.655 45.0827 396.995 45.816C396.335 46.5493 396.005 47.4807 396.005 48.61C396.005 49.754 396.335 50.6853 396.995 51.404C397.655 52.1373 398.469 52.504 399.437 52.504ZM399.371 59.104C398.77 59.104 398.205 59.0233 397.677 58.862C397.149 58.7153 396.665 58.5027 396.225 58.224C395.8 57.9453 395.433 57.6153 395.125 57.234C394.817 56.8527 394.583 56.4273 394.421 55.958L396.335 55.166C396.555 55.7967 396.937 56.3027 397.479 56.684C398.022 57.0653 398.653 57.256 399.371 57.256C400.471 57.256 401.329 56.926 401.945 56.266C402.561 55.606 402.869 54.6967 402.869 53.538V52.504H402.781C402.4 53.076 401.879 53.5307 401.219 53.868C400.574 54.1907 399.87 54.352 399.107 54.352C397.699 54.352 396.489 53.802 395.477 52.702C394.48 51.5727 393.981 50.2087 393.981 48.61C393.981 47.0113 394.48 45.6547 395.477 44.54C396.489 43.4253 397.699 42.868 399.107 42.868C399.87 42.868 400.574 43.0367 401.219 43.374C401.879 43.6967 402.4 44.144 402.781 44.716H402.869V43.22H404.805V53.538C404.805 55.2687 404.314 56.6253 403.331 57.608C402.334 58.6053 401.014 59.104 399.371 59.104Z" fill="black"/>
<path d="M206.268 105.128C199.428 110.124 190.564 110.375 181.995 109.761C180.799 109.675 179.611 109.575 178.434 109.467C178.427 109.465 178.417 109.465 178.41 109.463C178.354 109.458 178.297 109.453 178.243 109.449C178 109.426 177.757 109.403 177.516 109.38L177.573 109.49L177.751 109.831C177.687 109.717 177.623 109.605 177.559 109.491C177.54 109.457 177.519 109.423 177.5 109.388C175.281 105.472 173.079 101.413 172.518 96.9414C171.937 92.3002 173.568 87.0449 177.598 84.7637C178.126 84.4654 178.686 84.2278 179.266 84.0553C179.507 83.9811 179.751 83.9209 179.998 83.8676C181.509 83.5274 183.083 83.6014 184.556 84.082C186.03 84.5625 187.351 85.4323 188.383 86.6019C189.415 87.7714 190.121 89.1986 190.429 90.7365C190.736 92.2745 190.634 93.8678 190.133 95.3525C193.549 91.8014 192.912 86.0406 191.734 81.226C190.553 76.4115 189.124 71.0541 191.525 66.7297C192.86 64.3227 195.207 62.8293 197.842 62.2277C197.922 62.2101 198.003 62.1924 198.084 62.1771C201.223 61.5326 204.486 62.1122 207.222 63.8003C212.259 67.0183 214.846 73.1197 215.686 79.0965C217.039 88.7143 214.045 99.4481 206.268 105.128Z" fill="#FEDFC4"/>
<path d="M204.059 89.7106C203.861 91.8321 203.358 93.9128 202.567 95.8873C201.838 97.6344 200.856 99.2613 199.652 100.714C197.194 103.712 193.943 105.966 190.413 107.468C187.713 108.589 184.885 109.359 181.995 109.761C180.799 109.675 179.611 109.575 178.434 109.467C178.427 109.465 178.417 109.465 178.41 109.464C178.353 109.458 178.297 109.453 178.243 109.449C178 109.426 177.757 109.403 177.516 109.38L177.573 109.49L177.751 109.831C177.687 109.717 177.623 109.605 177.559 109.491C177.54 109.457 177.519 109.423 177.5 109.388C179.667 107.2 181.285 104.517 182.218 101.564C183.151 98.6115 183.372 95.475 182.863 92.4176C182.331 89.3818 181.098 86.5165 179.266 84.0554C179.507 83.9811 179.751 83.9209 179.998 83.8676C180.695 84.8328 181.305 85.8584 181.824 86.9326C183.683 90.7635 184.276 95.0995 183.515 99.2987C182.808 103.099 181.046 106.615 178.436 109.436C178.665 109.419 178.895 109.4 179.121 109.379C183.398 109.012 187.667 108.08 191.546 106.171C194.862 104.578 197.741 102.183 199.929 99.1975C202.278 95.9126 203.314 91.9614 203.492 87.9456C203.68 83.6462 203.13 79.2714 202.162 75.0903C201.174 70.804 199.672 66.6564 197.69 62.7399C197.645 62.6511 197.636 62.5484 197.665 62.4531C197.693 62.3577 197.756 62.2771 197.842 62.2278C197.913 62.1792 198 62.161 198.084 62.1772C198.125 62.1882 198.164 62.2086 198.196 62.2367C198.228 62.2648 198.254 62.3 198.271 62.3396C198.516 62.8234 198.756 63.3076 198.986 63.7971C200.909 67.8748 202.325 72.1788 203.2 76.6103C204.051 80.8853 204.504 85.3573 204.059 89.7106Z" fill="white"/>
<path d="M114.747 107.336C118.241 109.887 122.769 110.016 127.146 109.702C127.757 109.658 128.364 109.607 128.965 109.552C128.969 109.551 128.974 109.551 128.977 109.55C129.006 109.547 129.035 109.545 129.063 109.543C129.187 109.531 129.311 109.519 129.434 109.508L129.405 109.564L129.314 109.738C129.347 109.68 129.379 109.623 129.412 109.564C129.422 109.547 129.433 109.529 129.442 109.512C130.576 107.511 131.701 105.438 131.987 103.154C132.284 100.783 131.451 98.0982 129.392 96.933C129.122 96.7806 128.837 96.6592 128.54 96.5711C128.417 96.5332 128.292 96.5025 128.166 96.4752C127.394 96.3015 126.591 96.3393 125.838 96.5847C125.085 96.8302 124.41 97.2745 123.883 97.8719C123.356 98.4694 122.995 99.1984 122.838 99.984C122.681 100.77 122.733 101.584 122.989 102.342C121.244 100.528 121.57 97.5852 122.172 95.1258C122.775 92.6665 123.505 89.9298 122.278 87.7208C121.931 87.1284 121.464 86.6172 120.908 86.2208C120.351 85.8244 119.719 85.5519 119.051 85.4211C119.01 85.4121 118.969 85.4031 118.928 85.3953C117.324 85.0661 115.657 85.3621 114.26 86.2244C111.687 87.8682 110.365 90.985 109.936 94.038C109.245 98.951 110.775 104.434 114.747 107.336Z" fill="#FEDFC4"/>
<path d="M115.875 99.4599C115.977 100.544 116.234 101.607 116.638 102.615C117.01 103.508 117.512 104.339 118.127 105.081C119.405 106.597 121.023 107.78 122.846 108.531C124.225 109.103 125.67 109.497 127.146 109.702C127.757 109.658 128.364 109.607 128.965 109.552C128.969 109.551 128.974 109.551 128.978 109.55C129.006 109.547 129.035 109.545 129.063 109.543C129.187 109.531 129.311 109.519 129.434 109.508L129.405 109.564L129.314 109.738C129.347 109.68 129.38 109.623 129.412 109.564C129.422 109.547 129.433 109.529 129.442 109.512C128.336 108.394 127.509 107.023 127.033 105.515C126.556 104.007 126.443 102.405 126.703 100.843C126.975 99.292 127.604 97.8283 128.54 96.5712C128.417 96.5332 128.292 96.5025 128.166 96.4753C127.811 96.9683 127.499 97.4922 127.234 98.0409C126.284 99.9978 125.981 102.213 126.37 104.358C126.731 106.299 127.631 108.095 128.964 109.536C128.847 109.528 128.73 109.518 128.614 109.507C126.417 109.36 124.266 108.804 122.267 107.868C120.574 107.055 119.103 105.831 117.985 104.306C116.785 102.628 116.256 100.61 116.165 98.5583C116.095 96.3483 116.324 94.1389 116.845 91.9916C117.349 89.8021 118.117 87.6834 119.129 85.6828C119.152 85.6374 119.156 85.585 119.142 85.5363C119.127 85.4876 119.095 85.4464 119.052 85.4212C119.015 85.3964 118.971 85.3871 118.928 85.3953C118.907 85.401 118.887 85.4114 118.87 85.4258C118.854 85.4401 118.841 85.4581 118.832 85.4783C118.707 85.7255 118.585 85.9728 118.467 86.2228C117.485 88.3058 116.762 90.5044 116.314 92.768C115.838 94.9638 115.69 97.2196 115.875 99.4599Z" fill="white"/>
<path d="M21.5833 -7.68277H-14.7932C-15.9084 -7.68117 -16.9775 -7.23133 -17.7661 -6.43188C-18.5547 -5.63243 -18.9984 -4.54859 -19 -3.41799V54.5328C-18.9984 55.6634 -18.5547 56.7472 -17.7661 57.5467C-16.9775 58.3461 -15.9084 58.796 -14.7932 58.7976H21.5833C22.6985 58.796 23.7676 58.3461 24.5562 57.5467C25.3448 56.7472 25.7885 55.6634 25.7901 54.5328V-3.41799C25.7885 -4.54859 25.3448 -5.63242 24.5562 -6.43188C23.7676 -7.23133 22.6985 -7.68117 21.5833 -7.68277ZM25.2952 54.5328C25.294 55.5305 24.9025 56.4869 24.2067 57.1923C23.5108 57.8978 22.5674 58.2946 21.5833 58.2958H-14.7932C-15.7773 58.2946 -16.7207 57.8978 -17.4166 57.1923C-18.1124 56.4869 -18.5039 55.5305 -18.5051 54.5328V-3.41799C-18.5039 -4.41564 -18.1124 -5.37208 -17.4166 -6.07752C-16.7207 -6.78297 -15.7773 -7.17982 -14.7932 -7.18103H21.5833C22.5674 -7.17982 23.5108 -6.78297 24.2067 -6.07752C24.9025 -5.37208 25.294 -4.41564 25.2952 -3.41799V54.5328Z" fill="#3F3D56"/>
<path d="M99.5331 58.7976H63.1565C62.0412 58.7963 60.9719 58.3466 60.1832 57.547C59.3946 56.7475 58.951 55.6635 58.9497 54.5328V-3.41799C58.951 -4.54869 59.3946 -5.63271 60.1832 -6.43224C60.9719 -7.23177 62.0412 -7.6815 63.1565 -7.68277H99.5331C100.648 -7.6815 101.718 -7.23177 102.506 -6.43224C103.295 -5.63271 103.739 -4.54869 103.74 -3.41799V54.5328C103.739 55.6635 103.295 56.7475 102.506 57.547C101.718 58.3466 100.648 58.7963 99.5331 58.7976ZM63.1565 -7.18103C62.1724 -7.1799 61.2289 -6.78308 60.533 -6.07762C59.8372 -5.37216 59.4457 -4.41567 59.4446 -3.41799V54.5328C59.4457 55.5305 59.8372 56.487 60.533 57.1924C61.2289 57.8979 62.1724 58.2947 63.1565 58.2958H99.5331C100.517 58.2947 101.461 57.8979 102.157 57.1924C102.852 56.487 103.244 55.5305 103.245 54.5328V-3.41799C103.244 -4.41567 102.852 -5.37216 102.157 -6.07762C101.461 -6.78308 100.517 -7.1799 99.5331 -7.18103H63.1565Z" fill="#3F3D56"/>
<path d="M47.319 25.9337H32.224C32.1584 25.9337 32.0955 25.9073 32.049 25.8602C32.0026 25.8132 31.9766 25.7494 31.9766 25.6828C31.9766 25.6163 32.0026 25.5525 32.049 25.5055C32.0955 25.4584 32.1584 25.432 32.224 25.432H47.319C47.3847 25.432 47.4476 25.4584 47.494 25.5055C47.5404 25.5525 47.5665 25.6163 47.5665 25.6828C47.5665 25.7494 47.5404 25.8132 47.494 25.8602C47.4476 25.9073 47.3847 25.9337 47.319 25.9337Z" fill="#3F3D56"/>
<path d="M44.1022 32.814C44.0504 32.8141 43.9999 32.7976 43.9579 32.767C43.9158 32.7364 43.8842 32.6932 43.8676 32.6435C43.8511 32.5937 43.8503 32.54 43.8654 32.4898C43.8806 32.4396 43.9109 32.3954 43.9521 32.3636L51.8271 26.2815C51.918 26.2113 51.9917 26.1207 52.0425 26.0169C52.0932 25.913 52.1196 25.7987 52.1196 25.6829C52.1196 25.567 52.0932 25.4527 52.0425 25.3488C51.9917 25.245 51.918 25.1545 51.8271 25.0842L43.9521 19.0021C43.9 18.9618 43.8658 18.9021 43.8571 18.8362C43.8483 18.7703 43.8657 18.7036 43.9055 18.6507C43.9452 18.5979 44.004 18.5631 44.069 18.5542C44.134 18.5452 44.1998 18.5628 44.252 18.603L52.127 24.6851C52.2786 24.8022 52.4014 24.9531 52.486 25.1262C52.5705 25.2992 52.6145 25.4897 52.6145 25.6829C52.6145 25.876 52.5705 26.0665 52.486 26.2396C52.4014 26.4126 52.2786 26.5636 52.127 26.6806L44.252 32.7627C44.209 32.796 44.1564 32.8141 44.1022 32.814Z" fill="#3F3D56"/>
<path d="M125.021 25.9337H109.926C109.861 25.9337 109.798 25.9073 109.751 25.8602C109.705 25.8132 109.679 25.7494 109.679 25.6828C109.679 25.6163 109.705 25.5525 109.751 25.5055C109.798 25.4584 109.861 25.432 109.926 25.432H125.021C125.087 25.432 125.15 25.4584 125.196 25.5055C125.243 25.5525 125.269 25.6163 125.269 25.6828C125.269 25.7494 125.243 25.8132 125.196 25.8602C125.15 25.9073 125.087 25.9337 125.021 25.9337Z" fill="#3F3D56"/>
<path d="M121.804 32.814C121.753 32.8141 121.702 32.7976 121.66 32.767C121.618 32.7364 121.586 32.6932 121.57 32.6435C121.553 32.5937 121.553 32.54 121.568 32.4898C121.583 32.4396 121.613 32.3954 121.654 32.3636L129.529 26.2815C129.62 26.2113 129.694 26.1207 129.745 26.0169C129.795 25.913 129.822 25.7987 129.822 25.6829C129.822 25.567 129.795 25.4527 129.745 25.3488C129.694 25.245 129.62 25.1545 129.529 25.0842L121.654 19.0021C121.602 18.9618 121.568 18.9021 121.559 18.8362C121.551 18.7703 121.568 18.7036 121.608 18.6507C121.647 18.5979 121.706 18.5631 121.771 18.5542C121.836 18.5452 121.902 18.5628 121.954 18.603L129.829 24.6851C129.981 24.8022 130.104 24.9531 130.188 25.1262C130.273 25.2992 130.317 25.4897 130.317 25.6829C130.317 25.876 130.273 26.0665 130.188 26.2396C130.104 26.4126 129.981 26.5636 129.829 26.6806L121.954 32.7627C121.911 32.796 121.859 32.8141 121.804 32.814Z" fill="#3F3D56"/>
<path d="M85.799 15.7735H77.1379C76.5803 15.7729 76.0456 15.548 75.6513 15.1483C75.257 14.7485 75.0352 14.2065 75.0345 13.6411V5.11158C75.0352 4.54622 75.257 4.00421 75.6513 3.60445C76.0456 3.20468 76.5803 2.97982 77.1379 2.97919H85.799C86.3567 2.97982 86.8913 3.20468 87.2857 3.60445C87.68 4.00421 87.9018 4.54622 87.9024 5.11158V13.6411C87.9018 14.2065 87.68 14.7485 87.2857 15.1483C86.8913 15.548 86.3567 15.7729 85.799 15.7735Z" fill="#FFAB63"/>
<path d="M87.4074 15.6481C87.3749 15.6481 87.3428 15.6417 87.3127 15.629C87.2827 15.6164 87.2554 15.5979 87.2325 15.5746L75.3544 3.53286C75.3315 3.50957 75.3133 3.48191 75.3008 3.45148C75.2884 3.42105 75.282 3.38842 75.282 3.35548C75.282 3.32254 75.2884 3.28993 75.3008 3.25949C75.3133 3.22906 75.3315 3.2014 75.3545 3.17811C75.3774 3.15482 75.4047 3.13634 75.4347 3.12374C75.4647 3.11113 75.4969 3.10464 75.5294 3.10464C75.5619 3.10464 75.5941 3.11113 75.6241 3.12374C75.6541 3.13634 75.6814 3.15483 75.7044 3.17812L87.5824 15.2198C87.617 15.2549 87.6406 15.2996 87.6501 15.3483C87.6597 15.3969 87.6547 15.4474 87.636 15.4932C87.6173 15.539 87.5856 15.5782 87.5449 15.6058C87.5042 15.6333 87.4564 15.6481 87.4075 15.6481L87.4074 15.6481Z" fill="white"/>
<path d="M75.5294 15.6481C75.4804 15.6481 75.4326 15.6334 75.3919 15.6058C75.3512 15.5782 75.3195 15.539 75.3008 15.4932C75.2821 15.4474 75.2772 15.397 75.2867 15.3483C75.2963 15.2996 75.3198 15.2549 75.3544 15.2199L87.2325 3.17813C87.2555 3.15484 87.2827 3.13636 87.3128 3.12375C87.3428 3.11115 87.375 3.10466 87.4074 3.10466C87.4399 3.10466 87.4721 3.11115 87.5021 3.12375C87.5322 3.13636 87.5594 3.15483 87.5824 3.17813C87.6054 3.20142 87.6236 3.22908 87.6361 3.25951C87.6485 3.28994 87.6549 3.32256 87.6549 3.3555C87.6549 3.38844 87.6485 3.42106 87.6361 3.4515C87.6236 3.48193 87.6054 3.50958 87.5824 3.53287L75.7044 15.5746C75.6814 15.5979 75.6541 15.6164 75.6241 15.6291C75.5941 15.6417 75.5619 15.6481 75.5294 15.6481Z" fill="white"/>
<path d="M89.3872 28.9442H73.3023C72.482 28.9442 71.6952 28.6138 71.1151 28.0257C70.535 27.4376 70.2091 26.64 70.2091 25.8083C70.2091 24.9766 70.535 24.179 71.1151 23.5909C71.6952 23.0028 72.482 22.6724 73.3023 22.6724H89.3872C90.2076 22.6724 90.9943 23.0028 91.5744 23.5909C92.1545 24.179 92.4804 24.9766 92.4804 25.8083C92.4804 26.64 92.1545 27.4376 91.5744 28.0257C90.9943 28.6138 90.2076 28.9442 89.3872 28.9442ZM73.3023 23.1742C72.6132 23.1742 71.9523 23.4517 71.4651 23.9457C70.9778 24.4397 70.704 25.1097 70.704 25.8083C70.704 26.5069 70.9778 27.1769 71.4651 27.6709C71.9523 28.1649 72.6132 28.4424 73.3023 28.4424H89.3872C90.0763 28.4424 90.7372 28.1649 91.2245 27.6709C91.7118 27.1769 91.9855 26.5069 91.9855 25.8083C91.9855 25.1097 91.7118 24.4397 91.2245 23.9457C90.7372 23.4517 90.0763 23.1742 89.3872 23.1742H73.3023Z" fill="#3F3D56"/>
<path d="M89.3872 38.4772H73.3023C72.482 38.4772 71.6952 38.1468 71.1151 37.5587C70.535 36.9706 70.2091 36.173 70.2091 35.3413C70.2091 34.5096 70.535 33.712 71.1151 33.1239C71.6952 32.5358 72.482 32.2054 73.3023 32.2054H89.3872C90.2076 32.2054 90.9943 32.5358 91.5744 33.1239C92.1545 33.712 92.4804 34.5096 92.4804 35.3413C92.4804 36.173 92.1545 36.9706 91.5744 37.5587C90.9943 38.1468 90.2076 38.4772 89.3872 38.4772ZM73.3023 32.7072C72.6132 32.7072 71.9523 32.9847 71.4651 33.4787C70.9778 33.9727 70.704 34.6427 70.704 35.3413C70.704 36.0399 70.9778 36.7099 71.4651 37.2039C71.9523 37.6979 72.6132 37.9754 73.3023 37.9754H89.3872C90.0763 37.9754 90.7372 37.6979 91.2245 37.2039C91.7118 36.7099 91.9855 36.0399 91.9855 35.3413C91.9855 34.6427 91.7118 33.9727 91.2245 33.4787C90.7372 32.9847 90.0763 32.7072 89.3872 32.7072H73.3023Z" fill="#3F3D56"/>
<path d="M89.3872 48.0102H73.3023C72.482 48.0102 71.6952 47.6798 71.1151 47.0917C70.535 46.5037 70.2091 45.706 70.2091 44.8744C70.2091 44.0427 70.535 43.2451 71.1151 42.657C71.6952 42.0689 72.482 41.7385 73.3023 41.7385H89.3872C90.2076 41.7385 90.9943 42.0689 91.5744 42.657C92.1545 43.2451 92.4804 44.0427 92.4804 44.8744C92.4804 45.706 92.1545 46.5037 91.5744 47.0917C90.9943 47.6798 90.2076 48.0102 89.3872 48.0102ZM73.3023 42.2402C72.6132 42.2402 71.9523 42.5178 71.4651 43.0118C70.9778 43.5057 70.704 44.1757 70.704 44.8744C70.704 45.573 70.9778 46.243 71.4651 46.737C71.9523 47.231 72.6132 47.5085 73.3023 47.5085H89.3872C90.0763 47.5085 90.7372 47.231 91.2245 46.737C91.7118 46.243 91.9855 45.573 91.9855 44.8744C91.9855 44.1757 91.7118 43.5057 91.2245 43.0118C90.7372 42.5178 90.0763 42.2402 89.3872 42.2402H73.3023Z" fill="#3F3D56"/>
<path d="M174.224 -10.9421L138.338 -4.90425C137.238 -4.71756 136.256 -4.09634 135.607 -3.17678C134.959 -2.25722 134.696 -1.11436 134.877 0.00124741L144.236 57.17C144.42 58.2851 145.033 59.2807 145.94 59.9384C146.847 60.5962 147.974 60.8625 149.075 60.679L184.961 54.6411C186.06 54.4544 187.042 53.8332 187.691 52.9137C188.34 51.9941 188.603 50.8513 188.422 49.7357L179.063 -7.43314C178.879 -8.54822 178.266 -9.54378 177.359 -10.2016C176.452 -10.8593 175.324 -11.1256 174.224 -10.9421ZM187.934 49.8178C188.093 50.8022 187.862 51.8107 187.289 52.6221C186.717 53.4335 185.85 53.9816 184.879 54.1462L148.994 60.184C148.023 60.3462 147.028 60.1113 146.228 59.5308C145.427 58.9504 144.887 58.0719 144.724 57.0879L135.365 -0.0809126C135.205 -1.0653 135.437 -2.0738 136.009 -2.88523C136.582 -3.69665 137.449 -4.24474 138.419 -4.40928L174.305 -10.4471C175.276 -10.6093 176.271 -10.3744 177.071 -9.79396C177.871 -9.21354 178.412 -8.33498 178.574 -7.35099L187.934 49.8178Z" fill="#3F3D56"/>
<path d="M167.902 12.5L152.035 15.1698C151.225 15.306 150.396 15.1107 149.729 14.6268C149.061 14.1429 148.611 13.4101 148.477 12.5897C148.342 11.7692 148.535 10.9283 149.012 10.2518C149.49 9.5754 150.212 9.11888 151.022 8.98271L166.89 6.31291C167.699 6.17729 168.528 6.37293 169.195 6.85681C169.861 7.34069 170.311 8.07321 170.446 8.89334C170.58 9.71348 170.387 10.5541 169.911 11.2304C169.434 11.9067 168.711 12.3634 167.902 12.5ZM151.103 9.47768C150.423 9.59221 149.816 9.97573 149.415 10.5439C149.015 11.1121 148.853 11.8184 148.966 12.5074C149.078 13.1965 149.457 13.812 150.017 14.2184C150.577 14.6249 151.274 14.7891 151.954 14.6748L167.821 12.005C168.501 11.8905 169.108 11.507 169.509 10.9388C169.91 10.3707 170.071 9.66436 169.959 8.97528C169.846 8.2862 169.468 7.67075 168.907 7.2643C168.347 6.85785 167.65 6.69367 166.971 6.80788L151.103 9.47768Z" fill="#CCCCCC"/>
<path d="M169.766 23.8842L153.898 26.554C153.498 26.6217 153.087 26.6087 152.692 26.5157C152.296 26.4226 151.922 26.2515 151.591 26.0119C151.261 25.7723 150.98 25.469 150.765 25.1194C150.55 24.7698 150.405 24.3806 150.339 23.9742C150.272 23.5678 150.285 23.1521 150.377 22.7508C150.469 22.3496 150.638 21.9706 150.875 21.6356C151.111 21.3006 151.411 21.0161 151.756 20.7985C152.101 20.5808 152.485 20.4341 152.886 20.3669L168.753 17.6971C169.563 17.561 170.392 17.7563 171.059 18.2402C171.727 18.724 172.177 19.4568 172.311 20.2773C172.446 21.0977 172.253 21.9387 171.776 22.6151C171.298 23.2916 170.576 23.7481 169.766 23.8842ZM152.967 20.8619C152.287 20.9766 151.68 21.3601 151.279 21.9283C150.879 22.4964 150.717 23.2026 150.83 23.8916C150.943 24.5805 151.321 25.1959 151.881 25.6024C152.441 26.0088 153.138 26.1731 153.817 26.0591L169.685 23.3893C170.365 23.2746 170.972 22.891 171.372 22.3229C171.773 21.7548 171.935 21.0486 171.822 20.3596C171.709 19.6706 171.331 19.0553 170.771 18.6488C170.211 18.2423 169.514 18.0781 168.834 18.1921L152.967 20.8619Z" fill="#CCCCCC"/>
<path d="M171.63 35.2685L155.762 37.9383C155.361 38.006 154.951 37.993 154.555 37.8999C154.159 37.8069 153.785 37.6357 153.455 37.3961C153.124 37.1566 152.844 36.8533 152.629 36.5037C152.414 36.154 152.269 35.7649 152.202 35.3585C152.136 34.9521 152.149 34.5364 152.241 34.1351C152.333 33.7338 152.502 33.3549 152.738 33.0199C152.975 32.6849 153.274 32.4004 153.619 32.1827C153.964 31.9651 154.348 31.8184 154.749 31.7512L170.617 29.0814C171.426 28.9458 172.255 29.1414 172.922 29.6253C173.589 30.1092 174.039 30.8417 174.173 31.6619C174.307 32.482 174.115 33.3226 173.638 33.9989C173.161 34.6752 172.439 35.1319 171.63 35.2685ZM154.83 32.2462C154.494 32.3027 154.171 32.426 153.881 32.6089C153.592 32.7918 153.34 33.0307 153.142 33.3121C152.943 33.5935 152.801 33.9117 152.724 34.2487C152.647 34.5857 152.636 34.9348 152.692 35.2761C152.748 35.6174 152.869 35.9442 153.05 36.2379C153.23 36.5315 153.466 36.7862 153.744 36.9875C154.021 37.1887 154.335 37.3326 154.668 37.4108C155 37.489 155.344 37.5001 155.681 37.4434L171.549 34.7735C171.886 34.717 172.208 34.5938 172.498 34.411C172.788 34.2281 173.039 33.9892 173.238 33.7078C173.436 33.4264 173.578 33.1081 173.655 32.771C173.733 32.434 173.744 32.0848 173.688 31.7435C173.632 31.4021 173.51 31.0753 173.33 30.7816C173.149 30.488 172.913 30.2332 172.636 30.032C172.358 29.8307 172.044 29.6869 171.712 29.6087C171.379 29.5306 171.035 29.5196 170.698 29.5764L154.83 32.2462Z" fill="#CCCCCC"/>
<path d="M173.494 46.6528L157.626 49.3226C157.225 49.39 156.815 49.3768 156.419 49.2836C156.024 49.1904 155.65 49.0191 155.32 48.7796C154.989 48.54 154.709 48.2368 154.494 47.8872C154.279 47.5377 154.134 47.1487 154.068 46.7425C154.001 46.3362 154.014 45.9207 154.106 45.5195C154.198 45.1184 154.367 44.7396 154.604 44.4046C154.84 44.0697 155.139 43.7852 155.484 43.5675C155.828 43.3497 156.212 43.2029 156.613 43.1355L172.481 40.4657C173.29 40.3301 174.119 40.5257 174.786 41.0096C175.453 41.4935 175.903 42.226 176.037 43.0461C176.171 43.8663 175.979 44.7069 175.502 45.3832C175.025 46.0595 174.303 46.5162 173.494 46.6528ZM156.694 43.6305C156.357 43.6871 156.035 43.8104 155.745 43.9933C155.456 44.1762 155.205 44.4152 155.006 44.6965C154.605 45.2647 154.443 45.9711 154.556 46.6603C154.669 47.3495 155.047 47.965 155.608 48.3715C156.168 48.7779 156.865 48.942 157.545 48.8276L173.413 46.1578C174.092 46.0433 174.699 45.6598 175.1 45.0916C175.501 44.5234 175.663 43.8171 175.55 43.1281C175.437 42.439 175.059 41.8235 174.499 41.4171C173.938 41.0106 173.242 40.8465 172.562 40.9607L156.694 43.6305Z" fill="#CCCCCC"/>
<path d="M179.361 -4.07736L135.664 3.27487C135.632 3.28039 135.599 3.27942 135.567 3.27204C135.535 3.26465 135.505 3.25098 135.479 3.23182C135.452 3.21266 135.43 3.18837 135.413 3.16037C135.395 3.13236 135.384 3.10117 135.378 3.0686C135.373 3.03603 135.374 3.00271 135.381 2.97055C135.389 2.9384 135.402 2.90804 135.421 2.88122C135.44 2.8544 135.464 2.83164 135.492 2.81426C135.52 2.79687 135.551 2.7852 135.583 2.77991L179.28 -4.57232C179.312 -4.57784 179.345 -4.57688 179.377 -4.56949C179.409 -4.56211 179.439 -4.54844 179.465 -4.52927C179.492 -4.51011 179.514 -4.48583 179.532 -4.45782C179.549 -4.42981 179.56 -4.39863 179.566 -4.36606C179.571 -4.33348 179.57 -4.30017 179.563 -4.26801C179.555 -4.23586 179.542 -4.2055 179.523 -4.17868C179.504 -4.15186 179.48 -4.1291 179.452 -4.11171C179.424 -4.09432 179.393 -4.08265 179.361 -4.07736Z" fill="#3F3D56"/>
<path d="M140.411 0.317662C141.367 0.317662 142.143 -0.468563 142.143 -1.43842C142.143 -2.40828 141.367 -3.1945 140.411 -3.1945C139.454 -3.1945 138.679 -2.40828 138.679 -1.43842C138.679 -0.468563 139.454 0.317662 140.411 0.317662Z" fill="#FFAB63"/>
<path d="M12.6748 30.0731H-5.88463C-6.4423 30.0724 -6.97695 29.8476 -7.37128 29.4478C-7.76561 29.048 -7.98742 28.506 -7.98804 27.9407V8.87461C-7.98741 8.30926 -7.76561 7.76724 -7.37128 7.36748C-6.97695 6.96771 -6.4423 6.74285 -5.88463 6.74222H12.6748C13.2325 6.74285 13.7671 6.96771 14.1614 7.36748C14.5558 7.76724 14.7776 8.30926 14.7782 8.87461V27.9407C14.7776 28.506 14.5558 29.048 14.1614 29.4478C13.7671 29.8476 13.2325 30.0724 12.6748 30.0731Z" fill="#FFAB63"/>
<path d="M11.3137 44.2472H-4.77114C-5.59152 44.2472 -6.3783 43.9168 -6.95839 43.3287C-7.53849 42.7406 -7.86438 41.943 -7.86438 41.1113C-7.86438 40.2796 -7.53849 39.482 -6.95839 38.8939C-6.3783 38.3058 -5.59152 37.9754 -4.77114 37.9754H11.3137C12.1341 37.9754 12.9209 38.3058 13.501 38.8939C14.0811 39.482 14.4069 40.2796 14.4069 41.1113C14.4069 41.943 14.0811 42.7406 13.501 43.3287C12.9209 43.9168 12.1341 44.2472 11.3137 44.2472ZM-4.77114 38.4772C-5.46026 38.4772 -6.12115 38.7547 -6.60843 39.2487C-7.09571 39.7427 -7.36946 40.4127 -7.36946 41.1113C-7.36946 41.8099 -7.09571 42.4799 -6.60843 42.9739C-6.12115 43.4679 -5.46026 43.7454 -4.77114 43.7454H11.3137C12.0028 43.7454 12.6637 43.4679 13.151 42.9739C13.6383 42.4799 13.912 41.8099 13.912 41.1113C13.912 40.4127 13.6383 39.7427 13.151 39.2487C12.6637 38.7547 12.0028 38.4772 11.3137 38.4772H-4.77114Z" fill="#3F3D56"/>
<path d="M14.2833 29.6968C14.2508 29.6969 14.2186 29.6904 14.1886 29.6778C14.1585 29.6652 14.1312 29.6467 14.1083 29.6233L-7.66812 7.54681C-7.69134 7.52356 -7.70979 7.4959 -7.72241 7.46539C-7.73504 7.43489 -7.7416 7.40216 -7.7417 7.36908C-7.7418 7.336 -7.73544 7.30323 -7.723 7.27265C-7.71056 7.24207 -7.69228 7.21429 -7.6692 7.1909C-7.64613 7.16751 -7.61872 7.14898 -7.58855 7.13637C-7.55839 7.12377 -7.52606 7.11732 -7.49343 7.11743C-7.4608 7.11754 -7.42852 7.12419 -7.39843 7.137C-7.36835 7.14981 -7.34106 7.16852 -7.31813 7.19206L14.4583 29.2686C14.4929 29.3037 14.5164 29.3484 14.526 29.397C14.5355 29.4457 14.5306 29.4961 14.5119 29.5419C14.4932 29.5878 14.4614 29.627 14.4208 29.6545C14.3801 29.6821 14.3322 29.6968 14.2833 29.6968V29.6968Z" fill="white"/>
<path d="M-7.49315 29.6968C-7.54209 29.6968 -7.58993 29.6821 -7.63062 29.6545C-7.67131 29.627 -7.70303 29.5878 -7.72176 29.542C-7.74049 29.4961 -7.74539 29.4457 -7.73585 29.397C-7.72631 29.3484 -7.70275 29.3037 -7.66815 29.2686L14.1083 7.19208C14.1312 7.16854 14.1585 7.14982 14.1886 7.13702C14.2186 7.12421 14.2509 7.11756 14.2836 7.11745C14.3162 7.11734 14.3485 7.12378 14.3787 7.13639C14.4088 7.149 14.4363 7.16753 14.4593 7.19091C14.4824 7.2143 14.5007 7.24208 14.5131 7.27266C14.5256 7.30324 14.5319 7.33601 14.5318 7.36909C14.5317 7.40217 14.5252 7.4349 14.5125 7.4654C14.4999 7.4959 14.4815 7.52357 14.4582 7.54682L-7.31816 29.6233C-7.34111 29.6467 -7.36839 29.6652 -7.39842 29.6778C-7.42845 29.6904 -7.46065 29.6969 -7.49315 29.6968Z" fill="white"/>
<path d="M183.683 55.333C183.797 54.9565 183.829 54.5591 183.776 54.1689C183.722 53.7786 183.585 53.4049 183.374 53.0741C183.163 52.7434 182.883 52.4636 182.553 52.2544C182.224 52.0453 181.853 51.9119 181.468 51.8637L168.765 36.8157L165.802 39.9694L178.455 54.3977C178.418 55.06 178.622 55.713 179.028 56.2331C179.434 56.7531 180.015 57.104 180.659 57.2193C181.303 57.3346 181.967 57.2062 182.524 56.8586C183.082 56.5109 183.494 55.9681 183.683 55.333V55.333Z" fill="#A0616A"/>
<path d="M172.445 39.9859L167.904 43.3502C167.775 43.4459 167.627 43.5123 167.47 43.5448C167.313 43.5773 167.151 43.5751 166.995 43.5385C166.839 43.5019 166.693 43.4316 166.566 43.3325C166.44 43.2334 166.336 43.1077 166.261 42.9642L163.652 37.9328C163.172 37.2599 162.976 36.4218 163.105 35.6022C163.234 34.7826 163.679 34.0484 164.341 33.5606C165.004 33.0728 165.83 32.8712 166.639 33C167.448 33.1288 168.173 33.5775 168.656 34.2478L172.581 38.282C172.693 38.3976 172.779 38.5363 172.834 38.6887C172.889 38.8412 172.91 39.0038 172.897 39.1655C172.884 39.3272 172.837 39.4842 172.759 39.6258C172.681 39.7673 172.574 39.8902 172.445 39.9859V39.9859Z" fill="#FFAB63"/>
<path d="M163.683 29.9323C167.039 29.9323 169.76 27.1737 169.76 23.7707C169.76 20.3678 167.039 17.6091 163.683 17.6091C160.326 17.6091 157.605 20.3678 157.605 23.7707C157.605 27.1737 160.326 29.9323 163.683 29.9323Z" fill="#A0616A"/>
<path d="M166.323 51.5691C166.26 51.5691 166.197 51.5638 166.135 51.5532L155.47 49.7334C155.213 49.69 154.98 49.5566 154.81 49.3563C154.64 49.1561 154.545 48.9018 154.542 48.6378C154.509 46.1644 154.692 39.9206 157.082 35.3728C157.83 33.9513 159.061 32.8535 160.547 32.2835C162.033 31.7135 163.673 31.7101 165.162 32.2741C166.65 32.838 167.886 33.9308 168.639 35.3492C169.392 36.7677 169.611 38.4152 169.256 39.9853C168.456 43.4786 167.845 47.0136 167.424 50.5745C167.392 50.848 167.262 51.1002 167.06 51.2834C166.857 51.4667 166.595 51.5683 166.323 51.5691L166.323 51.5691Z" fill="#2F2E41"/>
<path d="M143.964 31.281C143.994 31.4164 144.014 31.5539 144.023 31.6925L154.653 37.9095L157.237 36.4015L159.992 40.0573L155.673 43.1775C155.324 43.4295 154.904 43.5601 154.476 43.5495C154.048 43.5389 153.635 43.3878 153.298 43.1188L142.337 34.352C141.842 34.5376 141.303 34.5662 140.792 34.4338C140.281 34.3015 139.822 34.0146 139.475 33.6112C139.129 33.2078 138.912 32.7071 138.853 32.1757C138.795 31.6442 138.897 31.1073 139.147 30.6362C139.396 30.1651 139.781 29.7822 140.251 29.5384C140.72 29.2947 141.252 29.2016 141.775 29.2716C142.298 29.3416 142.787 29.5713 143.178 29.9303C143.569 30.2892 143.843 30.7603 143.964 31.281V31.281Z" fill="#A0616A"/>
<path d="M154.799 37.2881C154.831 37.1291 154.897 36.9791 154.991 36.8481C155.086 36.7171 155.207 36.6084 155.346 36.5292L160.225 33.7639C160.873 33.2569 161.693 33.031 162.505 33.1359C163.317 33.2408 164.055 33.6679 164.557 34.3235C165.059 34.9791 165.284 35.8098 165.183 36.6334C165.082 37.457 164.663 38.2063 164.017 38.7171L160.128 42.8116C160.017 42.9285 159.882 43.0197 159.734 43.0791C159.585 43.1385 159.425 43.1646 159.265 43.1557C159.105 43.1469 158.949 43.1032 158.808 43.0277C158.666 42.9521 158.542 42.8466 158.444 42.7181L155.009 38.204C154.911 38.0756 154.841 37.9273 154.805 37.7692C154.769 37.6111 154.767 37.447 154.799 37.2881Z" fill="#FFAB63"/>
<path d="M175.156 100.679C174.925 100.678 174.7 100.605 174.512 100.47C174.323 100.335 174.181 100.143 174.104 99.9227L164.436 71.9189C164.399 71.8117 164.333 71.7166 164.247 71.6439C164.161 71.5713 164.057 71.5237 163.946 71.5063C163.835 71.489 163.722 71.5025 163.618 71.5454C163.514 71.5883 163.424 71.659 163.357 71.7499L153.926 84.4974C153.853 84.597 153.801 84.7111 153.774 84.8323L150.769 98.4244C150.715 98.6659 150.584 98.8829 150.397 99.042C150.21 99.2011 149.976 99.2935 149.733 99.3051L146.133 99.4709C145.978 99.4789 145.823 99.4535 145.678 99.3963C145.533 99.3391 145.402 99.2515 145.293 99.1392C145.184 99.0276 145.098 98.894 145.043 98.747C144.987 98.6 144.963 98.4429 144.971 98.2857L145.598 85.8797C145.796 81.8663 146.816 77.9387 148.593 74.3468C152.544 66.3604 154.83 57.6347 155.308 48.7135L155.316 48.5746L166.39 50.3608L168.052 52.6944C168.794 53.7471 169.598 54.7537 170.459 55.7087C172.576 58.0359 173.212 61.1482 173.372 63.3492C173.579 66.0543 173.957 68.7431 174.503 71.3993L179.995 98.7595C180.036 98.9148 180.044 99.0773 180.018 99.236C179.993 99.3947 179.934 99.546 179.845 99.6797C179.757 99.8134 179.642 99.9264 179.507 100.011C179.372 100.096 179.221 100.151 179.064 100.172L175.299 100.669C175.251 100.676 175.204 100.679 175.156 100.679Z" fill="#2F2E41"/>
<path d="M170.403 19.4941C169.92 18.0104 169.564 16.4875 169.338 14.942C169.267 14.0423 169.494 13.0742 170.14 12.4534C171.35 11.2916 173.405 11.8449 174.67 12.9444C176.498 14.5335 177.41 16.9756 177.755 19.3918C178.099 21.808 177.948 24.265 178.03 26.7049C178.113 29.1448 178.458 31.6535 179.685 33.7542C180.912 35.8549 183.189 37.4673 185.59 37.2885C186.56 37.2354 187.48 36.84 188.192 36.1708C188.541 35.8337 188.806 35.4167 188.964 34.9546C189.121 34.4926 189.167 33.9989 189.098 33.5151C190.325 35.7434 189.703 38.7635 187.872 40.5152C186.041 42.267 183.225 42.7622 180.818 42.0143C178.411 41.2663 176.43 39.391 175.246 37.1382C174.063 34.8855 173.629 32.2831 173.692 29.7316C173.741 27.7723 174.069 25.7969 173.742 23.8652C173.416 21.9334 172.223 19.972 170.343 19.5171L170.403 19.4941Z" fill="#2F2E41"/>
<path d="M161.958 22.0339C161.638 23.1197 160.411 23.7892 159.308 23.6056C158.205 23.422 157.298 22.5009 156.962 21.4196C156.659 20.3153 156.783 19.1354 157.309 18.1206C157.599 17.5123 158.004 16.968 158.502 16.5187C158.999 16.0694 159.579 15.724 160.209 15.5023C160.842 15.2897 161.516 15.2343 162.174 15.341C162.833 15.4477 163.456 15.7132 163.992 16.1152C164.049 15.8712 164.169 15.6471 164.34 15.466C164.511 15.2848 164.727 15.153 164.965 15.0843C165.443 14.9535 165.949 14.961 166.424 15.1061C167.792 15.5014 168.978 16.3759 169.77 17.574C170.552 18.7684 171.069 20.1206 171.287 21.5372C171.66 23.6617 171.522 25.9832 170.345 27.7813C169.168 29.5794 166.76 30.6411 164.807 29.7839C164.685 29.1526 164.974 28.5169 165.307 27.9699C165.641 27.4229 166.037 26.89 166.165 26.26C166.293 25.63 166.048 24.8594 165.446 24.6534C164.934 24.4776 164.387 24.7624 163.847 24.7968C163.54 24.8163 163.233 24.7537 162.958 24.6152C162.683 24.4768 162.448 24.2673 162.278 24.0079C162.107 23.7485 162.007 23.4482 161.987 23.1372C161.968 22.8263 162.029 22.5155 162.165 22.236L161.958 22.0339Z" fill="#2F2E41"/>
</g>
<defs>
<clipPath id="clip0">
<rect width="455" height="90" fill="white"/>
</clipPath>
</defs>
</svg>
